//Event file generated from Sappy .s format.

	#define	EdgeOfDawn_grp  voicegroup000
	#define	EdgeOfDawn_pri  0
	#define	EdgeOfDawn_rev  0
	#define	EdgeOfDawn_mvl  85
	#define	EdgeOfDawn_key  0
	#define	EdgeOfDawn_tbs  1
	#define	EdgeOfDawn_exg  0
	#define	EdgeOfDawn_cmp  1

	// .rodata
	//	EdgeOfDawn
	ALIGN 4

//**************** Track 1 (Midi-Chn.1) ****************//

EdgeOfDawn_1:
	BYTE	KEYSH   EdgeOfDawn_key+0
// 000   ----------------------------------------
	BYTE	TEMPO   85*EdgeOfDawn_tbs/2
	BYTE		VOICE   73
	BYTE		VOL     122*EdgeOfDawn_mvl/mxv
	BYTE		PAN     c_v-25
	BYTE		VOL     121*EdgeOfDawn_mvl/mxv
	BYTE		PAN     c_v-26
	BYTE	W96
// 001   ----------------------------------------
	BYTE	W96
// 002   ----------------------------------------
	BYTE	W96
// 003   ----------------------------------------
	BYTE	W96
// 004   ----------------------------------------
	BYTE	W96
// 005   ----------------------------------------
	BYTE	W96
// 006   ----------------------------------------
	BYTE	W96
// 007   ----------------------------------------
	BYTE	W96
// 008   ----------------------------------------
	BYTE	W96
// 009   ----------------------------------------
	BYTE		N02     Fn4   v064
	BYTE	W02
	BYTE		N15     Fs4 
	BYTE	W16
	BYTE		N17     Gs4 
	BYTE	W18
	BYTE		N11     Fn4   v076
	BYTE	W12
EdgeOfDawn_1_B1:
	BYTE		N44     Fs4   v080
	BYTE	W48
// 010   ----------------------------------------
	BYTE		N17   
	BYTE	W18
	BYTE		        Gs4 
	BYTE	W18
	BYTE		N11     Fn4 
	BYTE	W12
	BYTE		N44     Cs4 
	BYTE	W48
// 011   ----------------------------------------
	BYTE		N17     Fs4 
	BYTE	W18
	BYTE		        Gs4 
	BYTE	W18
	BYTE		N11     Fn4 
	BYTE	W12
	BYTE		N23     Fs4 
	BYTE	W24
	BYTE		        Cs5 
	BYTE	W24
// 012   ----------------------------------------
	BYTE		N11   
	BYTE	W12
	BYTE		        Bn4 
	BYTE	W12
	BYTE		        As4 
	BYTE	W12
	BYTE		N05     Gs4 
	BYTE	W06
	BYTE		N52     As4 
	BYTE	W54
// 013   ----------------------------------------
	BYTE		N11     Fs4 
	BYTE	W12
	BYTE		N05   
	BYTE	W06
	BYTE		N17     Gs4 
	BYTE	W18
	BYTE		N11     Fn4 
	BYTE	W12
	BYTE		N32     Fs4 
	BYTE	W48
// 014   ----------------------------------------
	BYTE		N17   
	BYTE	W18
	BYTE		        Gs4 
	BYTE	W18
	BYTE		N11     Fn4 
	BYTE	W12
	BYTE		N23     Cs4 
	BYTE	W24
	BYTE		        Cs5 
	BYTE	W24
// 015   ----------------------------------------
	BYTE		N11   
	BYTE	W12
	BYTE		        Bn4 
	BYTE	W12
	BYTE		        As4 
	BYTE	W12
	BYTE		        Gs4 
	BYTE	W12
	BYTE		N23     Fs4 
	BYTE	W24
	BYTE		N02     Gs4 
	BYTE	W02
	BYTE		N21     As4 
	BYTE	W22
// 016   ----------------------------------------
	BYTE		N23     Gs4 
	BYTE	W24
	BYTE		        Fs4 
	BYTE	W24
	BYTE		N17     Fn4 
	BYTE	W18
	BYTE		N44     Ds4 
	BYTE	W30
// 017   ----------------------------------------
	BYTE	W96
// 018   ----------------------------------------
EdgeOfDawn_1_018:
	BYTE	W48
	BYTE		N11     Bn1   v096
	BYTE	W12
	BYTE		        Fs2 
	BYTE	W12
	BYTE		        Cs3 
	BYTE	W12
	BYTE		        Fs2 
	BYTE	W12
	BYTE	PEND
// 019   ----------------------------------------
EdgeOfDawn_1_019:
	BYTE		N11     Cs3   v096
	BYTE	W12
	BYTE		        Fs2 
	BYTE	W12
	BYTE		        Bn1 
	BYTE	W12
	BYTE		        Fs2 
	BYTE	W12
	BYTE		        Bn1 
	BYTE	W12
	BYTE		        Gs2 
	BYTE	W12
	BYTE		        Cs3 
	BYTE	W12
	BYTE		        Fn2 
	BYTE	W12
	BYTE	PEND
// 020   ----------------------------------------
EdgeOfDawn_1_020:
	BYTE		N11     Cs3   v096
	BYTE	W12
	BYTE		        Gs2 
	BYTE	W12
	BYTE		        Bn1 
	BYTE	W12
	BYTE		        Gs2 
	BYTE	W12
	BYTE		        As1 
	BYTE	W12
	BYTE		        Gs2 
	BYTE	W12
	BYTE		N23     Cs3 
	BYTE	W12
	BYTE		N11     Fs2 
	BYTE	W12
	BYTE	PEND
// 021   ----------------------------------------
EdgeOfDawn_1_021:
	BYTE		N11     Cs3   v096
	BYTE	W12
	BYTE		        Gs2 
	BYTE	W12
	BYTE		        Cs2 
	BYTE	W12
	BYTE		        Gs2 
	BYTE	W12
	BYTE		        Ds1 
	BYTE	W12
	BYTE		        Ds2 
	BYTE	W12
	BYTE		        As2 
	BYTE	W12
	BYTE		        Ds2 
	BYTE	W12
	BYTE	PEND
// 022   ----------------------------------------
EdgeOfDawn_1_022:
	BYTE		N11     As2   v096
	BYTE	W12
	BYTE		        Ds2 
	BYTE	W12
	BYTE		        Cs2 
	BYTE	W12
	BYTE		        Gs2 
	BYTE	W12
	BYTE		        Bn1 
	BYTE	W12
	BYTE		        Fs2 
	BYTE	W12
	BYTE		        Cs3 
	BYTE	W12
	BYTE		        Fs2 
	BYTE	W12
	BYTE	PEND
// 023   ----------------------------------------
	BYTE	PATT
	 POIN2	EdgeOfDawn_1_019
// 024   ----------------------------------------
	BYTE	PATT
	 POIN2	EdgeOfDawn_1_020
// 025   ----------------------------------------
EdgeOfDawn_1_025:
	BYTE		N11     Cs3   v096
	BYTE	W12
	BYTE		        Gs2 
	BYTE	W12
	BYTE		        Cs2 
	BYTE	W12
	BYTE		        Gs2 
	BYTE	W12
	BYTE		N23     Fs2 
	BYTE	W48
	BYTE	PEND
// 026   ----------------------------------------
	BYTE	W24
	BYTE		N11     Ds4   v080
	BYTE	W12
	BYTE		        Fn4 
	BYTE	W12
	BYTE		N28     Fs4 
	BYTE	W30
	BYTE		N05     Fn4 
	BYTE	W06
	BYTE		        Ds4 
	BYTE	W06
	BYTE		        Cs4 
	BYTE	W06
// 027   ----------------------------------------
	BYTE		N28     Ds4 
	BYTE	W30
	BYTE		N05     Cs4 
	BYTE	W06
	BYTE		        Bn3 
	BYTE	W06
	BYTE		        As3 
	BYTE	W06
	BYTE		N11     Gs3 
	BYTE	W12
	BYTE		N05     As3 
	BYTE	W06
	BYTE		N44   
	BYTE	W30
// 028   ----------------------------------------
EdgeOfDawn_1_028:
	BYTE	W36
	BYTE		N05     Ds4   v080
	BYTE	W06
	BYTE		        Fn4 
	BYTE	W06
	BYTE		N28     Fs4 
	BYTE	W30
	BYTE		N05     Fn4 
	BYTE	W06
	BYTE		        Ds4 
	BYTE	W06
	BYTE		        Cs4 
	BYTE	W06
	BYTE	PEND
// 029   ----------------------------------------
	BYTE		N28     Ds4 
	BYTE	W30
	BYTE		N05     Fs4 
	BYTE	W06
	BYTE		N05   
	BYTE	W06
	BYTE		        Gs4 
	BYTE	W06
	BYTE		N02     Ds4 
	BYTE	W02
	BYTE		N09     Fn4 
	BYTE	W10
	BYTE		N05     Cs4 
	BYTE	W06
	BYTE		N44   
	BYTE	W30
// 030   ----------------------------------------
	BYTE	W30
	BYTE		N05   
	BYTE	W06
	BYTE		        Ds4 
	BYTE	W06
	BYTE		        Fn4 
	BYTE	W06
	BYTE		N92     Bn1   v096
	BYTE		N92     Gs2 
	BYTE		N28     Fs4   v080
	BYTE	W30
	BYTE		N05     Fn4 
	BYTE	W06
	BYTE		        Ds4 
	BYTE	W06
	BYTE		        Cs4 
	BYTE	W06
// 031   ----------------------------------------
	BYTE		N28     Ds4 
	BYTE	W30
	BYTE		N05     Cs4 
	BYTE	W06
	BYTE		        Bn3 
	BYTE	W06
	BYTE		        As3 
	BYTE	W06
	BYTE		N44     As1   v096
	BYTE		N44     Gs2 
	BYTE		N11     Gs3   v080
	BYTE	W12
	BYTE		N05     As3 
	BYTE	W06
	BYTE		N11   
	BYTE	W12
	BYTE		        Bn3 
	BYTE	W12
	BYTE		N23     As3 
	BYTE	W06
// 032   ----------------------------------------
	BYTE		N44     As1   v096
	BYTE		N44     Fs2 
	BYTE	W30
	BYTE		N05     As3   v080
	BYTE	W06
	BYTE		N05   
	BYTE	W06
	BYTE		        Bn3 
	BYTE	W06
	BYTE		N92     En2   v096
	BYTE		N92     Bn2 
	BYTE		N02     Cn4   v080
	BYTE	W02
	BYTE		N09     Cs4 
	BYTE	W10
	BYTE		N05     Bn3 
	BYTE	W06
	BYTE		N11   
	BYTE	W12
	BYTE		        As3 
	BYTE	W12
	BYTE		N23     Gs3 
	BYTE	W06
// 033   ----------------------------------------
	BYTE	W24
	BYTE		N11   
	BYTE	W12
	BYTE		        Fs3 
	BYTE	W12
	BYTE		N44     Cn2   v096
	BYTE		N44     As2 
	BYTE		N11     Gs3   v080
	BYTE	W12
	BYTE		N05     As3 
	BYTE	W06
	BYTE		N32   
	BYTE	W30
// 034   ----------------------------------------
	BYTE		        As1   v096
	BYTE		N32     Fn2 
	BYTE	W36
	BYTE		N11     Fn4   v080
	BYTE	W12
	BYTE		N17     Fs4 
	BYTE	W18
	BYTE		        Fn4 
	BYTE	W18
	BYTE		N23     As3 
	BYTE	W12
// 035   ----------------------------------------
EdgeOfDawn_1_035:
	BYTE	W60
	BYTE		N11     Fs4   v080
	BYTE	W12
	BYTE		        Fn4 
	BYTE	W12
	BYTE		N23     As3 
	BYTE	W12
	BYTE	PEND
// 036   ----------------------------------------
	BYTE	W24
	BYTE		        Gs3 
	BYTE	W24
	BYTE		N11   
	BYTE	W12
	BYTE		N05     As3 
	BYTE	W06
	BYTE		N11   
	BYTE	W12
	BYTE		N05     Bn3 
	BYTE	W06
	BYTE		N28     As3 
	BYTE	W12
// 037   ----------------------------------------
	BYTE	W96
// 038   ----------------------------------------
	BYTE	W36
	BYTE		N05     Ds4 
	BYTE	W06
	BYTE		        Fn4 
	BYTE	W06
	BYTE		N17     Fs4 
	BYTE	W18
	BYTE		        Fn4 
	BYTE	W18
	BYTE		N23     As3 
	BYTE	W12
// 039   ----------------------------------------
	BYTE	PATT
	 POIN2	EdgeOfDawn_1_035
// 040   ----------------------------------------
	BYTE	W24
	BYTE		N23     Gs3   v080
	BYTE	W24
	BYTE		N11   
	BYTE	W12
	BYTE		N05     As3 
	BYTE	W06
	BYTE		N11   
	BYTE	W12
	BYTE		        Bn3 
	BYTE	W12
	BYTE		N28     As3 
	BYTE	W06
// 041   ----------------------------------------
	BYTE	W96
// 042   ----------------------------------------
	BYTE		N17     Fs4 
	BYTE	W18
	BYTE		        Gs4 
	BYTE	W18
	BYTE		N11     Fn4 
	BYTE	W12
	BYTE		N44     Bn1   v096
	BYTE		N32     Fs4 
	BYTE	W48
// 043   ----------------------------------------
	BYTE		N44     Cs2 
	BYTE		N17     Fs4 
	BYTE	W18
	BYTE		        Gs4 
	BYTE	W18
	BYTE		N11     Fn4 
	BYTE	W12
	BYTE		N44     As1 
	BYTE		N32     Cs4 
	BYTE	W48
// 044   ----------------------------------------
	BYTE		N44     Ds2 
	BYTE		N17     Fs4 
	BYTE	W18
	BYTE		        Gs4 
	BYTE	W18
	BYTE		N11     Fn4 
	BYTE	W12
	BYTE		N44     Gs1 
	BYTE		N23     Fs4 
	BYTE	W24
	BYTE		        Cs5 
	BYTE	W24
// 045   ----------------------------------------
	BYTE		N44     As1 
	BYTE		N02     Bn4 
	BYTE	W02
	BYTE		N09     Cs5 
	BYTE	W10
	BYTE		N11     Bn4 
	BYTE	W12
	BYTE		        As4 
	BYTE	W12
	BYTE		N05     Gs4 
	BYTE	W06
	BYTE		N40     As4 
	BYTE	W06
	BYTE		N44     Ds2 
	BYTE	W48
// 046   ----------------------------------------
	BYTE		N17     Fs4 
	BYTE	W18
	BYTE		        Gs4 
	BYTE	W18
	BYTE		N11     Fn4 
	BYTE	W12
	BYTE		N44     Bn1 
	BYTE		N32     Fs4 
	BYTE	W48
// 047   ----------------------------------------
	BYTE		N44     Cs2 
	BYTE		N17     Fs4 
	BYTE	W18
	BYTE		        Gs4 
	BYTE	W18
	BYTE		N11     Fn4 
	BYTE	W12
	BYTE		N23     Cs4 
	BYTE	W24
	BYTE		        Cs5 
	BYTE	W24
// 048   ----------------------------------------
	BYTE		N11   
	BYTE	W12
	BYTE		        Bn4 
	BYTE	W12
	BYTE		        As4 
	BYTE	W12
	BYTE		        Gs4 
	BYTE	W12
	BYTE		N23     Fs4 
	BYTE	W24
	BYTE		        As4 
	BYTE	W24
// 049   ----------------------------------------
	BYTE		        Gs4 
	BYTE	W24
	BYTE		        Fs4 
	BYTE	W24
	BYTE		N17     Fn4 
	BYTE	W18
	BYTE		N32     Ds4 
	BYTE	W30
// 050   ----------------------------------------
	BYTE	PATT
	 POIN2	EdgeOfDawn_1_018
// 051   ----------------------------------------
	BYTE	PATT
	 POIN2	EdgeOfDawn_1_019
// 052   ----------------------------------------
	BYTE	PATT
	 POIN2	EdgeOfDawn_1_020
// 053   ----------------------------------------
	BYTE	PATT
	 POIN2	EdgeOfDawn_1_021
// 054   ----------------------------------------
	BYTE	PATT
	 POIN2	EdgeOfDawn_1_022
// 055   ----------------------------------------
	BYTE	PATT
	 POIN2	EdgeOfDawn_1_019
// 056   ----------------------------------------
	BYTE	PATT
	 POIN2	EdgeOfDawn_1_020
// 057   ----------------------------------------
	BYTE	PATT
	 POIN2	EdgeOfDawn_1_025
// 058   ----------------------------------------
	BYTE	PATT
	 POIN2	EdgeOfDawn_1_028
// 059   ----------------------------------------
	BYTE		N28     Ds4   v080
	BYTE	W30
	BYTE		N05     Cs4 
	BYTE	W06
	BYTE		        Bn3 
	BYTE	W06
	BYTE		        As3 
	BYTE	W06
	BYTE		N17     Gs3 
	BYTE	W18
	BYTE		N44     As3 
	BYTE	W30
// 060   ----------------------------------------
	BYTE	W36
	BYTE		N05     Ds4 
	BYTE	W06
	BYTE		        Fn4 
	BYTE	W06
	BYTE		N28     Fs4 
	BYTE	W30
	BYTE		N05     Fn4   v084
	BYTE	W06
	BYTE		        Ds4 
	BYTE	W06
	BYTE		        Cs4 
	BYTE	W06
// 061   ----------------------------------------
	BYTE		N28     Ds4 
	BYTE	W36
	BYTE		N05     Fs4   v088
	BYTE	W06
	BYTE		        Gs4 
	BYTE	W06
	BYTE		N02     Ds4 
	BYTE	W02
	BYTE		N09     Fn4 
	BYTE	W10
	BYTE		N05     Cs4   v092
	BYTE	W06
	BYTE		N44   
	BYTE	W30
// 062   ----------------------------------------
	BYTE	W36
	BYTE		N05     Ds4   v096
	BYTE	W06
	BYTE		        Fn4 
	BYTE	W06
	BYTE		N92     Bn1   v080
	BYTE		N92     Gs2 
	BYTE		N28     Fs4   v096
	BYTE	W30
	BYTE		N05     Fn4 
	BYTE	W06
	BYTE		        Ds4 
	BYTE	W06
	BYTE		        Cs4 
	BYTE	W06
// 063   ----------------------------------------
	BYTE		N28     Ds4 
	BYTE	W30
	BYTE		N05     Cs4 
	BYTE	W06
	BYTE		        Bn3 
	BYTE	W06
	BYTE		        As3 
	BYTE	W06
	BYTE		N44     As1   v080
	BYTE		N44     Gs2 
	BYTE		N11     Gs3   v096
	BYTE	W12
	BYTE		N05     As3 
	BYTE	W06
	BYTE		N44   
	BYTE	W30
// 064   ----------------------------------------
	BYTE		        As1   v080
	BYTE		N44     As2 
	BYTE	W36
	BYTE		N05     As3   v096
	BYTE	W06
	BYTE		        Bn3 
	BYTE	W06
	BYTE		N92     En2   v080
	BYTE		N92     Bn2 
	BYTE		N02     Cn4   v096
	BYTE	W02
	BYTE		N09     Cs4 
	BYTE	W10
	BYTE		N05     Bn3 
	BYTE	W06
	BYTE		N11   
	BYTE	W12
	BYTE		        As3 
	BYTE	W12
	BYTE		N23     Gs3 
	BYTE	W06
// 065   ----------------------------------------
	BYTE	W24
	BYTE		N17   
	BYTE	W12
	BYTE		N11     Ds3 
	BYTE	W12
	BYTE		N44     Cn2   v080
	BYTE		N44     As2 
	BYTE		N11     Gs3   v096
	BYTE	W12
	BYTE		N05     As3 
	BYTE	W06
	BYTE		N32   
	BYTE	W30
// 066   ----------------------------------------
	BYTE		        As1   v080
	BYTE		N32     Gs2 
	BYTE	W48
	BYTE		N17     Fs4   v096
	BYTE	W18
	BYTE		        Fn4 
	BYTE	W18
	BYTE		N32     As3 
	BYTE	W12
// 067   ----------------------------------------
EdgeOfDawn_1_067:
	BYTE	W60
	BYTE		N11     Fs4   v096
	BYTE	W12
	BYTE		        Fn4 
	BYTE	W12
	BYTE		N32     As3 
	BYTE	W12
	BYTE	PEND
// 068   ----------------------------------------
	BYTE	W24
	BYTE		N23     Gs3 
	BYTE	W24
	BYTE		N11   
	BYTE	W12
	BYTE		N05     As3 
	BYTE	W06
	BYTE		N11   
	BYTE	W12
	BYTE		N05     Bn3 
	BYTE	W06
	BYTE		N40     As3 
	BYTE	W12
// 069   ----------------------------------------
	BYTE	W48
	BYTE		N11     Gs2   v064
	BYTE	W12
	BYTE		N05     As2 
	BYTE	W06
	BYTE		N11   
	BYTE	W12
	BYTE		N05     Bn2 
	BYTE	W06
	BYTE		N11     As2 
	BYTE	W12
// 070   ----------------------------------------
	BYTE	W36
	BYTE		        Fn4   v096
	BYTE	W12
	BYTE		N17     Fs4 
	BYTE	W18
	BYTE		        Fn4 
	BYTE	W18
	BYTE		N32     As3 
	BYTE	W12
// 071   ----------------------------------------
	BYTE	PATT
	 POIN2	EdgeOfDawn_1_067
// 072   ----------------------------------------
	BYTE	W24
	BYTE		N17     Gs3   v096
	BYTE	W18
	BYTE		N05   
	BYTE	W06
	BYTE		N11   
	BYTE	W12
	BYTE		N05     As3 
	BYTE	W06
	BYTE		N11   
	BYTE	W12
	BYTE		N05     Bn3 
	BYTE	W06
	BYTE		N44     As3 
	BYTE	W12
// 073   ----------------------------------------
	BYTE	W96
// 074   ----------------------------------------
	BYTE		N17     Fs4 
	BYTE	W18
	BYTE		        Gs4 
	BYTE	W18
	BYTE		N11     Fn4 
	BYTE	W12
	BYTE	GoTo
	 POIN2	EdgeOfDawn_1_B1
EdgeOfDawn_1_B2:
	BYTE	FINE

//**************** Track 2 (Midi-Chn.2) ****************//

EdgeOfDawn_2:
	BYTE	KEYSH   EdgeOfDawn_key+0
// 000   ----------------------------------------
	BYTE		VOICE   51
	BYTE		VOL     107*EdgeOfDawn_mvl/mxv
	BYTE		PAN     c_v-19
	BYTE	W96
// 001   ----------------------------------------
	BYTE	W96
// 002   ----------------------------------------
	BYTE	W96
// 003   ----------------------------------------
	BYTE	W96
// 004   ----------------------------------------
	BYTE	W96
// 005   ----------------------------------------
	BYTE	W96
// 006   ----------------------------------------
	BYTE	W96
// 007   ----------------------------------------
	BYTE	W96
// 008   ----------------------------------------
	BYTE	W96
// 009   ----------------------------------------
	BYTE	W48
EdgeOfDawn_2_B1:
	BYTE	W48
// 010   ----------------------------------------
	BYTE	W96
// 011   ----------------------------------------
	BYTE	W96
// 012   ----------------------------------------
	BYTE	W96
// 013   ----------------------------------------
	BYTE	W96
// 014   ----------------------------------------
	BYTE	W96
// 015   ----------------------------------------
	BYTE	W96
// 016   ----------------------------------------
	BYTE	W96
// 017   ----------------------------------------
	BYTE	W96
// 018   ----------------------------------------
	BYTE		N02     Ds3   v080
	BYTE	W03
	BYTE		        Fn3 
	BYTE	W03
	BYTE		        Fs3 
	BYTE	W03
	BYTE		        Gs3 
	BYTE	W03
	BYTE		        As3 
	BYTE	W03
	BYTE		        Cn4 
	BYTE	W03
	BYTE		        Dn4 
	BYTE	W03
	BYTE		        Ds4 
	BYTE	W03
	BYTE		        Fn4 
	BYTE	W03
	BYTE		        Fs4 
	BYTE	W03
	BYTE		        Gs4 
	BYTE	W03
	BYTE		        As4 
	BYTE	W03
	BYTE		        Bn4 
	BYTE	W03
	BYTE		        Cs5 
	BYTE	W03
	BYTE		        Ds5 
	BYTE	W03
	BYTE		        Fn5 
	BYTE	W48
	BYTE	W03
// 019   ----------------------------------------
	BYTE	W96
// 020   ----------------------------------------
	BYTE	W96
// 021   ----------------------------------------
	BYTE	W96
// 022   ----------------------------------------
	BYTE	W96
// 023   ----------------------------------------
	BYTE	W96
// 024   ----------------------------------------
	BYTE	W96
// 025   ----------------------------------------
	BYTE	W96
// 026   ----------------------------------------
	BYTE	W96
// 027   ----------------------------------------
	BYTE	W96
// 028   ----------------------------------------
	BYTE	W96
// 029   ----------------------------------------
	BYTE	W96
// 030   ----------------------------------------
	BYTE	W96
// 031   ----------------------------------------
	BYTE	W96
// 032   ----------------------------------------
	BYTE	W96
// 033   ----------------------------------------
	BYTE	W96
// 034   ----------------------------------------
	BYTE	W96
// 035   ----------------------------------------
	BYTE	W96
// 036   ----------------------------------------
	BYTE	W96
// 037   ----------------------------------------
	BYTE	W96
// 038   ----------------------------------------
	BYTE	W96
// 039   ----------------------------------------
	BYTE	W96
// 040   ----------------------------------------
	BYTE	W30
	BYTE		        Cs5   v052
	BYTE	W03
	BYTE		        Bn4 
	BYTE	W03
	BYTE		        As4 
	BYTE	W03
	BYTE		        Gs4 
	BYTE	W03
	BYTE		        Fs4 
	BYTE	W03
	BYTE		        Fn4 
	BYTE	W03
	BYTE		        Ds4 
	BYTE	W03
	BYTE		        Cs4 
	BYTE	W03
	BYTE		        Bn3 
	BYTE	W03
	BYTE		        As3 
	BYTE	W03
	BYTE		        Gs3 
	BYTE	W03
	BYTE		        Fs3 
	BYTE	W03
	BYTE		        Fn3 
	BYTE	W03
	BYTE		        Ds3 
	BYTE	W03
	BYTE		        Dn3 
	BYTE	W03
	BYTE		        Bn2 
	BYTE	W03
	BYTE		        As2 
	BYTE	W03
	BYTE		        Gs2 
	BYTE	W03
	BYTE		        Fs2 
	BYTE	W03
	BYTE		        Fn2 
	BYTE	W09
// 041   ----------------------------------------
	BYTE	W96
// 042   ----------------------------------------
	BYTE	W96
// 043   ----------------------------------------
	BYTE	W96
// 044   ----------------------------------------
	BYTE	W96
// 045   ----------------------------------------
	BYTE	W96
// 046   ----------------------------------------
	BYTE	W96
// 047   ----------------------------------------
	BYTE	W96
// 048   ----------------------------------------
	BYTE	W30
	BYTE		        Ds3   v064
	BYTE	W03
	BYTE		        Fn3 
	BYTE	W03
	BYTE		        Fs3 
	BYTE	W03
	BYTE		        Gs3 
	BYTE	W03
	BYTE		        As3 
	BYTE	W03
	BYTE		        Cn4 
	BYTE	W03
	BYTE		        Dn4 
	BYTE	W03
	BYTE		        Ds4 
	BYTE	W03
	BYTE		        Fn4 
	BYTE	W03
	BYTE		        Fs4 
	BYTE	W03
	BYTE		        Gs4 
	BYTE	W03
	BYTE		        As4 
	BYTE	W03
	BYTE		        Bn4 
	BYTE	W03
	BYTE		        Cs5 
	BYTE	W03
	BYTE		        Ds5 
	BYTE	W03
	BYTE		        Fn5 
	BYTE	W21
// 049   ----------------------------------------
	BYTE	W96
// 050   ----------------------------------------
	BYTE	W96
// 051   ----------------------------------------
	BYTE	W96
// 052   ----------------------------------------
	BYTE	W96
// 053   ----------------------------------------
	BYTE	W96
// 054   ----------------------------------------
	BYTE	W96
// 055   ----------------------------------------
	BYTE	W96
// 056   ----------------------------------------
	BYTE	W96
// 057   ----------------------------------------
	BYTE	W96
// 058   ----------------------------------------
	BYTE	W96
// 059   ----------------------------------------
	BYTE	W96
// 060   ----------------------------------------
	BYTE	W96
// 061   ----------------------------------------
	BYTE	W96
// 062   ----------------------------------------
	BYTE	W96
// 063   ----------------------------------------
	BYTE	W96
// 064   ----------------------------------------
	BYTE	W96
// 065   ----------------------------------------
	BYTE	W96
// 066   ----------------------------------------
	BYTE	W96
// 067   ----------------------------------------
	BYTE	W96
// 068   ----------------------------------------
	BYTE	W96
// 069   ----------------------------------------
	BYTE	W96
// 070   ----------------------------------------
	BYTE	W96
// 071   ----------------------------------------
	BYTE	W96
// 072   ----------------------------------------
	BYTE	W96
// 073   ----------------------------------------
	BYTE	W36
	BYTE		        Cs5   v052
	BYTE	W03
	BYTE		        Bn4 
	BYTE	W03
	BYTE		        As4 
	BYTE	W03
	BYTE		        Gs4 
	BYTE	W03
	BYTE		        Fs4 
	BYTE	W03
	BYTE		        Fn4 
	BYTE	W03
	BYTE		        Ds4 
	BYTE	W03
	BYTE		        Cs4 
	BYTE	W03
	BYTE		        Bn3 
	BYTE	W03
	BYTE		        As3 
	BYTE	W03
	BYTE		        Gs3 
	BYTE	W03
	BYTE		        Fs3 
	BYTE	W03
	BYTE		        Fn3 
	BYTE	W03
	BYTE		        Ds3 
	BYTE	W03
	BYTE		        Dn3 
	BYTE	W03
	BYTE		        Bn2 
	BYTE	W03
	BYTE		        As2 
	BYTE	W03
	BYTE		        Gs2 
	BYTE	W03
	BYTE		        Fs2 
	BYTE	W03
	BYTE		        Fn2 
	BYTE	W03
// 074   ----------------------------------------
	BYTE	W48
	BYTE	GoTo
	 POIN2	EdgeOfDawn_2_B1
EdgeOfDawn_2_B2:
	BYTE	FINE

//**************** Track 3 (Midi-Chn.3) ****************//

EdgeOfDawn_3:
	BYTE	KEYSH   EdgeOfDawn_key+0
// 000   ----------------------------------------
	BYTE		VOICE   46
	BYTE		VOL     86*EdgeOfDawn_mvl/mxv
	BYTE		PAN     c_v-10
	BYTE		VOL     85*EdgeOfDawn_mvl/mxv
	BYTE		PAN     c_v-9
	BYTE	W96
// 001   ----------------------------------------
	BYTE	W96
// 002   ----------------------------------------
	BYTE	W96
// 003   ----------------------------------------
	BYTE	W96
// 004   ----------------------------------------
	BYTE	W96
// 005   ----------------------------------------
	BYTE	W96
// 006   ----------------------------------------
	BYTE	W96
// 007   ----------------------------------------
	BYTE	W96
// 008   ----------------------------------------
	BYTE	W96
// 009   ----------------------------------------
	BYTE	W48
EdgeOfDawn_3_B1:
	BYTE	W48
// 010   ----------------------------------------
	BYTE	W96
// 011   ----------------------------------------
	BYTE	W96
// 012   ----------------------------------------
	BYTE	W96
// 013   ----------------------------------------
	BYTE		N05     Ds4   v080
	BYTE	W06
	BYTE		        Gs3 
	BYTE	W06
	BYTE		        As3 
	BYTE	W06
	BYTE		        Ds4 
	BYTE	W12
	BYTE		        Gs3 
	BYTE	W06
	BYTE		        As3 
	BYTE	W06
	BYTE		        Ds4 
	BYTE	W06
	BYTE		N44     Ds3 
	BYTE	W48
// 014   ----------------------------------------
	BYTE		N05     Cs4 
	BYTE	W06
	BYTE		        Fs3 
	BYTE	W06
	BYTE		        Gs3 
	BYTE	W06
	BYTE		        Cs4 
	BYTE	W12
	BYTE		        Fs3 
	BYTE	W06
	BYTE		        Gs3 
	BYTE	W06
	BYTE		        Cs4 
	BYTE	W06
	BYTE		N44     Fs3 
	BYTE	W48
// 015   ----------------------------------------
	BYTE		N05     Bn3 
	BYTE	W06
	BYTE		        Ds3 
	BYTE	W06
	BYTE		        Gs3 
	BYTE	W06
	BYTE		        Ds4 
	BYTE	W12
	BYTE		        Ds3 
	BYTE	W06
	BYTE		        Gs3 
	BYTE	W06
	BYTE		        Ds4 
	BYTE	W06
	BYTE		N44     Fs3 
	BYTE	W48
// 016   ----------------------------------------
	BYTE		N05     Gs3 
	BYTE	W06
	BYTE		        Ds4 
	BYTE	W06
	BYTE		        Bn3 
	BYTE	W06
	BYTE		        As3 
	BYTE	W30
	BYTE		        Fn3 
	BYTE	W06
	BYTE		        As3 
	BYTE	W06
	BYTE		        Fs3 
	BYTE	W06
	BYTE		        Fn3 
	BYTE	W06
	BYTE		N11     Ds3 
	BYTE	W24
// 017   ----------------------------------------
EdgeOfDawn_3_017:
	BYTE		N05     Ds4   v064
	BYTE	W06
	BYTE		        Gs3 
	BYTE	W06
	BYTE		        As3 
	BYTE	W06
	BYTE		        Ds4 
	BYTE	W12
	BYTE		        Gs3 
	BYTE	W06
	BYTE		        As3 
	BYTE	W06
	BYTE		        Ds4 
	BYTE	W06
	BYTE		        Ds3 
	BYTE	W06
	BYTE		        Gs3 
	BYTE	W06
	BYTE		        As3 
	BYTE	W06
	BYTE		        Ds4 
	BYTE	W12
	BYTE		        Gs3 
	BYTE	W06
	BYTE		        As3 
	BYTE	W06
	BYTE		N11     Ds4 
	BYTE	W06
	BYTE	PEND
// 018   ----------------------------------------
	BYTE	W06
	BYTE		N05     Gs3 
	BYTE	W06
	BYTE		        As3 
	BYTE	W06
	BYTE		        Ds4 
	BYTE	W12
	BYTE		        Gs3 
	BYTE	W06
	BYTE		        As3 
	BYTE	W06
	BYTE		        Ds4 
	BYTE	W06
	BYTE		        Ds3 
	BYTE	W06
	BYTE		        Gs3 
	BYTE	W06
	BYTE		        As3 
	BYTE	W06
	BYTE		        Ds4 
	BYTE	W12
	BYTE		        Gs3 
	BYTE	W06
	BYTE		        As3 
	BYTE	W06
	BYTE		        Ds4 
	BYTE	W06
// 019   ----------------------------------------
	BYTE		        Cs4 
	BYTE	W06
	BYTE		        Fs3 
	BYTE	W06
	BYTE		        As3 
	BYTE	W06
	BYTE		        Cs4 
	BYTE	W12
	BYTE		        Fs3 
	BYTE	W06
	BYTE		        Gs3 
	BYTE	W06
	BYTE		        Cs3 
	BYTE	W12
	BYTE		        Fs3 
	BYTE	W06
	BYTE		        As3 
	BYTE	W06
	BYTE		        Cs4 
	BYTE	W12
	BYTE		        Cs3 
	BYTE	W06
	BYTE		        As3 
	BYTE	W06
	BYTE		N11     Cs4 
	BYTE	W06
// 020   ----------------------------------------
	BYTE	W06
	BYTE		N05     Fs3 
	BYTE	W06
	BYTE		        As3 
	BYTE	W06
	BYTE		        Ds4 
	BYTE	W12
	BYTE		        Fs3 
	BYTE	W06
	BYTE		        As3 
	BYTE	W06
	BYTE		        Cs4 
	BYTE	W12
	BYTE		        Fs3 
	BYTE	W06
	BYTE		        As3 
	BYTE	W06
	BYTE		        Ds4 
	BYTE	W06
	BYTE		        Fs4 
	BYTE	W06
	BYTE		        Fs3 
	BYTE	W06
	BYTE		        As3 
	BYTE	W06
	BYTE		        Cs3 
	BYTE	W06
// 021   ----------------------------------------
EdgeOfDawn_3_021:
	BYTE		N05     Ds4   v064
	BYTE	W06
	BYTE		        Gs3 
	BYTE	W06
	BYTE		        As3 
	BYTE	W06
	BYTE		        Ds4 
	BYTE	W12
	BYTE		        Gs3 
	BYTE	W06
	BYTE		        As3 
	BYTE	W06
	BYTE		        Ds4 
	BYTE	W06
	BYTE		        Ds3 
	BYTE	W06
	BYTE		        Gs3 
	BYTE	W06
	BYTE		        As3 
	BYTE	W06
	BYTE		        Ds4 
	BYTE	W12
	BYTE		        Gs3 
	BYTE	W06
	BYTE		        As3 
	BYTE	W06
	BYTE		        Ds4 
	BYTE	W06
	BYTE	PEND
// 022   ----------------------------------------
	BYTE	PATT
	 POIN2	EdgeOfDawn_3_021
// 023   ----------------------------------------
	BYTE		N05     Ds4   v064
	BYTE	W06
	BYTE		        Gs3 
	BYTE	W06
	BYTE		        As3 
	BYTE	W06
	BYTE		        Ds4 
	BYTE	W12
	BYTE		        Gs3 
	BYTE	W06
	BYTE		        As3 
	BYTE	W06
	BYTE		N11     Ds4 
	BYTE	W12
	BYTE		N05     Gs3 
	BYTE	W06
	BYTE		        As3 
	BYTE	W06
	BYTE		        Ds4 
	BYTE	W12
	BYTE		        Gs3 
	BYTE	W06
	BYTE		        As3 
	BYTE	W06
	BYTE		        Cs4 
	BYTE	W06
// 024   ----------------------------------------
	BYTE		N23     As3 
	BYTE	W96
// 025   ----------------------------------------
	BYTE		N05     Fs3   v080
	BYTE	W06
	BYTE		        As3 
	BYTE	W06
	BYTE		        Fs4 
	BYTE	W06
	BYTE		        Cs4 
	BYTE	W18
	BYTE		        Fs4 
	BYTE	W06
	BYTE		        Cs4 
	BYTE	W06
	BYTE		        Fn3 
	BYTE	W06
	BYTE		        Gs3 
	BYTE	W06
	BYTE		        Fn4 
	BYTE	W06
	BYTE		        Cs4 
	BYTE	W18
	BYTE		        Fn4 
	BYTE	W06
	BYTE		        Cs4 
	BYTE	W06
// 026   ----------------------------------------
	BYTE		N02     Fn4   v096
	BYTE	W02
	BYTE		N15     Fs4 
	BYTE	W16
	BYTE		N17     Gs4 
	BYTE	W18
	BYTE		N11     Fn4 
	BYTE	W12
	BYTE		        Cs4   v080
	BYTE	W12
	BYTE		N05     Fs4 
	BYTE	W06
	BYTE		        Cs4 
	BYTE	W18
	BYTE		        Fs4 
	BYTE	W06
	BYTE		        Cs4 
	BYTE	W06
// 027   ----------------------------------------
EdgeOfDawn_3_027:
	BYTE		N05     Gs3   v080
	BYTE	W06
	BYTE		        Bn3 
	BYTE	W06
	BYTE		        Fs4 
	BYTE	W06
	BYTE		        Ds4 
	BYTE	W18
	BYTE		        Fs4 
	BYTE	W06
	BYTE		        Ds4 
	BYTE	W06
	BYTE		        As3 
	BYTE	W06
	BYTE		        Cs4 
	BYTE	W06
	BYTE		        Gs4 
	BYTE	W06
	BYTE		        Fn4 
	BYTE	W18
	BYTE		        Gs4 
	BYTE	W06
	BYTE		        Fn4 
	BYTE	W06
	BYTE	PEND
// 028   ----------------------------------------
EdgeOfDawn_3_028:
	BYTE		N05     As3   v080
	BYTE	W06
	BYTE		        As2 
	BYTE	W06
	BYTE		        Fn3 
	BYTE	W06
	BYTE		        Fs3 
	BYTE	W18
	BYTE		        Fn3 
	BYTE	W06
	BYTE		        Fs3 
	BYTE	W06
	BYTE		        Fn3 
	BYTE	W06
	BYTE		        As3 
	BYTE	W06
	BYTE		        Fn4 
	BYTE	W06
	BYTE		        Cs4 
	BYTE	W18
	BYTE		        Fn4 
	BYTE	W06
	BYTE		        Cs4 
	BYTE	W06
	BYTE	PEND
// 029   ----------------------------------------
EdgeOfDawn_3_029:
	BYTE		N05     Fs3   v080
	BYTE	W06
	BYTE		        As3 
	BYTE	W06
	BYTE		        Fs4 
	BYTE	W06
	BYTE		        Cs4 
	BYTE	W18
	BYTE		        Fs4 
	BYTE	W06
	BYTE		        Cs4 
	BYTE	W06
	BYTE		        Fn3 
	BYTE	W06
	BYTE		        Gs3 
	BYTE	W06
	BYTE		        Fn4 
	BYTE	W06
	BYTE		        Cs4 
	BYTE	W18
	BYTE		        Fn4 
	BYTE	W06
	BYTE		        Bn3 
	BYTE	W06
	BYTE	PEND
// 030   ----------------------------------------
	BYTE		        As3 
	BYTE	W06
	BYTE		        Fn3 
	BYTE	W06
	BYTE		        As3 
	BYTE	W06
	BYTE		        Cs4 
	BYTE	W18
	BYTE		        Fn4 
	BYTE	W06
	BYTE		        Cs4 
	BYTE	W06
	BYTE		N11     Bn1 
	BYTE		N05     As3 
	BYTE	W06
	BYTE		        Ds4 
	BYTE	W06
	BYTE		N11     Fs2 
	BYTE		N05     Fs4 
	BYTE	W06
	BYTE		        Cs4 
	BYTE	W06
	BYTE		N11     Cs3 
	BYTE	W12
	BYTE		        Fs2 
	BYTE		N05     Fn4 
	BYTE	W06
	BYTE		        Cs4 
	BYTE	W06
// 031   ----------------------------------------
	BYTE		N11     Bn1 
	BYTE		N05     Gs3 
	BYTE	W06
	BYTE		        Bn3 
	BYTE	W06
	BYTE		N11     Fs2 
	BYTE		N05     Fs4 
	BYTE	W06
	BYTE		        Ds4 
	BYTE	W06
	BYTE		N11     Cs3 
	BYTE	W12
	BYTE		        Fs2 
	BYTE		N05     Fs4   v076
	BYTE	W06
	BYTE		        Ds4 
	BYTE	W06
	BYTE		N11     As1   v080
	BYTE		N05     As3   v076
	BYTE	W06
	BYTE		        Fn4 
	BYTE	W06
	BYTE		N11     Fn2   v080
	BYTE		N05     Gs4   v076
	BYTE	W06
	BYTE		        Cs4 
	BYTE	W06
	BYTE		N11     As2   v080
	BYTE	W06
	BYTE		N05     Fn3   v072
	BYTE	W06
	BYTE		N11     Fn2   v080
	BYTE		N05     Fn4   v072
	BYTE	W06
	BYTE		        Cs4 
	BYTE	W06
// 032   ----------------------------------------
	BYTE		N11     Ds1   v080
	BYTE		N05     Fn4   v072
	BYTE	W06
	BYTE		        Gs3 
	BYTE	W06
	BYTE		N11     Ds2   v080
	BYTE		N05     As3   v068
	BYTE	W06
	BYTE		        Ds4 
	BYTE	W06
	BYTE		N11     Fs2   v080
	BYTE	W06
	BYTE		N05     Gs3   v068
	BYTE	W06
	BYTE		N11     As1   v080
	BYTE		N05     As3   v068
	BYTE	W06
	BYTE		        Ds4 
	BYTE	W06
	BYTE		N11     En1   v080
	BYTE		N05     Fs3   v064
	BYTE	W06
	BYTE		        Gs3 
	BYTE	W06
	BYTE		N11     En2   v080
	BYTE		N05     As3   v064
	BYTE	W06
	BYTE		        Ds4 
	BYTE	W06
	BYTE		N11     Gs2   v080
	BYTE	W12
	BYTE		        En2 
	BYTE	W12
// 033   ----------------------------------------
	BYTE		        Bn1 
	BYTE	W12
	BYTE		        En2 
	BYTE	W12
	BYTE		        Gs2 
	BYTE	W12
	BYTE		        En2 
	BYTE	W12
	BYTE		        Fn1 
	BYTE	W12
	BYTE		        Ds2 
	BYTE	W12
	BYTE		        Gs2 
	BYTE	W12
	BYTE		        Gs1 
	BYTE	W12
// 034   ----------------------------------------
	BYTE		        As1 
	BYTE	W12
	BYTE		        Ds2 
	BYTE	W12
	BYTE		        As2 
	BYTE	W72
// 035   ----------------------------------------
	BYTE	W96
// 036   ----------------------------------------
	BYTE	W96
// 037   ----------------------------------------
	BYTE	W96
// 038   ----------------------------------------
	BYTE	W96
// 039   ----------------------------------------
	BYTE	W96
// 040   ----------------------------------------
	BYTE	W96
// 041   ----------------------------------------
	BYTE	W96
// 042   ----------------------------------------
	BYTE	W96
// 043   ----------------------------------------
	BYTE	W96
// 044   ----------------------------------------
	BYTE	W96
// 045   ----------------------------------------
	BYTE		N05     Ds4   v064
	BYTE	W06
	BYTE		        Gs3 
	BYTE	W06
	BYTE		        As3 
	BYTE	W06
	BYTE		        Ds4 
	BYTE	W12
	BYTE		        Gs3 
	BYTE	W06
	BYTE		        As3 
	BYTE	W06
	BYTE		        Ds4 
	BYTE	W06
	BYTE		N44     Ds3 
	BYTE	W48
// 046   ----------------------------------------
	BYTE		N05     Cs4 
	BYTE	W06
	BYTE		        Fs3 
	BYTE	W06
	BYTE		        Gs3 
	BYTE	W06
	BYTE		        Cs4 
	BYTE	W12
	BYTE		        Fs3 
	BYTE	W06
	BYTE		        Gs3 
	BYTE	W06
	BYTE		        Cs4 
	BYTE	W06
	BYTE		N44     Fs3 
	BYTE	W48
// 047   ----------------------------------------
	BYTE		N05     Bn3 
	BYTE	W06
	BYTE		        Ds3 
	BYTE	W06
	BYTE		        Gs3 
	BYTE	W06
	BYTE		        Ds4 
	BYTE	W12
	BYTE		        Ds3 
	BYTE	W06
	BYTE		        Gs3 
	BYTE	W06
	BYTE		        Ds4 
	BYTE	W06
	BYTE		N44     Fs3 
	BYTE	W48
// 048   ----------------------------------------
	BYTE		N05     Gs3 
	BYTE	W06
	BYTE		        Ds4 
	BYTE	W06
	BYTE		        Bn3 
	BYTE	W06
	BYTE		        As3 
	BYTE	W30
	BYTE		        Fn3 
	BYTE	W06
	BYTE		        As3 
	BYTE	W06
	BYTE		        Fs3 
	BYTE	W06
	BYTE		        Fn3 
	BYTE	W06
	BYTE		N11     Cs3 
	BYTE	W24
// 049   ----------------------------------------
	BYTE	PATT
	 POIN2	EdgeOfDawn_3_017
// 050   ----------------------------------------
	BYTE	W06
	BYTE		N05     Gs3   v064
	BYTE	W06
	BYTE		        As3 
	BYTE	W06
	BYTE		        Ds4 
	BYTE	W12
	BYTE		        Gs3 
	BYTE	W06
	BYTE		        As3 
	BYTE	W06
	BYTE		        Ds4 
	BYTE	W06
	BYTE		        Ds3 
	BYTE		N05     Bn3   v096
	BYTE	W06
	BYTE		        Fs3 
	BYTE		N05     Gs3   v064
	BYTE	W06
	BYTE		        As3 
	BYTE		N05     Bn3   v096
	BYTE	W06
	BYTE		        Ds3 
	BYTE		N05     Ds4   v064
	BYTE	W06
	BYTE		        Bn2   v096
	BYTE	W06
	BYTE		        Gs2 
	BYTE		N05     Gs3   v064
	BYTE	W06
	BYTE		        Ds2   v096
	BYTE		N05     As3   v064
	BYTE	W06
	BYTE		        Fs2   v096
	BYTE		N05     Ds4   v064
	BYTE	W06
// 051   ----------------------------------------
	BYTE		        Bn2   v096
	BYTE		N05     Cs4   v064
	BYTE	W06
	BYTE		        Ds3   v096
	BYTE		N05     Fs3   v064
	BYTE	W06
	BYTE		        Bn2   v096
	BYTE		N05     As3   v064
	BYTE	W06
	BYTE		        Fs3   v096
	BYTE		N05     Cs4   v064
	BYTE	W06
	BYTE		        Bn3   v096
	BYTE	W06
	BYTE		        Fs3   v064
	BYTE	W06
	BYTE		        Ds3   v096
	BYTE		N05     Gs3   v064
	BYTE	W06
	BYTE		        Cs3 
	BYTE		N05     Fs3   v096
	BYTE	W06
	BYTE		        Ds3 
	BYTE		N05     As3 
	BYTE	W06
	BYTE		        Fs3   v064
	BYTE	W06
	BYTE		        As3 
	BYTE	W06
	BYTE		        Cs3   v096
	BYTE		N05     Cs4   v064
	BYTE	W06
	BYTE		        Bn2   v096
	BYTE	W06
	BYTE		        Gs2 
	BYTE		N05     Cs3   v064
	BYTE	W06
	BYTE		        Fn2   v096
	BYTE		N05     As3   v064
	BYTE	W06
	BYTE		        Gs2   v096
	BYTE		N11     Cs4   v064
	BYTE	W06
// 052   ----------------------------------------
	BYTE		N05     Cs3   v096
	BYTE	W06
	BYTE		        Fn3 
	BYTE		N05     Fs3   v064
	BYTE	W06
	BYTE		        Cs3   v096
	BYTE		N05     As3   v064
	BYTE	W06
	BYTE		        Gs3   v096
	BYTE		N05     Ds4   v064
	BYTE	W06
	BYTE		        As3   v096
	BYTE	W06
	BYTE		        Fn3 
	BYTE		N05     Fs3   v064
	BYTE	W06
	BYTE		        Gs3   v096
	BYTE		N05     As3   v064
	BYTE	W06
	BYTE		        Cs3   v096
	BYTE		N05     Cs4   v064
	BYTE	W06
	BYTE		        As2   v096
	BYTE		N05     Fn3 
	BYTE	W06
	BYTE		        Cs3 
	BYTE		N05     Fs3   v064
	BYTE	W06
	BYTE		        Fn3   v096
	BYTE		N05     As3   v064
	BYTE	W06
	BYTE		        As2   v096
	BYTE		N05     Ds4   v064
	BYTE	W06
	BYTE		        Gs2   v096
	BYTE		N05     Fs4   v064
	BYTE	W06
	BYTE		        Fn2   v096
	BYTE		N05     Fs3   v064
	BYTE	W06
	BYTE		        Cs2   v096
	BYTE		N05     As3   v064
	BYTE	W06
	BYTE		        Fn2   v096
	BYTE		N05     Cs3   v064
	BYTE	W06
// 053   ----------------------------------------
	BYTE		        As2   v096
	BYTE		N05     Ds4   v064
	BYTE	W06
	BYTE		        Fn3   v096
	BYTE		N05     Gs3   v064
	BYTE	W06
	BYTE		        Cs3   v096
	BYTE		N05     As3   v064
	BYTE	W06
	BYTE		        Fn3   v096
	BYTE		N05     Ds4   v064
	BYTE	W06
	BYTE		        Cs4   v096
	BYTE	W06
	BYTE		        Gs3   v064
	BYTE	W06
	BYTE		        As3 
	BYTE	W06
	BYTE		        Fn3   v096
	BYTE		N05     Ds4   v064
	BYTE	W06
	BYTE		        Ds3 
	BYTE		N05     As3   v096
	BYTE	W06
	BYTE		        Fs3 
	BYTE		N05     Gs3   v064
	BYTE	W06
	BYTE		        As3 
	BYTE	W06
	BYTE		        Ds3   v096
	BYTE		N05     Ds4   v064
	BYTE	W06
	BYTE		        Cs3   v096
	BYTE	W06
	BYTE		        As2 
	BYTE		N05     Gs3   v064
	BYTE	W06
	BYTE		        Fs2   v096
	BYTE		N05     As3   v064
	BYTE	W06
	BYTE		        As2   v096
	BYTE		N05     Ds4   v064
	BYTE	W06
// 054   ----------------------------------------
	BYTE		        Ds3   v096
	BYTE		N05     Ds4   v064
	BYTE	W06
	BYTE		        As2   v096
	BYTE		N05     Gs3   v064
	BYTE	W06
	BYTE		        Fs3   v096
	BYTE		N05     As3   v064
	BYTE	W06
	BYTE		        Ds3   v096
	BYTE		N05     Ds4   v064
	BYTE	W06
	BYTE		        Bn2   v096
	BYTE	W06
	BYTE		        Fs3 
	BYTE		N05     Gs3   v064
	BYTE	W06
	BYTE		        Cs3   v096
	BYTE		N05     As3   v064
	BYTE	W06
	BYTE		        As2   v096
	BYTE		N05     Ds4   v064
	BYTE	W06
	BYTE		        Ds3 
	BYTE		N05     Bn3   v096
	BYTE	W06
	BYTE		        Fs3 
	BYTE		N05     Gs3   v064
	BYTE	W06
	BYTE		        As3 
	BYTE		N05     Bn3   v096
	BYTE	W06
	BYTE		        Ds3 
	BYTE		N05     Ds4   v064
	BYTE	W06
	BYTE		        Bn2   v096
	BYTE	W06
	BYTE		        Gs2 
	BYTE		N05     Gs3   v064
	BYTE	W06
	BYTE		        Ds2   v096
	BYTE		N05     As3   v064
	BYTE	W06
	BYTE		        Fs2   v096
	BYTE		N05     Ds4   v064
	BYTE	W06
// 055   ----------------------------------------
	BYTE		        Bn2   v096
	BYTE		N05     Ds4   v064
	BYTE	W06
	BYTE		        Ds3   v096
	BYTE		N05     Gs3   v064
	BYTE	W06
	BYTE		        Bn2   v096
	BYTE		N05     As3   v064
	BYTE	W06
	BYTE		        Fs3   v096
	BYTE		N05     Ds4   v064
	BYTE	W06
	BYTE		        Bn3   v096
	BYTE	W06
	BYTE		        Fs3 
	BYTE		N05     Gs3   v064
	BYTE	W06
	BYTE		        Ds3   v096
	BYTE		N05     As3   v064
	BYTE	W06
	BYTE		        Fs3   v096
	BYTE		N11     Ds4   v064
	BYTE	W06
	BYTE		N05     Ds3   v096
	BYTE		N05     As3 
	BYTE	W06
	BYTE		        Fs3 
	BYTE		N05     Gs3   v064
	BYTE	W06
	BYTE		        As3 
	BYTE	W06
	BYTE		        Cs3   v096
	BYTE		N05     Ds4   v064
	BYTE	W06
	BYTE		        Bn2   v096
	BYTE	W06
	BYTE		        Gs2 
	BYTE		N05     Gs3   v064
	BYTE	W06
	BYTE		        Fn2   v096
	BYTE		N05     As3   v064
	BYTE	W06
	BYTE		        Gs2   v096
	BYTE		N05     Cs4   v064
	BYTE	W06
// 056   ----------------------------------------
	BYTE		        Cs3   v096
	BYTE		N23     As3   v064
	BYTE	W06
	BYTE		N05     Fn3   v096
	BYTE	W06
	BYTE		        Cs3 
	BYTE	W06
	BYTE		        Gs3 
	BYTE	W06
	BYTE		        As3 
	BYTE	W06
	BYTE		        Fn3 
	BYTE	W06
	BYTE		        Gs3 
	BYTE	W06
	BYTE		        Cs3 
	BYTE	W06
	BYTE		        As2 
	BYTE		N05     Fn3 
	BYTE	W06
	BYTE		        Cs3 
	BYTE	W06
	BYTE		        Fn3 
	BYTE	W06
	BYTE		        As2 
	BYTE	W06
	BYTE		        Gs2 
	BYTE	W06
	BYTE		        Fn2 
	BYTE	W06
	BYTE		        Cs2 
	BYTE	W06
	BYTE		        Fn2 
	BYTE	W06
// 057   ----------------------------------------
	BYTE		        As2 
	BYTE		N05     Fs3 
	BYTE	W06
	BYTE		        Fn3 
	BYTE		N05     As3 
	BYTE	W06
	BYTE		        Cs3 
	BYTE		N05     Fs4 
	BYTE	W06
	BYTE		        Fn3 
	BYTE		N05     Cs4 
	BYTE	W06
	BYTE		N05   
	BYTE	W06
	BYTE		        Gs3 
	BYTE	W06
	BYTE		        As3 
	BYTE		N05     Fs4 
	BYTE	W06
	BYTE		        Fn3 
	BYTE		N05     Cs4 
	BYTE	W06
	BYTE		        Dn3 
	BYTE		N05     Fn3 
	BYTE		N05     As3 
	BYTE	W06
	BYTE		        Gs3 
	BYTE	W06
	BYTE		        Dn4 
	BYTE		N05     Fn4 
	BYTE	W06
	BYTE		        Cs4 
	BYTE		N05     Fs4 
	BYTE	W12
	BYTE		        Gs3 
	BYTE	W06
	BYTE		        Dn4 
	BYTE		N05     Fn4 
	BYTE	W06
	BYTE		        Cs4 
	BYTE		N05     Fs4 
	BYTE	W06
// 058   ----------------------------------------
	BYTE		N44     As3 
	BYTE		N02     Fn4 
	BYTE	W02
	BYTE		N15     Fs4 
	BYTE	W16
	BYTE		N17     Gs4 
	BYTE	W18
	BYTE		N09     Fn4 
	BYTE	W12
	BYTE		N11     Cs4   v080
	BYTE	W12
	BYTE		N05     Fs4 
	BYTE	W06
	BYTE		        Cs4 
	BYTE	W18
	BYTE		        Fs4 
	BYTE	W06
	BYTE		        Cs4 
	BYTE	W06
// 059   ----------------------------------------
	BYTE	PATT
	 POIN2	EdgeOfDawn_3_027
// 060   ----------------------------------------
	BYTE	PATT
	 POIN2	EdgeOfDawn_3_028
// 061   ----------------------------------------
	BYTE	PATT
	 POIN2	EdgeOfDawn_3_029
// 062   ----------------------------------------
	BYTE		N05     As3   v080
	BYTE	W06
	BYTE		        Fn3 
	BYTE	W06
	BYTE		        As3 
	BYTE	W06
	BYTE		        Cs4 
	BYTE	W18
	BYTE		        Fn4 
	BYTE	W06
	BYTE		        Cs4 
	BYTE	W06
	BYTE		N11     Bn1   v064
	BYTE		N05     As3   v080
	BYTE	W06
	BYTE		        Ds4 
	BYTE	W06
	BYTE		N11     Fs2   v064
	BYTE		N05     Fs4   v080
	BYTE	W06
	BYTE		        Cs4   v076
	BYTE	W06
	BYTE		N11     Cs3   v064
	BYTE	W12
	BYTE		        Fs2 
	BYTE		N05     Fn4   v076
	BYTE	W06
	BYTE		        Cs4 
	BYTE	W06
// 063   ----------------------------------------
	BYTE		N11     Bn1   v064
	BYTE		N05     Gs3   v076
	BYTE	W06
	BYTE		        Bn3 
	BYTE	W06
	BYTE		N11     Fs2   v064
	BYTE		N05     Fs4   v076
	BYTE	W06
	BYTE		        Ds4 
	BYTE	W06
	BYTE		N11     Cs3   v064
	BYTE	W12
	BYTE		        Fs2 
	BYTE		N05     Fs4   v072
	BYTE	W06
	BYTE		        Ds4 
	BYTE	W06
	BYTE		N11     As1   v064
	BYTE		N05     As3   v072
	BYTE	W06
	BYTE		        Fn4 
	BYTE	W06
	BYTE		N11     Fn2   v064
	BYTE		N05     Gs4   v072
	BYTE	W06
	BYTE		        Cs4 
	BYTE	W06
	BYTE		N11     As2   v064
	BYTE	W06
	BYTE		N05     Fn3   v072
	BYTE	W06
	BYTE		N11     Fn2   v064
	BYTE		N05     Fn4   v072
	BYTE	W06
	BYTE		        Cs4   v068
	BYTE	W06
// 064   ----------------------------------------
	BYTE		N11     Ds1   v064
	BYTE		N05     Fn4   v068
	BYTE	W06
	BYTE		        Gs3 
	BYTE	W06
	BYTE		N11     Ds2   v064
	BYTE		N05     As3   v068
	BYTE	W06
	BYTE		        Ds4 
	BYTE	W06
	BYTE		N11     Fs2   v064
	BYTE	W06
	BYTE		N05     Gs3   v068
	BYTE	W06
	BYTE		N11     As1   v064
	BYTE		N05     As3   v068
	BYTE	W06
	BYTE		        Ds4 
	BYTE	W06
	BYTE		N11     En1   v064
	BYTE		N05     Fs3 
	BYTE	W06
	BYTE		        Gs3 
	BYTE	W06
	BYTE		N11     En2 
	BYTE		N05     As3 
	BYTE	W06
	BYTE		        Ds4 
	BYTE	W06
	BYTE		N11     Gs2 
	BYTE	W06
	BYTE		N05     Gs3 
	BYTE	W06
	BYTE		N11     En2 
	BYTE		N05     As3 
	BYTE	W06
	BYTE		        Ds4 
	BYTE	W06
// 065   ----------------------------------------
	BYTE		N11     Bn1 
	BYTE		N44     Cs4 
	BYTE	W12
	BYTE		N11     En2 
	BYTE	W12
	BYTE		        Gs2 
	BYTE	W12
	BYTE		        En2 
	BYTE	W12
	BYTE		        Fn1 
	BYTE		N44     Gs3 
	BYTE	W12
	BYTE		N11     Ds2 
	BYTE	W12
	BYTE		        Gs2 
	BYTE	W12
	BYTE		        Gs1 
	BYTE	W12
// 066   ----------------------------------------
	BYTE		        As1 
	BYTE	W12
	BYTE		        Ds2 
	BYTE	W12
	BYTE		        Gs2 
	BYTE	W72
// 067   ----------------------------------------
	BYTE	W96
// 068   ----------------------------------------
	BYTE	W96
// 069   ----------------------------------------
	BYTE	W96
// 070   ----------------------------------------
	BYTE	W96
// 071   ----------------------------------------
	BYTE	W96
// 072   ----------------------------------------
	BYTE		VOICE   46
	BYTE	W96
// 073   ----------------------------------------
	BYTE	W96
// 074   ----------------------------------------
	BYTE	W48
	BYTE	GoTo
	 POIN2	EdgeOfDawn_3_B1
EdgeOfDawn_3_B2:
	BYTE	FINE

//**************** Track 4 (Midi-Chn.5) ****************//

EdgeOfDawn_4:
	BYTE	KEYSH   EdgeOfDawn_key+0
// 000   ----------------------------------------
	BYTE		VOICE   127
	BYTE		VOL     79*EdgeOfDawn_mvl/mxv
	BYTE		PAN     c_v-12
	BYTE		VOL     78*EdgeOfDawn_mvl/mxv
	BYTE		PAN     c_v-13
	BYTE	W96
// 001   ----------------------------------------
	BYTE	W96
// 002   ----------------------------------------
	BYTE	W96
// 003   ----------------------------------------
	BYTE	W96
// 004   ----------------------------------------
	BYTE	W96
// 005   ----------------------------------------
	BYTE	W96
// 006   ----------------------------------------
	BYTE	W96
// 007   ----------------------------------------
	BYTE	W96
// 008   ----------------------------------------
	BYTE	W96
// 009   ----------------------------------------
	BYTE	W48
EdgeOfDawn_4_B1:
	BYTE	W48
// 010   ----------------------------------------
	BYTE	W96
// 011   ----------------------------------------
	BYTE	W96
// 012   ----------------------------------------
	BYTE	W96
// 013   ----------------------------------------
EdgeOfDawn_4_013:
	BYTE		N11     Cn1   v064
	BYTE	W12
	BYTE		N11   
	BYTE	W36
	BYTE		N11   
	BYTE	W12
	BYTE		N11   
	BYTE	W36
	BYTE	PEND
// 014   ----------------------------------------
	BYTE	PATT
	 POIN2	EdgeOfDawn_4_013
// 015   ----------------------------------------
	BYTE	PATT
	 POIN2	EdgeOfDawn_4_013
// 016   ----------------------------------------
	BYTE	PATT
	 POIN2	EdgeOfDawn_4_013
// 017   ----------------------------------------
	BYTE		N05     Ds2   v064
	BYTE	W06
	BYTE		N05   
	BYTE	W06
	BYTE		N02   
	BYTE	W03
	BYTE		N02   
	BYTE	W03
	BYTE		N02   
	BYTE	W78
// 018   ----------------------------------------
	BYTE		N17     Cn1   v116
	BYTE	W18
	BYTE		N05     Cn1   v096
	BYTE	W06
	BYTE		N11     Dn1 
	BYTE		N23     Ds1   v127
	BYTE	W18
	BYTE		N11     An1   v096
	BYTE	W12
	BYTE		N05     Cn1 
	BYTE	W06
	BYTE		N11   
	BYTE	W12
	BYTE		        Dn1 
	BYTE		N23     Ds1 
	BYTE	W24
// 019   ----------------------------------------
EdgeOfDawn_4_019:
	BYTE		N23     Cn1   v096
	BYTE	W24
	BYTE		N11     Dn1 
	BYTE	W18
	BYTE		        Cn1 
	BYTE	W12
	BYTE		N05   
	BYTE	W06
	BYTE		N11   
	BYTE	W12
	BYTE		N05     Dn1 
	BYTE		N23     Ds1 
	BYTE	W06
	BYTE		N11     Cn1 
	BYTE	W18
	BYTE	PEND
// 020   ----------------------------------------
EdgeOfDawn_4_020:
	BYTE		N17     Cn1   v096
	BYTE	W18
	BYTE		N05   
	BYTE	W06
	BYTE		N11     Dn1 
	BYTE	W18
	BYTE		        An1 
	BYTE	W12
	BYTE		N05     Cn1 
	BYTE	W06
	BYTE		N11   
	BYTE	W12
	BYTE		        Dn1 
	BYTE		N23     Ds1 
	BYTE	W24
	BYTE	PEND
// 021   ----------------------------------------
EdgeOfDawn_4_021:
	BYTE		N23     Cn1   v096
	BYTE	W24
	BYTE		N11     Dn1 
	BYTE		N23     Ds1 
	BYTE	W18
	BYTE		N11     Cn1 
	BYTE	W12
	BYTE		N05   
	BYTE	W06
	BYTE		N11   
	BYTE	W12
	BYTE		N05     Dn1 
	BYTE		N23     Ds1 
	BYTE	W06
	BYTE		N11     Cn1 
	BYTE	W18
	BYTE	PEND
// 022   ----------------------------------------
EdgeOfDawn_4_022:
	BYTE		N17     Cn1   v116
	BYTE	W18
	BYTE		N05     Cn1   v096
	BYTE	W06
	BYTE		N11     Dn1 
	BYTE	W18
	BYTE		        An1 
	BYTE	W12
	BYTE		N05     Cn1 
	BYTE	W06
	BYTE		N11   
	BYTE	W12
	BYTE		        Dn1 
	BYTE		N23     Ds1 
	BYTE	W24
	BYTE	PEND
// 023   ----------------------------------------
	BYTE	PATT
	 POIN2	EdgeOfDawn_4_019
// 024   ----------------------------------------
	BYTE	PATT
	 POIN2	EdgeOfDawn_4_020
// 025   ----------------------------------------
EdgeOfDawn_4_025:
	BYTE		N23     Cn1   v096
	BYTE	W24
	BYTE		N11     Dn1 
	BYTE		N23     Ds1 
	BYTE		N11     Ds2 
	BYTE	W18
	BYTE		        Cn1 
	BYTE	W12
	BYTE		N05   
	BYTE		N05     Dn2 
	BYTE	W06
	BYTE		        Cn1 
	BYTE	W06
	BYTE		        An1 
	BYTE	W06
	BYTE		N23     Ds1 
	BYTE		N05     En1 
	BYTE		N05     Dn2 
	BYTE	W06
	BYTE		        Bn1 
	BYTE		N05     Ds2 
	BYTE	W06
	BYTE		        An1 
	BYTE	W06
	BYTE		        As1 
	BYTE	W06
	BYTE	PEND
// 026   ----------------------------------------
	BYTE	W96
// 027   ----------------------------------------
	BYTE	W96
// 028   ----------------------------------------
	BYTE	W96
// 029   ----------------------------------------
	BYTE	W96
// 030   ----------------------------------------
	BYTE	W96
// 031   ----------------------------------------
	BYTE	W96
// 032   ----------------------------------------
	BYTE	W96
// 033   ----------------------------------------
	BYTE	W96
// 034   ----------------------------------------
EdgeOfDawn_4_034:
	BYTE		N17     Cn1   v096
	BYTE	W18
	BYTE		N17   
	BYTE	W36
	BYTE		N05   
	BYTE	W06
	BYTE		N11   
	BYTE	W12
	BYTE		N05     Fs1 
	BYTE		N05     An1 
	BYTE	W06
	BYTE		        Cn1 
	BYTE	W18
	BYTE	PEND
// 035   ----------------------------------------
EdgeOfDawn_4_035:
	BYTE		N17     Cn1   v096
	BYTE	W18
	BYTE		N17   
	BYTE	W06
	BYTE		N23     Ds1 
	BYTE	W18
	BYTE		N05     Cn1 
	BYTE	W12
	BYTE		N05   
	BYTE	W06
	BYTE		N11   
	BYTE	W12
	BYTE		N05     Cs1 
	BYTE		N05     An1 
	BYTE	W06
	BYTE		        Cn1 
	BYTE	W18
	BYTE	PEND
// 036   ----------------------------------------
EdgeOfDawn_4_036:
	BYTE		N17     Cn1   v096
	BYTE	W18
	BYTE		N17   
	BYTE	W06
	BYTE		N23     Ds1 
	BYTE	W30
	BYTE		N05     Cn1 
	BYTE	W06
	BYTE		N11   
	BYTE	W12
	BYTE		N05     Fs1 
	BYTE		N05     An1 
	BYTE	W06
	BYTE		        Cn1 
	BYTE	W18
	BYTE	PEND
// 037   ----------------------------------------
	BYTE	PATT
	 POIN2	EdgeOfDawn_4_035
// 038   ----------------------------------------
	BYTE	PATT
	 POIN2	EdgeOfDawn_4_036
// 039   ----------------------------------------
	BYTE	PATT
	 POIN2	EdgeOfDawn_4_035
// 040   ----------------------------------------
	BYTE	PATT
	 POIN2	EdgeOfDawn_4_036
// 041   ----------------------------------------
EdgeOfDawn_4_041:
	BYTE	W06
	BYTE		N05     Fs1   v096
	BYTE	W12
	BYTE		        Cn1 
	BYTE	W06
	BYTE		N23     Ds1 
	BYTE		N05     Fs1 
	BYTE	W06
	BYTE		N05   
	BYTE	W12
	BYTE		N11     Cn1 
	BYTE	W54
	BYTE	PEND
// 042   ----------------------------------------
	BYTE		N23   
	BYTE	W24
	BYTE		N05     Dn1 
	BYTE		N05     Fs1 
	BYTE	W06
	BYTE		N11     An1 
	BYTE	W18
	BYTE		N05     Cn1 
	BYTE	W06
	BYTE		N11   
	BYTE	W18
	BYTE		N05     Dn1 
	BYTE		N05     Fs1 
	BYTE	W06
	BYTE		N11     An1 
	BYTE	W18
// 043   ----------------------------------------
	BYTE		        Cn1 
	BYTE	W12
	BYTE		N11   
	BYTE	W12
	BYTE		N05     Dn1 
	BYTE		N23     Ds1   v080
	BYTE		N05     Fs1   v096
	BYTE	W06
	BYTE		N11     An1 
	BYTE	W18
	BYTE		N05     Cn1 
	BYTE	W06
	BYTE		N11   
	BYTE	W12
	BYTE		N05   
	BYTE	W06
	BYTE		        Dn1 
	BYTE		N05     Fs1 
	BYTE	W06
	BYTE		N11     An1 
	BYTE	W18
// 044   ----------------------------------------
EdgeOfDawn_4_044:
	BYTE		N23     Cn1   v096
	BYTE	W24
	BYTE		N05     Dn1 
	BYTE		N23     Ds1   v080
	BYTE		N05     Fs1   v096
	BYTE	W06
	BYTE		N11     An1 
	BYTE	W18
	BYTE		N05     Cn1 
	BYTE	W06
	BYTE		N11   
	BYTE	W18
	BYTE		N05     Dn1 
	BYTE		N05     Fs1 
	BYTE	W06
	BYTE		N11     An1 
	BYTE	W18
	BYTE	PEND
// 045   ----------------------------------------
	BYTE		N17     Cn1 
	BYTE	W18
	BYTE		N05   
	BYTE	W06
	BYTE		        Dn1 
	BYTE		N23     Ds1   v080
	BYTE		N05     Fs1   v096
	BYTE	W06
	BYTE		N11     An1 
	BYTE	W18
	BYTE		N05     Cn1 
	BYTE	W06
	BYTE		N11   
	BYTE	W12
	BYTE		N05   
	BYTE	W06
	BYTE		        Dn1 
	BYTE		N05     Fs1 
	BYTE	W06
	BYTE		N11     An1 
	BYTE	W18
// 046   ----------------------------------------
	BYTE	PATT
	 POIN2	EdgeOfDawn_4_044
// 047   ----------------------------------------
	BYTE		N11     Cn1   v096
	BYTE	W12
	BYTE		N11   
	BYTE	W12
	BYTE		N05     Dn1 
	BYTE		N23     Ds1   v080
	BYTE		N05     Fs1   v096
	BYTE	W06
	BYTE		N11     An1 
	BYTE	W12
	BYTE		N05     Gs1 
	BYTE	W06
	BYTE		        Cn1 
	BYTE	W06
	BYTE		N11   
	BYTE	W12
	BYTE		N05   
	BYTE	W06
	BYTE		        Dn1 
	BYTE		N05     Fs1 
	BYTE	W06
	BYTE		N11     An1 
	BYTE	W18
// 048   ----------------------------------------
	BYTE		N23     Cn1 
	BYTE	W24
	BYTE		N05     Dn1 
	BYTE		N23     Ds1   v080
	BYTE		N05     Fs1   v096
	BYTE	W06
	BYTE		N11     An1 
	BYTE	W18
	BYTE		N05     Cn1 
	BYTE	W06
	BYTE		N11   
	BYTE	W18
	BYTE		N05     Dn1 
	BYTE		N05     Fs1 
	BYTE	W06
	BYTE		N11     An1 
	BYTE	W12
	BYTE		N05     Gs1 
	BYTE	W06
// 049   ----------------------------------------
	BYTE		N23     Cn1 
	BYTE	W24
	BYTE		N11     Dn1 
	BYTE		N23     Ds1   v080
	BYTE		N11     Fs1   v096
	BYTE	W12
	BYTE		        An1 
	BYTE	W12
	BYTE		N05     Cn1 
	BYTE	W06
	BYTE		N11   
	BYTE	W12
	BYTE		N05   
	BYTE	W06
	BYTE		        Dn1 
	BYTE		N05     Fs1 
	BYTE	W06
	BYTE		N11     An1 
	BYTE	W18
// 050   ----------------------------------------
	BYTE		N17     Cn1   v116
	BYTE	W18
	BYTE		N05     Cn1   v096
	BYTE	W06
	BYTE		N11     Dn1 
	BYTE		N23     Ds1   v080
	BYTE	W18
	BYTE		N11     An1   v096
	BYTE	W12
	BYTE		N05     Cn1 
	BYTE	W06
	BYTE		N11   
	BYTE	W12
	BYTE		        Dn1 
	BYTE		N23     Ds1 
	BYTE	W24
// 051   ----------------------------------------
	BYTE	PATT
	 POIN2	EdgeOfDawn_4_019
// 052   ----------------------------------------
	BYTE	PATT
	 POIN2	EdgeOfDawn_4_020
// 053   ----------------------------------------
	BYTE	PATT
	 POIN2	EdgeOfDawn_4_021
// 054   ----------------------------------------
	BYTE	PATT
	 POIN2	EdgeOfDawn_4_022
// 055   ----------------------------------------
	BYTE	PATT
	 POIN2	EdgeOfDawn_4_019
// 056   ----------------------------------------
	BYTE	PATT
	 POIN2	EdgeOfDawn_4_020
// 057   ----------------------------------------
	BYTE	PATT
	 POIN2	EdgeOfDawn_4_025
// 058   ----------------------------------------
	BYTE	W96
// 059   ----------------------------------------
	BYTE	W96
// 060   ----------------------------------------
	BYTE	W96
// 061   ----------------------------------------
	BYTE	W96
// 062   ----------------------------------------
	BYTE	W96
// 063   ----------------------------------------
	BYTE	W96
// 064   ----------------------------------------
	BYTE	W96
// 065   ----------------------------------------
	BYTE	W96
// 066   ----------------------------------------
	BYTE	PATT
	 POIN2	EdgeOfDawn_4_034
// 067   ----------------------------------------
	BYTE	PATT
	 POIN2	EdgeOfDawn_4_035
// 068   ----------------------------------------
	BYTE	PATT
	 POIN2	EdgeOfDawn_4_036
// 069   ----------------------------------------
	BYTE	PATT
	 POIN2	EdgeOfDawn_4_035
// 070   ----------------------------------------
	BYTE	PATT
	 POIN2	EdgeOfDawn_4_036
// 071   ----------------------------------------
	BYTE	PATT
	 POIN2	EdgeOfDawn_4_035
// 072   ----------------------------------------
	BYTE	PATT
	 POIN2	EdgeOfDawn_4_036
// 073   ----------------------------------------
	BYTE	PATT
	 POIN2	EdgeOfDawn_4_041
// 074   ----------------------------------------
	BYTE		N23     Cn1   v096
	BYTE	W24
	BYTE		N05     Dn1 
	BYTE		N05     Fs1 
	BYTE	W06
	BYTE		N11     An1 
	BYTE	W18
	BYTE	GoTo
	 POIN2	EdgeOfDawn_4_B1
EdgeOfDawn_4_B2:
	BYTE	FINE

//**************** Track 5 (Midi-Chn.6) ****************//

EdgeOfDawn_5:
	BYTE	KEYSH   EdgeOfDawn_key+0
// 000   ----------------------------------------
	BYTE		VOICE   1
	BYTE		PAN     c_v+17
	BYTE		        c_v+17
	BYTE		VOL     100*EdgeOfDawn_mvl/mxv
	BYTE		N17     Fs4   v080
	BYTE	W18
	BYTE		        Gs4 
	BYTE	W18
	BYTE		N11     Fn4 
	BYTE	W12
	BYTE		        Ds3 
	BYTE		N44     Fs4 
	BYTE	W12
	BYTE		N11     As3 
	BYTE	W12
	BYTE		N22     Ds4 
	BYTE	W24
// 001   ----------------------------------------
	BYTE		N11     Cs3 
	BYTE		N17     Fs4 
	BYTE	W12
	BYTE		N11     Gs3 
	BYTE	W06
	BYTE		N17     Gs4 
	BYTE	W06
	BYTE		N22     Cs4 
	BYTE	W12
	BYTE		N11     Fn4 
	BYTE	W12
	BYTE		        Bn2 
	BYTE		N44     Cs4 
	BYTE	W12
	BYTE		N11     Fs3 
	BYTE	W12
	BYTE		N22     As3 
	BYTE	W24
// 002   ----------------------------------------
	BYTE		        As2 
	BYTE		N17     As3 
	BYTE		N17     Fs4 
	BYTE	W18
	BYTE		        Gs4 
	BYTE	W06
	BYTE		N22     Cs4 
	BYTE	W12
	BYTE		N11     Fn4 
	BYTE	W12
	BYTE		        Gs2 
	BYTE		N23     Gs3 
	BYTE	W03
	BYTE		N20     Fs4 
	BYTE	W09
	BYTE		N11     Ds3 
	BYTE	W12
	BYTE		N22     Gs3 
	BYTE		N23     Ds4 
	BYTE	W03
	BYTE		N20     Fs4 
	BYTE	W03
	BYTE		N17     Cs5 
	BYTE	W18
// 003   ----------------------------------------
	BYTE		N11     As2 
	BYTE		N11     Fn4 
	BYTE		N11     Cs5 
	BYTE	W12
	BYTE		        As3 
	BYTE		N11     Bn4 
	BYTE	W12
	BYTE		        Gs3 
	BYTE		N11     Cs4 
	BYTE		N11     As4 
	BYTE	W12
	BYTE		        Fn3 
	BYTE		N05     Gs4 
	BYTE	W06
	BYTE		N28     As4 
	BYTE	W06
	BYTE		N11     Bn2 
	BYTE		N22     Ds4 
	BYTE	W12
	BYTE		N11     Fs3 
	BYTE	W12
	BYTE		N22     Ds4 
	BYTE	W24
// 004   ----------------------------------------
	BYTE		        As2 
	BYTE		N17     As3 
	BYTE		N17     Fs4 
	BYTE	W18
	BYTE		        Gs4 
	BYTE	W06
	BYTE		N22     Dn4 
	BYTE	W12
	BYTE		N11     Fn4 
	BYTE	W12
	BYTE		        Ds3 
	BYTE		N11     As3 
	BYTE		N44     Fs4 
	BYTE	W12
	BYTE		N01     As3 
	BYTE	W12
	BYTE		N22     Ds4 
	BYTE	W24
// 005   ----------------------------------------
	BYTE		N11     Cs3 
	BYTE		N11     Gs3 
	BYTE		N17     Fs4 
	BYTE	W12
	BYTE		N01     Gs3 
	BYTE	W06
	BYTE		N17     Gs4 
	BYTE	W06
	BYTE		N22     Cs4 
	BYTE	W12
	BYTE		N11     Fn4 
	BYTE	W12
	BYTE		        Bn2 
	BYTE		N11     Fs3 
	BYTE		N22     Cs4 
	BYTE	W12
	BYTE		N01     Fs3 
	BYTE	W12
	BYTE		N22     Cs4 
	BYTE		N23     Fs4 
	BYTE	W03
	BYTE		N20     Cs5 
	BYTE	W21
// 006   ----------------------------------------
	BYTE		N11     As2 
	BYTE		N11     Fn4 
	BYTE	W03
	BYTE		N08     Cs5 
	BYTE	W09
	BYTE		N11     Cs3 
	BYTE		N11     Bn4 
	BYTE	W12
	BYTE		N22     Cs4 
	BYTE		N22     Fn4 
	BYTE		N11     As4 
	BYTE	W12
	BYTE		        As3 
	BYTE		N11     Gs4 
	BYTE	W12
	BYTE		        Gs2 
	BYTE		N22     Gs3 
	BYTE		N22     Fs4 
	BYTE	W12
	BYTE		N11     Ds3 
	BYTE	W12
	BYTE		N23     Bn3 
	BYTE		N11     Ds4 
	BYTE	W03
	BYTE		N20     As4 
	BYTE	W21
// 007   ----------------------------------------
	BYTE		N11     As2 
	BYTE		N22     As3 
	BYTE		N22     Gs4 
	BYTE	W12
	BYTE		N11     Fn3 
	BYTE	W12
	BYTE		N22     As3 
	BYTE		N22     Cs4 
	BYTE		N22     Fs4 
	BYTE	W24
	BYTE		N44     Cs3 
	BYTE		N44     Ds3 
	BYTE		N44     Fn4 
	BYTE	W12
	BYTE		N11     Gs3 
	BYTE	W12
	BYTE		        As3 
	BYTE	W12
	BYTE		N44     Ds4 
	BYTE	W12
// 008   ----------------------------------------
	BYTE	W12
	BYTE		N11     Gs3 
	BYTE	W12
	BYTE		        As3 
	BYTE	W12
	BYTE		        Ds4 
	BYTE	W12
	BYTE		N44     Ds2 
	BYTE		N44     Ds3 
	BYTE		N44     Fs3 
	BYTE		N44     Ds4 
	BYTE	W48
// 009   ----------------------------------------
	BYTE	W48
EdgeOfDawn_5_B1:
	BYTE		N44     Bn1   v080
	BYTE		N44     Fs2 
	BYTE		N11     As4 
	BYTE	W12
	BYTE		        Ds4 
	BYTE	W12
	BYTE		        Gs4 
	BYTE	W12
	BYTE		        As4 
	BYTE	W12
// 010   ----------------------------------------
	BYTE	W48
	BYTE		N44     Bn1 
	BYTE		N44     Gs2 
	BYTE	W12
	BYTE		N11     Fn4 
	BYTE	W12
	BYTE		        Fs4 
	BYTE	W12
	BYTE		        Cs5 
	BYTE	W12
// 011   ----------------------------------------
	BYTE	W48
	BYTE		N44     As1 
	BYTE		N44     Fn2 
	BYTE	W12
	BYTE		N11     Cs4 
	BYTE	W12
	BYTE		        Fn4 
	BYTE	W12
	BYTE		        As4 
	BYTE	W12
// 012   ----------------------------------------
	BYTE	W48
	BYTE		N44     Ds1 
	BYTE		N44     Cs2 
	BYTE		N11     Gs3 
	BYTE	W12
	BYTE		        Cs3 
	BYTE	W12
	BYTE		        Fn3 
	BYTE	W12
	BYTE		        Fs3 
	BYTE	W12
// 013   ----------------------------------------
	BYTE	W48
	BYTE		N44     Bn1 
	BYTE		N44     Gs2 
	BYTE	W48
// 014   ----------------------------------------
	BYTE		        Cs2 
	BYTE		N44     As2 
	BYTE	W48
	BYTE		        As1 
	BYTE		N44     Fn2 
	BYTE	W48
// 015   ----------------------------------------
	BYTE		        Ds2 
	BYTE		N44     As2 
	BYTE	W48
	BYTE		        Gs1 
	BYTE		N44     Ds2 
	BYTE	W48
// 016   ----------------------------------------
	BYTE		        As1 
	BYTE		N44     Fn2 
	BYTE	W48
	BYTE		N90     Bn1 
	BYTE		N90     As2 
	BYTE	W48
// 017   ----------------------------------------
	BYTE	W48
	BYTE	W48
// 018   ----------------------------------------
	BYTE	W48
	BYTE		N92     Bn0   v116
	BYTE		N92     Bn1 
	BYTE		N05     Ds3   v096
	BYTE		N05     Bn3 
	BYTE	W06
	BYTE		        Fs3 
	BYTE	W06
	BYTE		        Bn3 
	BYTE	W06
	BYTE		        Ds3 
	BYTE	W06
	BYTE		        Bn2 
	BYTE	W06
	BYTE		        Gs2 
	BYTE	W06
	BYTE		        Ds2 
	BYTE	W06
	BYTE		        Fs2 
	BYTE	W06
// 019   ----------------------------------------
EdgeOfDawn_5_019:
	BYTE		N05     Bn2   v096
	BYTE	W06
	BYTE		        Ds3 
	BYTE	W06
	BYTE		        Bn2 
	BYTE	W06
	BYTE		        Fs3 
	BYTE	W06
	BYTE		        Bn3 
	BYTE	W06
	BYTE		        Fs3 
	BYTE	W06
	BYTE		        Ds3 
	BYTE	W06
	BYTE		        Fs3 
	BYTE	W06
	BYTE		N90     Bn0 
	BYTE		N90     Cs2 
	BYTE		N05     Ds3 
	BYTE		N05     As3 
	BYTE	W06
	BYTE		        Fs3 
	BYTE	W06
	BYTE		        As3 
	BYTE	W06
	BYTE		        Cs3 
	BYTE	W06
	BYTE		        Bn2 
	BYTE	W06
	BYTE		        Gs2 
	BYTE	W06
	BYTE		        Fn2 
	BYTE	W06
	BYTE		        Gs2 
	BYTE	W06
	BYTE	PEND
// 020   ----------------------------------------
EdgeOfDawn_5_020:
	BYTE		N05     Cs3   v096
	BYTE	W06
	BYTE		        Fn3 
	BYTE	W06
	BYTE		        Cs3 
	BYTE	W06
	BYTE		        Gs3 
	BYTE	W06
	BYTE		        As3 
	BYTE	W06
	BYTE		        Fn3 
	BYTE	W06
	BYTE		        Gs3 
	BYTE	W06
	BYTE		        Cs3 
	BYTE	W06
	BYTE		N90     As0 
	BYTE		N90     As1 
	BYTE		N05     As2 
	BYTE		N05     Fn3 
	BYTE	W06
	BYTE		        Cs3 
	BYTE	W06
	BYTE		        Fn3 
	BYTE	W06
	BYTE		        As2 
	BYTE	W06
	BYTE		        Gs2 
	BYTE	W06
	BYTE		        Fn2 
	BYTE	W06
	BYTE		        Cs2 
	BYTE	W06
	BYTE		        Fn2 
	BYTE	W06
	BYTE	PEND
// 021   ----------------------------------------
	BYTE		        As2 
	BYTE	W06
	BYTE		        Fn3 
	BYTE	W06
	BYTE		        Cs3 
	BYTE	W06
	BYTE		        Fn3 
	BYTE	W06
	BYTE		        Cs4 
	BYTE	W06
	BYTE		        Gs3 
	BYTE	W06
	BYTE		        As3 
	BYTE	W06
	BYTE		        Fn3 
	BYTE	W06
	BYTE		N68     Ds1 
	BYTE		N68     Cs2 
	BYTE		N05     Ds3 
	BYTE		N05     As3 
	BYTE	W06
	BYTE		        Fs3 
	BYTE	W06
	BYTE		        As3 
	BYTE	W06
	BYTE		        Ds3 
	BYTE	W06
	BYTE		        Cs3 
	BYTE	W06
	BYTE		        As2 
	BYTE	W06
	BYTE		        Fs2 
	BYTE	W06
	BYTE		        As2 
	BYTE	W06
// 022   ----------------------------------------
	BYTE		        Ds3 
	BYTE	W06
	BYTE		        As2 
	BYTE	W06
	BYTE		        Fs3 
	BYTE	W06
	BYTE		        Ds3 
	BYTE	W06
	BYTE		N22     Cs1 
	BYTE		N22     Cs2 
	BYTE		N05     Bn2 
	BYTE	W06
	BYTE		        Fs3 
	BYTE	W06
	BYTE		        Cs3 
	BYTE	W06
	BYTE		        As2 
	BYTE	W06
	BYTE		N92     Bn0   v116
	BYTE		N92     Bn1 
	BYTE		N05     Ds3   v096
	BYTE		N05     Bn3 
	BYTE	W06
	BYTE		        Fs3 
	BYTE	W06
	BYTE		        Bn3 
	BYTE	W06
	BYTE		        Ds3 
	BYTE	W06
	BYTE		        Bn2 
	BYTE	W06
	BYTE		        Gs2 
	BYTE	W06
	BYTE		        Ds2 
	BYTE	W06
	BYTE		        Fs2 
	BYTE	W06
// 023   ----------------------------------------
	BYTE	PATT
	 POIN2	EdgeOfDawn_5_019
// 024   ----------------------------------------
	BYTE	PATT
	 POIN2	EdgeOfDawn_5_020
// 025   ----------------------------------------
	BYTE		N05     As2   v096
	BYTE	W06
	BYTE		        Fn3 
	BYTE	W06
	BYTE		        Cs3 
	BYTE	W06
	BYTE		        Fn3 
	BYTE	W06
	BYTE		        Cs4 
	BYTE	W06
	BYTE		        Gs3 
	BYTE	W06
	BYTE		        As3 
	BYTE	W06
	BYTE		        Fn3 
	BYTE	W06
	BYTE		N44     As0 
	BYTE		N44     Fn1 
	BYTE		N05     Dn3 
	BYTE		N05     As3 
	BYTE	W06
	BYTE		        Gs3 
	BYTE	W06
	BYTE		        Dn4 
	BYTE	W06
	BYTE		        Fs4 
	BYTE	W12
	BYTE		        Gs3 
	BYTE	W06
	BYTE		        Dn4 
	BYTE	W06
	BYTE		        Fs4 
	BYTE	W06
// 026   ----------------------------------------
	BYTE		N44     As3 
	BYTE		N44     Fn4 
	BYTE	W48
	BYTE		N90     Bn1 
	BYTE		N90     Fs2 
	BYTE		N90     As2 
	BYTE	W48
// 027   ----------------------------------------
	BYTE	W48
	BYTE		        As1 
	BYTE		N90     Fn2 
	BYTE		N90     Gs2 
	BYTE	W48
// 028   ----------------------------------------
	BYTE	W48
	BYTE		        Gs1 
	BYTE		N90     Ds2 
	BYTE		N90     Fs2 
	BYTE	W48
// 029   ----------------------------------------
	BYTE	W48
	BYTE		N44     Fs1 
	BYTE		N44     As1 
	BYTE		N44     Ds2 
	BYTE	W48
// 030   ----------------------------------------
	BYTE		        Cs2   v064
	BYTE		N44     Fn2 
	BYTE	W24
	BYTE		N22     Ds2 
	BYTE	W24
	BYTE		N90     Bn1   v080
	BYTE		N90     Fs2 
	BYTE		N90     As2 
	BYTE	W48
// 031   ----------------------------------------
	BYTE		N22     Ds3 
	BYTE		N22     As3 
	BYTE	W24
	BYTE		        Fs3 
	BYTE	W24
	BYTE		N44     Ds2 
	BYTE		N44     Fn2 
	BYTE		N44     Gs2 
	BYTE		N44     Cs3 
	BYTE	W48
// 032   ----------------------------------------
	BYTE		        Cs2 
	BYTE		N44     Fs2 
	BYTE		N44     Cs3 
	BYTE		N44     Fs3 
	BYTE	W48
	BYTE		N90     Bn1 
	BYTE		N90     En2 
	BYTE		N44     Bn2 
	BYTE		N44     Gs3 
	BYTE	W48
// 033   ----------------------------------------
	BYTE		        Ds3 
	BYTE	W48
	BYTE		        Cn2 
	BYTE		N44     Gs2 
	BYTE		N44     Ds3 
	BYTE		N44     Gs3 
	BYTE	W48
// 034   ----------------------------------------
	BYTE		        As2 
	BYTE		N44     Fn3 
	BYTE		N44     Fs3 
	BYTE	W48
	BYTE		N17     Ds2 
	BYTE		N17     Fs2 
	BYTE		N17     Gs2 
	BYTE	W18
	BYTE		N08     Ds2 
	BYTE		N08     Fs2 
	BYTE		N08     Gs2 
	BYTE	W30
// 035   ----------------------------------------
	BYTE	W36
	BYTE		N17     Ds2 
	BYTE		N17     Fs2 
	BYTE		N17     Gs2 
	BYTE	W18
	BYTE		N05     Ds2 
	BYTE		N05     Fs2 
	BYTE		N05     Gs2 
	BYTE	W42
// 036   ----------------------------------------
	BYTE	W48
	BYTE		N17     Ds2 
	BYTE		N17     Fs2 
	BYTE		N17     Gs2 
	BYTE		N17     Cs3 
	BYTE	W18
	BYTE		N08     Ds2 
	BYTE		N08     Fs2 
	BYTE		N08     Gs2 
	BYTE		N08     Cs3 
	BYTE	W30
// 037   ----------------------------------------
	BYTE	W36
	BYTE		N17     Ds2 
	BYTE		N17     Fs2 
	BYTE		N17     Gs2 
	BYTE		N17     Cs3 
	BYTE	W18
	BYTE		N05     Ds2 
	BYTE		N05     Fs2 
	BYTE		N05     Gs2 
	BYTE		N05     Cs3 
	BYTE	W30
	BYTE		N02     Ds2 
	BYTE		N02     Fs2 
	BYTE		N02     Gs2 
	BYTE		N02     Cs3 
	BYTE	W12
// 038   ----------------------------------------
	BYTE	W12
	BYTE		N08     Ds2 
	BYTE		N08     Fs2 
	BYTE		N08     Gs2 
	BYTE		N08     Cs3 
	BYTE	W12
	BYTE		N05     Ds2 
	BYTE		N05     Fs2 
	BYTE		N05     Gs2 
	BYTE		N05     Cs3 
	BYTE	W24
	BYTE		N17     Ds2 
	BYTE		N17     Fs2 
	BYTE		N17     Gs2 
	BYTE		N17     Bn2 
	BYTE	W18
	BYTE		N08     Ds2 
	BYTE		N08     Fs2 
	BYTE		N08     Gs2 
	BYTE		N08     Bn2 
	BYTE	W30
// 039   ----------------------------------------
	BYTE	W36
	BYTE		N17     Ds2 
	BYTE		N17     Fs2 
	BYTE		N17     Gs2 
	BYTE		N17     Bn2 
	BYTE	W18
	BYTE		N05     Ds2 
	BYTE		N05     Fs2 
	BYTE		N05     Gs2 
	BYTE		N05     Bn2 
	BYTE	W42
// 040   ----------------------------------------
	BYTE	W48
	BYTE		N17     As2 
	BYTE		N17     Ds3 
	BYTE		N17     Fn3 
	BYTE		N17     Gs3 
	BYTE	W18
	BYTE		N08     As2 
	BYTE		N08     Ds3 
	BYTE		N08     Fn3 
	BYTE		N08     Gs3 
	BYTE	W30
// 041   ----------------------------------------
	BYTE	W18
	BYTE		N02     As2 
	BYTE		N02     Ds3 
	BYTE		N02     Fn3 
	BYTE		N02     Gs3 
	BYTE	W30
	BYTE		N44     As3 
	BYTE		N44     Dn4 
	BYTE		N44     Fs4 
	BYTE	W48
// 042   ----------------------------------------
	BYTE	W48
	BYTE		        Bn1   v096
	BYTE		N44     Ds2 
	BYTE		N44     As2 
	BYTE	W48
// 043   ----------------------------------------
	BYTE		        Cs2 
	BYTE		N44     Fn2 
	BYTE		N44     Bn2 
	BYTE	W48
	BYTE		        As1 
	BYTE		N44     Cs2 
	BYTE		N44     Gs2 
	BYTE	W48
// 044   ----------------------------------------
	BYTE		        Ds2 
	BYTE		N44     Fs2 
	BYTE		N44     Cs3 
	BYTE	W48
	BYTE		        Gs1 
	BYTE		N44     Bn1 
	BYTE		N44     Gs2 
	BYTE	W48
// 045   ----------------------------------------
	BYTE		        As1 
	BYTE		N44     Dn2 
	BYTE		N44     As2 
	BYTE	W48
	BYTE		        Ds2 
	BYTE		N44     As2 
	BYTE		N44     Cs3 
	BYTE	W48
// 046   ----------------------------------------
	BYTE		        Cs2 
	BYTE		N44     As2 
	BYTE	W48
	BYTE		        Bn1 
	BYTE		N44     Ds2 
	BYTE		N44     As2 
	BYTE	W48
// 047   ----------------------------------------
	BYTE		        Cs2 
	BYTE		N44     Fn2 
	BYTE		N44     Bn2 
	BYTE	W48
	BYTE		        As1 
	BYTE		N44     Fn2 
	BYTE		N44     Gs2 
	BYTE	W48
// 048   ----------------------------------------
	BYTE		        Ds2 
	BYTE		N44     As2 
	BYTE		N44     Cs3 
	BYTE	W48
	BYTE		        Gs1 
	BYTE		N44     Ds2 
	BYTE		N44     Fs2 
	BYTE	W48
// 049   ----------------------------------------
	BYTE		        As1 
	BYTE		N44     Fn2 
	BYTE		N44     Gs2 
	BYTE	W48
	BYTE		N17     As1 
	BYTE		N17     Bn1 
	BYTE		N17     Gs2 
	BYTE	W18
	BYTE		N68     Ds1 
	BYTE		N68     Ds2 
	BYTE	W30
// 050   ----------------------------------------
	BYTE	W48
	BYTE		N92     Bn0   v116
	BYTE		N92     Bn1 
	BYTE	W48
// 051   ----------------------------------------
EdgeOfDawn_5_051:
	BYTE	W48
	BYTE		N90     Bn0   v096
	BYTE		N90     Cs2 
	BYTE	W48
	BYTE	PEND
// 052   ----------------------------------------
EdgeOfDawn_5_052:
	BYTE	W48
	BYTE		N90     As0   v096
	BYTE		N90     As1 
	BYTE	W48
	BYTE	PEND
// 053   ----------------------------------------
	BYTE	W48
	BYTE		N68     Ds1 
	BYTE		N68     Cs2 
	BYTE	W48
// 054   ----------------------------------------
	BYTE	W24
	BYTE		N22     Cs1 
	BYTE		N22     Cs2 
	BYTE	W24
	BYTE		N92     Bn0   v116
	BYTE		N92     Bn1 
	BYTE	W48
// 055   ----------------------------------------
	BYTE	PATT
	 POIN2	EdgeOfDawn_5_051
// 056   ----------------------------------------
	BYTE	PATT
	 POIN2	EdgeOfDawn_5_052
// 057   ----------------------------------------
	BYTE	W48
	BYTE		N44     As0   v096
	BYTE		N44     Fn1 
	BYTE	W48
// 058   ----------------------------------------
	BYTE	W48
	BYTE		N90     Bn1 
	BYTE		N90     Fs2 
	BYTE		N90     As2 
	BYTE		N44     Cs3 
	BYTE	W48
// 059   ----------------------------------------
	BYTE		N22     As3 
	BYTE	W24
	BYTE		        Fs3 
	BYTE	W24
	BYTE		N90     As1 
	BYTE		N90     Fn2 
	BYTE		N90     Gs2 
	BYTE		N44     As2 
	BYTE	W48
// 060   ----------------------------------------
	BYTE		N22     Gs3 
	BYTE	W24
	BYTE		        As3 
	BYTE	W24
	BYTE		N90     Gs1 
	BYTE		N90     Ds2 
	BYTE		N90     Fs2 
	BYTE		N44     Gs2 
	BYTE	W48
// 061   ----------------------------------------
	BYTE		N22     Cs4 
	BYTE	W24
	BYTE		        As3 
	BYTE	W24
	BYTE		N90     Fs1 
	BYTE		N90     As1 
	BYTE		N48     Ds2 
	BYTE		N44     Cs3 
	BYTE	W48
// 062   ----------------------------------------
	BYTE		N42     Ds2   v064
	BYTE		N22     Cs3 
	BYTE	W24
	BYTE		        Cs2 
	BYTE	W24
	BYTE		N90     Bn1   v096
	BYTE		N90     As2 
	BYTE		N90     Cs3 
	BYTE	W48
// 063   ----------------------------------------
	BYTE		N22     As3 
	BYTE	W24
	BYTE		        Fs3 
	BYTE	W24
	BYTE		N44     As1 
	BYTE		N44     Fn2 
	BYTE		N44     Gs2 
	BYTE		N44     Cs3 
	BYTE	W48
// 064   ----------------------------------------
	BYTE		        Ds2 
	BYTE		N44     As2 
	BYTE		N44     Cs3 
	BYTE		N44     Fs3 
	BYTE	W48
	BYTE		N90     En2 
	BYTE		N90     Bn2 
	BYTE		N90     Cs3 
	BYTE	W48
// 065   ----------------------------------------
	BYTE		N44     Ds3 
	BYTE	W48
	BYTE		        Cn2 
	BYTE		N44     Gs2 
	BYTE		N44     As2 
	BYTE	W48
// 066   ----------------------------------------
	BYTE		        As1 
	BYTE		N44     Fn2 
	BYTE		N44     As2 
	BYTE	W48
	BYTE		N17     Ds2 
	BYTE		N17     Fs2 
	BYTE		N17     Gs2 
	BYTE	W18
	BYTE		N08     Ds2 
	BYTE		N08     Fs2 
	BYTE		N08     Gs2 
	BYTE	W30
// 067   ----------------------------------------
	BYTE	W36
	BYTE		N17     Ds2 
	BYTE		N17     Fs2 
	BYTE		N17     Gs2 
	BYTE	W18
	BYTE		N05     Ds2 
	BYTE		N05     Fs2 
	BYTE		N05     Gs2 
	BYTE	W42
// 068   ----------------------------------------
	BYTE	W48
	BYTE		N17     Ds2 
	BYTE		N17     Fs2 
	BYTE		N17     Gs2 
	BYTE		N17     Cs3 
	BYTE	W18
	BYTE		N08     Ds2 
	BYTE		N08     Fs2 
	BYTE		N08     Gs2 
	BYTE		N08     Cs3 
	BYTE	W30
// 069   ----------------------------------------
	BYTE	W36
	BYTE		N17     Ds2 
	BYTE		N17     Fs2 
	BYTE		N17     Gs2 
	BYTE		N17     Cs3 
	BYTE	W18
	BYTE		N05     Ds2 
	BYTE		N05     Fs2 
	BYTE		N05     Gs2 
	BYTE		N05     Cs3 
	BYTE	W30
	BYTE		N02     Ds2 
	BYTE		N02     Fs2 
	BYTE		N02     Gs2 
	BYTE		N02     Cs3 
	BYTE	W12
// 070   ----------------------------------------
	BYTE	W12
	BYTE		N08     Ds2 
	BYTE		N08     Fs2 
	BYTE		N08     Gs2 
	BYTE		N08     Cs3 
	BYTE	W12
	BYTE		N05     Ds2 
	BYTE		N05     Fs2 
	BYTE		N05     Gs2 
	BYTE		N05     Cs3 
	BYTE	W24
	BYTE		N17     Ds2 
	BYTE		N17     Fs2 
	BYTE		N17     Gs2 
	BYTE		N17     Bn2 
	BYTE	W18
	BYTE		N08     Ds2 
	BYTE		N08     Fs2 
	BYTE		N08     Gs2 
	BYTE		N08     Bn2 
	BYTE	W30
// 071   ----------------------------------------
	BYTE	W36
	BYTE		N17     Ds2 
	BYTE		N17     Fs2 
	BYTE		N17     Gs2 
	BYTE		N17     Bn2 
	BYTE	W18
	BYTE		N05     Ds2 
	BYTE		N05     Fs2 
	BYTE		N05     Gs2 
	BYTE		N05     Bn2 
	BYTE	W42
// 072   ----------------------------------------
	BYTE	W48
	BYTE		N17     As2 
	BYTE		N17     Ds3 
	BYTE		N17     Fn3 
	BYTE		N17     Gs3 
	BYTE	W18
	BYTE		N08     As2 
	BYTE		N08     Ds3 
	BYTE		N08     Fn3 
	BYTE		N08     Gs3 
	BYTE	W30
// 073   ----------------------------------------
	BYTE	W18
	BYTE		N02     As2 
	BYTE		N02     Ds3 
	BYTE		N02     Fn3 
	BYTE		N02     Gs3 
	BYTE	W30
	BYTE		N44     As3 
	BYTE		N44     Dn4 
	BYTE		N44     Fs4 
	BYTE	W48
// 074   ----------------------------------------
	BYTE	W48
	BYTE	GoTo
	 POIN2	EdgeOfDawn_5_B1
EdgeOfDawn_5_B2:
	BYTE	FINE

//**************** Track 6 (Midi-Chn.7) ****************//

EdgeOfDawn_6:
	BYTE	KEYSH   EdgeOfDawn_key+0
// 000   ----------------------------------------
	BYTE		VOICE   52
	BYTE		VOL     113*EdgeOfDawn_mvl/mxv
	BYTE		PAN     c_v-21
	BYTE	W96
// 001   ----------------------------------------
	BYTE	W96
// 002   ----------------------------------------
	BYTE	W96
// 003   ----------------------------------------
	BYTE	W96
// 004   ----------------------------------------
	BYTE	W96
// 005   ----------------------------------------
	BYTE	W96
// 006   ----------------------------------------
	BYTE	W96
// 007   ----------------------------------------
	BYTE	W96
// 008   ----------------------------------------
	BYTE	W96
// 009   ----------------------------------------
	BYTE	W48
EdgeOfDawn_6_B1:
	BYTE	W48
// 010   ----------------------------------------
	BYTE	W96
// 011   ----------------------------------------
	BYTE	W96
// 012   ----------------------------------------
	BYTE	W96
// 013   ----------------------------------------
	BYTE	W96
// 014   ----------------------------------------
	BYTE	W96
// 015   ----------------------------------------
	BYTE	W96
// 016   ----------------------------------------
	BYTE	W96
// 017   ----------------------------------------
	BYTE	W96
// 018   ----------------------------------------
EdgeOfDawn_6_018:
	BYTE	W48
	BYTE		N23     As3   v080
	BYTE	W24
	BYTE		N11     Gs3 
	BYTE	W12
	BYTE		        Fs3 
	BYTE	W12
	BYTE	PEND
// 019   ----------------------------------------
EdgeOfDawn_6_019:
	BYTE		N23     Fn3   v080
	BYTE	W24
	BYTE		N11     Ds3 
	BYTE	W12
	BYTE		        Fn3 
	BYTE	W12
	BYTE		N23     Fs3 
	BYTE	W24
	BYTE		        Cs4 
	BYTE	W24
	BYTE	PEND
// 020   ----------------------------------------
EdgeOfDawn_6_020:
	BYTE		N11     Bn3   v080
	BYTE	W12
	BYTE		        As3 
	BYTE	W12
	BYTE		        Gs3 
	BYTE	W12
	BYTE		        Cs3 
	BYTE	W12
	BYTE		N23     Fn3 
	BYTE	W24
	BYTE		N11     Gs3 
	BYTE	W12
	BYTE		        As3 
	BYTE	W12
	BYTE	PEND
// 021   ----------------------------------------
	BYTE		N23     Cs4 
	BYTE	W24
	BYTE		        Fn3 
	BYTE	W24
	BYTE		N32     As3 
	BYTE	W48
// 022   ----------------------------------------
	BYTE	PATT
	 POIN2	EdgeOfDawn_6_018
// 023   ----------------------------------------
	BYTE	PATT
	 POIN2	EdgeOfDawn_6_019
// 024   ----------------------------------------
	BYTE	PATT
	 POIN2	EdgeOfDawn_6_020
// 025   ----------------------------------------
	BYTE		N23     Cs4   v080
	BYTE	W24
	BYTE		        Gs3 
	BYTE	W24
	BYTE		N32     Fs3 
	BYTE	W48
// 026   ----------------------------------------
	BYTE	W96
// 027   ----------------------------------------
	BYTE	W96
// 028   ----------------------------------------
	BYTE	W96
// 029   ----------------------------------------
	BYTE	W96
// 030   ----------------------------------------
	BYTE	W96
// 031   ----------------------------------------
	BYTE	W96
// 032   ----------------------------------------
	BYTE	W96
// 033   ----------------------------------------
	BYTE	W96
// 034   ----------------------------------------
	BYTE	W96
// 035   ----------------------------------------
	BYTE	W96
// 036   ----------------------------------------
	BYTE	W96
// 037   ----------------------------------------
	BYTE	W96
// 038   ----------------------------------------
	BYTE	W96
// 039   ----------------------------------------
	BYTE	W96
// 040   ----------------------------------------
	BYTE	W96
// 041   ----------------------------------------
	BYTE	W96
// 042   ----------------------------------------
	BYTE	W48
	BYTE		N44     Fs3   v064
	BYTE	W48
// 043   ----------------------------------------
	BYTE		N17   
	BYTE	W18
	BYTE		        Cs4 
	BYTE	W18
	BYTE		N11     Bn3 
	BYTE	W12
	BYTE		N44     As3 
	BYTE	W48
// 044   ----------------------------------------
	BYTE		N23     Fs3 
	BYTE	W24
	BYTE		        Fn3 
	BYTE	W24
	BYTE		        Ds3 
	BYTE	W24
	BYTE		        Bn3 
	BYTE	W24
// 045   ----------------------------------------
	BYTE		N11     Gs3 
	BYTE	W12
	BYTE		        As3 
	BYTE	W12
	BYTE		        Fs3 
	BYTE	W12
	BYTE		        Ds3 
	BYTE	W12
	BYTE		N23     Fn3 
	BYTE	W24
	BYTE		N11     Ds3 
	BYTE	W12
	BYTE		N32     Cs3 
	BYTE	W12
// 046   ----------------------------------------
	BYTE	W48
	BYTE		N44     Ds3 
	BYTE	W48
// 047   ----------------------------------------
	BYTE		N17     Fs3 
	BYTE	W18
	BYTE		        Gs3 
	BYTE	W18
	BYTE		N11     Fn3 
	BYTE	W12
	BYTE		N44     Cs3 
	BYTE	W48
// 048   ----------------------------------------
	BYTE		N23     Ds3 
	BYTE	W24
	BYTE		N11     Fn3 
	BYTE	W12
	BYTE		        Fs3 
	BYTE	W12
	BYTE		N23     Gs3 
	BYTE	W24
	BYTE		        As3 
	BYTE	W24
// 049   ----------------------------------------
	BYTE		        Fn3 
	BYTE	W24
	BYTE		N11     Cs3 
	BYTE	W12
	BYTE		        Fn3 
	BYTE	W12
	BYTE		N44     Ds3 
	BYTE	W48
// 050   ----------------------------------------
EdgeOfDawn_6_050:
	BYTE	W48
	BYTE		N23     As3   v064
	BYTE	W24
	BYTE		N11     Gs3 
	BYTE	W12
	BYTE		        Fs3 
	BYTE	W12
	BYTE	PEND
// 051   ----------------------------------------
EdgeOfDawn_6_051:
	BYTE		N23     Fn3   v064
	BYTE	W24
	BYTE		N11     Ds3 
	BYTE	W12
	BYTE		        Fn3 
	BYTE	W12
	BYTE		N23     Fs3 
	BYTE	W24
	BYTE		        Cs4 
	BYTE	W24
	BYTE	PEND
// 052   ----------------------------------------
EdgeOfDawn_6_052:
	BYTE		N11     Bn3   v064
	BYTE	W12
	BYTE		        As3 
	BYTE	W12
	BYTE		        Gs3 
	BYTE	W12
	BYTE		        Cs3 
	BYTE	W12
	BYTE		N23     Fn3 
	BYTE	W24
	BYTE		N11     Gs3 
	BYTE	W12
	BYTE		        As3 
	BYTE	W12
	BYTE	PEND
// 053   ----------------------------------------
	BYTE		N23     Cs4 
	BYTE	W24
	BYTE		        Fn3 
	BYTE	W24
	BYTE		N32     As3 
	BYTE	W48
// 054   ----------------------------------------
	BYTE	PATT
	 POIN2	EdgeOfDawn_6_050
// 055   ----------------------------------------
	BYTE	PATT
	 POIN2	EdgeOfDawn_6_051
// 056   ----------------------------------------
	BYTE	PATT
	 POIN2	EdgeOfDawn_6_052
// 057   ----------------------------------------
	BYTE		N23     Cs4   v064
	BYTE	W24
	BYTE		        Gs3 
	BYTE	W24
	BYTE		N32     Fs3 
	BYTE	W48
// 058   ----------------------------------------
	BYTE	W96
// 059   ----------------------------------------
	BYTE	W96
// 060   ----------------------------------------
	BYTE	W96
// 061   ----------------------------------------
	BYTE	W96
// 062   ----------------------------------------
	BYTE	W96
// 063   ----------------------------------------
	BYTE	W96
// 064   ----------------------------------------
	BYTE	W96
// 065   ----------------------------------------
	BYTE	W96
// 066   ----------------------------------------
	BYTE	W96
// 067   ----------------------------------------
	BYTE	W96
// 068   ----------------------------------------
	BYTE	W96
// 069   ----------------------------------------
	BYTE	W96
// 070   ----------------------------------------
	BYTE	W96
// 071   ----------------------------------------
	BYTE	W96
// 072   ----------------------------------------
	BYTE	W96
// 073   ----------------------------------------
	BYTE	W96
// 074   ----------------------------------------
	BYTE	W48
	BYTE	GoTo
	 POIN2	EdgeOfDawn_6_B1
EdgeOfDawn_6_B2:
	BYTE	FINE

//**************** Track 7 (Midi-Chn.8) ****************//

EdgeOfDawn_7:
	BYTE	KEYSH   EdgeOfDawn_key+0
// 000   ----------------------------------------
	BYTE		VOICE   41
	BYTE		PAN     c_v+22
	BYTE		VOL     100*EdgeOfDawn_mvl/mxv
	BYTE	W96
// 001   ----------------------------------------
	BYTE	W96
// 002   ----------------------------------------
	BYTE	W96
// 003   ----------------------------------------
	BYTE	W96
// 004   ----------------------------------------
	BYTE	W96
// 005   ----------------------------------------
	BYTE	W96
// 006   ----------------------------------------
	BYTE	W96
// 007   ----------------------------------------
	BYTE	W96
// 008   ----------------------------------------
	BYTE	W96
// 009   ----------------------------------------
	BYTE	W48
EdgeOfDawn_7_B1:
	BYTE		N92     Bn1   v052
	BYTE	W48
// 010   ----------------------------------------
	BYTE	W48
	BYTE		N92   
	BYTE	W48
// 011   ----------------------------------------
	BYTE	W48
	BYTE		        As1 
	BYTE	W48
// 012   ----------------------------------------
	BYTE	W48
	BYTE		        Ds2 
	BYTE	W48
// 013   ----------------------------------------
	BYTE	W24
	BYTE		N23     Cs2 
	BYTE	W24
	BYTE		N44     Bn1 
	BYTE		N44     Fs2 
	BYTE	W48
// 014   ----------------------------------------
EdgeOfDawn_7_014:
	BYTE		N44     Cs2   v052
	BYTE		N44     Gs2 
	BYTE	W48
	BYTE		        As1 
	BYTE		N44     Fn2 
	BYTE	W48
	BYTE	PEND
// 015   ----------------------------------------
	BYTE		N23     Ds2 
	BYTE		N23     As2 
	BYTE	W24
	BYTE		        Cs2 
	BYTE		N23     Gs2 
	BYTE	W24
	BYTE		N44     Gs1 
	BYTE		N44     Ds2 
	BYTE	W48
// 016   ----------------------------------------
	BYTE		        As1 
	BYTE		N44     Fn2 
	BYTE	W48
	BYTE		        Ds2 
	BYTE		N44     As2 
	BYTE	W48
// 017   ----------------------------------------
	BYTE	W96
// 018   ----------------------------------------
EdgeOfDawn_7_018:
	BYTE	W48
	BYTE		N92     Bn1   v080
	BYTE		N92     Fs2 
	BYTE	W36
	BYTE		N23     Ds2 
	BYTE	W12
	BYTE	PEND
// 019   ----------------------------------------
EdgeOfDawn_7_019:
	BYTE	W12
	BYTE		N23     Gs2   v080
	BYTE	W24
	BYTE		N11     As2 
	BYTE	W12
	BYTE		N92     Bn1 
	BYTE		N92     Fs2 
	BYTE	W36
	BYTE		N23     Gs2 
	BYTE	W12
	BYTE	PEND
// 020   ----------------------------------------
EdgeOfDawn_7_020:
	BYTE	W12
	BYTE		N23     As2   v080
	BYTE	W24
	BYTE		N11     Cs3 
	BYTE	W12
	BYTE		N92     As1 
	BYTE		N92     Fn2 
	BYTE	W36
	BYTE		N23     Cs2 
	BYTE	W12
	BYTE	PEND
// 021   ----------------------------------------
EdgeOfDawn_7_021:
	BYTE	W12
	BYTE		N23     Gs2   v080
	BYTE	W24
	BYTE		N11     As2 
	BYTE	W12
	BYTE		N68     Ds2 
	BYTE		N68     As2 
	BYTE	W24
	BYTE		N23     Gs2 
	BYTE	W24
	BYTE	PEND
// 022   ----------------------------------------
EdgeOfDawn_7_022:
	BYTE		N23     Fs2   v080
	BYTE	W24
	BYTE		        Cs2 
	BYTE	W24
	BYTE		N92     Bn1 
	BYTE		N92     Fs2 
	BYTE	W36
	BYTE		N23     Ds2 
	BYTE	W12
	BYTE	PEND
// 023   ----------------------------------------
	BYTE	PATT
	 POIN2	EdgeOfDawn_7_019
// 024   ----------------------------------------
	BYTE	PATT
	 POIN2	EdgeOfDawn_7_020
// 025   ----------------------------------------
EdgeOfDawn_7_025:
	BYTE	W12
	BYTE		N23     Gs2   v080
	BYTE	W24
	BYTE		N11     As2 
	BYTE	W12
	BYTE		N44     As1 
	BYTE		N44     Fs2 
	BYTE	W48
	BYTE	PEND
// 026   ----------------------------------------
	BYTE	W96
// 027   ----------------------------------------
	BYTE	W96
// 028   ----------------------------------------
	BYTE	W96
// 029   ----------------------------------------
	BYTE	W96
// 030   ----------------------------------------
	BYTE	W48
	BYTE		        Fs2   v052
	BYTE	W48
// 031   ----------------------------------------
EdgeOfDawn_7_031:
	BYTE		N44     Ds2   v052
	BYTE	W48
	BYTE		        Cs2 
	BYTE	W48
	BYTE	PEND
// 032   ----------------------------------------
EdgeOfDawn_7_032:
	BYTE		N44     Ds2   v052
	BYTE	W48
	BYTE		N92     En2 
	BYTE	W48
	BYTE	PEND
// 033   ----------------------------------------
	BYTE	W48
	BYTE		N44     Ds2 
	BYTE	W48
// 034   ----------------------------------------
EdgeOfDawn_7_034:
	BYTE		N44     As1   v052
	BYTE	W48
	BYTE		TIE     Gs1 
	BYTE	W48
	BYTE	PEND
// 035   ----------------------------------------
	BYTE	W96
// 036   ----------------------------------------
	BYTE	W44
	BYTE	W03
	BYTE		EOT   
	BYTE	W01
	BYTE		TIE     Ds2 
	BYTE	W48
// 037   ----------------------------------------
	BYTE	W96
// 038   ----------------------------------------
	BYTE	W44
	BYTE	W03
	BYTE		EOT   
	BYTE	W01
	BYTE		TIE     Gs1 
	BYTE	W48
// 039   ----------------------------------------
	BYTE	W96
// 040   ----------------------------------------
	BYTE	W44
	BYTE	W03
	BYTE		EOT   
	BYTE	W01
	BYTE		N92     As1 
	BYTE	W48
// 041   ----------------------------------------
	BYTE	W96
// 042   ----------------------------------------
	BYTE	W48
	BYTE		N44     Bn1 
	BYTE		N44     Fs2 
	BYTE	W48
// 043   ----------------------------------------
	BYTE	PATT
	 POIN2	EdgeOfDawn_7_014
// 044   ----------------------------------------
	BYTE		N44     Fs1   v052
	BYTE		N44     Ds2 
	BYTE	W48
	BYTE		        Gs1 
	BYTE		N44     Fs2 
	BYTE	W48
// 045   ----------------------------------------
	BYTE		        As1 
	BYTE		N44     Gs2 
	BYTE	W48
	BYTE		        Ds2 
	BYTE		N44     As2 
	BYTE	W48
// 046   ----------------------------------------
	BYTE		        Cs2 
	BYTE		N44     Gs2 
	BYTE	W48
	BYTE		        Bn1 
	BYTE		N44     Bn2 
	BYTE	W48
// 047   ----------------------------------------
	BYTE		        Cs2 
	BYTE		N44     Cs3 
	BYTE	W48
	BYTE		        As1 
	BYTE		N44     As2 
	BYTE	W48
// 048   ----------------------------------------
	BYTE		N23     Ds2 
	BYTE		N23     Ds3 
	BYTE	W24
	BYTE		        Cs2 
	BYTE	W24
	BYTE		N44     Gs1 
	BYTE		N44     Gs2 
	BYTE	W48
// 049   ----------------------------------------
	BYTE		        As1 
	BYTE		N44     As2 
	BYTE	W48
	BYTE		        Ds2 
	BYTE		N44     Ds3 
	BYTE	W48
// 050   ----------------------------------------
	BYTE	PATT
	 POIN2	EdgeOfDawn_7_018
// 051   ----------------------------------------
	BYTE	PATT
	 POIN2	EdgeOfDawn_7_019
// 052   ----------------------------------------
	BYTE	PATT
	 POIN2	EdgeOfDawn_7_020
// 053   ----------------------------------------
	BYTE	PATT
	 POIN2	EdgeOfDawn_7_021
// 054   ----------------------------------------
	BYTE	PATT
	 POIN2	EdgeOfDawn_7_022
// 055   ----------------------------------------
	BYTE	PATT
	 POIN2	EdgeOfDawn_7_019
// 056   ----------------------------------------
	BYTE	PATT
	 POIN2	EdgeOfDawn_7_020
// 057   ----------------------------------------
	BYTE	PATT
	 POIN2	EdgeOfDawn_7_025
// 058   ----------------------------------------
	BYTE	W96
// 059   ----------------------------------------
	BYTE	W96
// 060   ----------------------------------------
	BYTE	W96
// 061   ----------------------------------------
	BYTE	W96
// 062   ----------------------------------------
	BYTE	W48
	BYTE		N44     Fs2   v052
	BYTE	W48
// 063   ----------------------------------------
	BYTE	PATT
	 POIN2	EdgeOfDawn_7_031
// 064   ----------------------------------------
	BYTE	PATT
	 POIN2	EdgeOfDawn_7_032
// 065   ----------------------------------------
	BYTE	W48
	BYTE		N44     Fn2   v052
	BYTE	W48
// 066   ----------------------------------------
	BYTE	PATT
	 POIN2	EdgeOfDawn_7_034
// 067   ----------------------------------------
	BYTE	W96
// 068   ----------------------------------------
	BYTE	W44
	BYTE	W03
	BYTE		EOT     Gs1 
	BYTE	W01
	BYTE		TIE     Ds2   v052
	BYTE	W48
// 069   ----------------------------------------
	BYTE	W96
// 070   ----------------------------------------
	BYTE	W44
	BYTE	W03
	BYTE		EOT   
	BYTE	W01
	BYTE		TIE     Gs1 
	BYTE	W48
// 071   ----------------------------------------
	BYTE	W96
// 072   ----------------------------------------
	BYTE	W44
	BYTE	W03
	BYTE		EOT   
	BYTE	W01
	BYTE		N92     As1 
	BYTE	W48
// 073   ----------------------------------------
	BYTE	W96
// 074   ----------------------------------------
	BYTE	W48
	BYTE	GoTo
	 POIN2	EdgeOfDawn_7_B1
EdgeOfDawn_7_B2:
	BYTE	FINE

//**************** Track 8 (Midi-Chn.9) ****************//

EdgeOfDawn_8:
	BYTE	KEYSH   EdgeOfDawn_key+0
// 000   ----------------------------------------
	BYTE		VOICE   24
	BYTE		PAN     c_v-9
	BYTE		VOL     100*EdgeOfDawn_mvl/mxv
	BYTE	W96
// 001   ----------------------------------------
	BYTE	W96
// 002   ----------------------------------------
	BYTE	W96
// 003   ----------------------------------------
	BYTE	W96
// 004   ----------------------------------------
	BYTE	W96
// 005   ----------------------------------------
	BYTE	W96
// 006   ----------------------------------------
	BYTE	W96
// 007   ----------------------------------------
	BYTE	W96
// 008   ----------------------------------------
	BYTE	W96
// 009   ----------------------------------------
	BYTE	W48
EdgeOfDawn_8_B1:
	BYTE		N44     Fs2   v080
	BYTE	W03
	BYTE		        As2 
	BYTE	W03
	BYTE		N40     Ds3 
	BYTE	W42
// 010   ----------------------------------------
	BYTE		N44     As3 
	BYTE	W48
	BYTE		        As2 
	BYTE		N44     Ds3 
	BYTE		N44     Fn3 
	BYTE	W48
// 011   ----------------------------------------
	BYTE		N23     As3 
	BYTE	W24
	BYTE		        Fs3 
	BYTE	W24
	BYTE		N44     Gs2 
	BYTE		N44     As2 
	BYTE		N44     Fn3 
	BYTE	W48
// 012   ----------------------------------------
	BYTE		N23   
	BYTE	W03
	BYTE		N20     As3 
	BYTE	W21
	BYTE		N23     Cs3 
	BYTE	W24
	BYTE		        Fs2 
	BYTE	W03
	BYTE		N20     Cs3 
	BYTE	W03
	BYTE		N17     Ds3 
	BYTE	W30
	BYTE		N23     As2 
	BYTE		N23     Ds3 
	BYTE	W12
// 013   ----------------------------------------
	BYTE	W24
	BYTE		        Gs2 
	BYTE		N23     Cs3 
	BYTE	W24
	BYTE		        Ds2 
	BYTE		N23     Bn2 
	BYTE	W48
// 014   ----------------------------------------
	BYTE	W96
// 015   ----------------------------------------
	BYTE	W96
// 016   ----------------------------------------
	BYTE	W96
// 017   ----------------------------------------
	BYTE	W96
// 018   ----------------------------------------
	BYTE	W96
// 019   ----------------------------------------
	BYTE	W96
// 020   ----------------------------------------
	BYTE	W96
// 021   ----------------------------------------
	BYTE	W96
// 022   ----------------------------------------
	BYTE	W96
// 023   ----------------------------------------
	BYTE	W96
// 024   ----------------------------------------
	BYTE	W96
// 025   ----------------------------------------
	BYTE	W96
// 026   ----------------------------------------
	BYTE	W96
// 027   ----------------------------------------
	BYTE	W96
// 028   ----------------------------------------
	BYTE	W96
// 029   ----------------------------------------
	BYTE	W96
// 030   ----------------------------------------
	BYTE	W96
// 031   ----------------------------------------
	BYTE	W96
// 032   ----------------------------------------
	BYTE	W96
// 033   ----------------------------------------
	BYTE	W96
// 034   ----------------------------------------
	BYTE	W96
// 035   ----------------------------------------
	BYTE	W96
// 036   ----------------------------------------
	BYTE	W96
// 037   ----------------------------------------
	BYTE	W96
// 038   ----------------------------------------
	BYTE	W96
// 039   ----------------------------------------
	BYTE	W96
// 040   ----------------------------------------
	BYTE	W96
// 041   ----------------------------------------
	BYTE	W96
// 042   ----------------------------------------
	BYTE	W96
// 043   ----------------------------------------
	BYTE	W96
// 044   ----------------------------------------
	BYTE	W96
// 045   ----------------------------------------
	BYTE	W96
// 046   ----------------------------------------
	BYTE	W96
// 047   ----------------------------------------
	BYTE	W96
// 048   ----------------------------------------
	BYTE	W96
// 049   ----------------------------------------
	BYTE	W96
// 050   ----------------------------------------
	BYTE	W96
// 051   ----------------------------------------
	BYTE	W96
// 052   ----------------------------------------
	BYTE	W96
// 053   ----------------------------------------
	BYTE	W96
// 054   ----------------------------------------
	BYTE	W96
// 055   ----------------------------------------
	BYTE	W96
// 056   ----------------------------------------
	BYTE	W96
// 057   ----------------------------------------
	BYTE	W96
// 058   ----------------------------------------
	BYTE	W96
// 059   ----------------------------------------
	BYTE	W96
// 060   ----------------------------------------
	BYTE	W96
// 061   ----------------------------------------
	BYTE	W96
// 062   ----------------------------------------
	BYTE	W96
// 063   ----------------------------------------
	BYTE	W96
// 064   ----------------------------------------
	BYTE	W96
// 065   ----------------------------------------
	BYTE	W96
// 066   ----------------------------------------
	BYTE	W96
// 067   ----------------------------------------
	BYTE	W96
// 068   ----------------------------------------
	BYTE	W96
// 069   ----------------------------------------
	BYTE	W96
// 070   ----------------------------------------
	BYTE	W96
// 071   ----------------------------------------
	BYTE	W96
// 072   ----------------------------------------
	BYTE	W96
// 073   ----------------------------------------
	BYTE	W96
// 074   ----------------------------------------
	BYTE	W48
	BYTE	GoTo
	 POIN2	EdgeOfDawn_8_B1
EdgeOfDawn_8_B2:
	BYTE	FINE

//**************** Track 9 (Midi-Chn.11) ****************//

EdgeOfDawn_9:
	BYTE	KEYSH   EdgeOfDawn_key+0
// 000   ----------------------------------------
	BYTE		VOICE   34
	BYTE		VOL     92*EdgeOfDawn_mvl/mxv
	BYTE		PAN     c_v+9
	BYTE	W96
// 001   ----------------------------------------
	BYTE	W96
// 002   ----------------------------------------
	BYTE	W96
// 003   ----------------------------------------
	BYTE	W96
// 004   ----------------------------------------
	BYTE	W96
// 005   ----------------------------------------
	BYTE	W96
// 006   ----------------------------------------
	BYTE	W96
// 007   ----------------------------------------
	BYTE	W96
// 008   ----------------------------------------
	BYTE	W96
// 009   ----------------------------------------
	BYTE	W48
EdgeOfDawn_9_B1:
	BYTE	W48
// 010   ----------------------------------------
	BYTE	W96
// 011   ----------------------------------------
	BYTE	W96
// 012   ----------------------------------------
	BYTE	W96
// 013   ----------------------------------------
	BYTE	W96
// 014   ----------------------------------------
	BYTE	W96
// 015   ----------------------------------------
	BYTE	W96
// 016   ----------------------------------------
	BYTE	W96
// 017   ----------------------------------------
	BYTE	W96
// 018   ----------------------------------------
	BYTE	W96
// 019   ----------------------------------------
	BYTE	W96
// 020   ----------------------------------------
	BYTE	W96
// 021   ----------------------------------------
	BYTE	W96
// 022   ----------------------------------------
EdgeOfDawn_9_022:
	BYTE	W06
	BYTE		N05     Fs2   v080
	BYTE	W06
	BYTE		        Fn2 
	BYTE	W06
	BYTE		        Cs2 
	BYTE	W06
	BYTE		        As1 
	BYTE	W06
	BYTE		        Fs1 
	BYTE	W06
	BYTE		        Fn1 
	BYTE	W06
	BYTE		        Gs1 
	BYTE	W54
	BYTE	PEND
// 023   ----------------------------------------
	BYTE	W96
// 024   ----------------------------------------
	BYTE	W96
// 025   ----------------------------------------
	BYTE	W96
// 026   ----------------------------------------
	BYTE	W06
	BYTE		N05   
	BYTE	W06
	BYTE		        Fn1 
	BYTE	W06
	BYTE		        Dn1 
	BYTE	W12
	BYTE		        Gs0 
	BYTE	W06
	BYTE		        Fn0 
	BYTE	W60
// 027   ----------------------------------------
	BYTE	W96
// 028   ----------------------------------------
	BYTE	W96
// 029   ----------------------------------------
	BYTE	W96
// 030   ----------------------------------------
	BYTE	W96
// 031   ----------------------------------------
	BYTE	W96
// 032   ----------------------------------------
	BYTE	W96
// 033   ----------------------------------------
	BYTE	W96
// 034   ----------------------------------------
EdgeOfDawn_9_034:
	BYTE	W48
	BYTE		N02     Fs0   v080
	BYTE	W02
	BYTE		        Gn0 
	BYTE	W02
	BYTE		N30     Gs0 
	BYTE	W44
	BYTE	PEND
// 035   ----------------------------------------
	BYTE	W96
// 036   ----------------------------------------
	BYTE	W96
// 037   ----------------------------------------
	BYTE	W96
// 038   ----------------------------------------
	BYTE	PATT
	 POIN2	EdgeOfDawn_9_034
// 039   ----------------------------------------
	BYTE	W96
// 040   ----------------------------------------
	BYTE	W96
// 041   ----------------------------------------
	BYTE	W96
// 042   ----------------------------------------
	BYTE	W96
// 043   ----------------------------------------
	BYTE	W96
// 044   ----------------------------------------
	BYTE	W96
// 045   ----------------------------------------
	BYTE	W96
// 046   ----------------------------------------
	BYTE	W96
// 047   ----------------------------------------
	BYTE	W96
// 048   ----------------------------------------
	BYTE	W96
// 049   ----------------------------------------
	BYTE	W96
// 050   ----------------------------------------
	BYTE	W96
// 051   ----------------------------------------
	BYTE	W96
// 052   ----------------------------------------
	BYTE	W96
// 053   ----------------------------------------
	BYTE	W96
// 054   ----------------------------------------
	BYTE	PATT
	 POIN2	EdgeOfDawn_9_022
// 055   ----------------------------------------
	BYTE	W96
// 056   ----------------------------------------
	BYTE	W96
// 057   ----------------------------------------
	BYTE	W96
// 058   ----------------------------------------
	BYTE	W06
	BYTE		N05     Gs1   v080
	BYTE	W06
	BYTE		        Fn1 
	BYTE	W06
	BYTE		        Dn1 
	BYTE	W06
	BYTE		N11     Gs0 
	BYTE	W72
// 059   ----------------------------------------
	BYTE	W96
// 060   ----------------------------------------
	BYTE	W96
// 061   ----------------------------------------
	BYTE	W96
// 062   ----------------------------------------
	BYTE	W96
// 063   ----------------------------------------
	BYTE	W96
// 064   ----------------------------------------
	BYTE	W96
// 065   ----------------------------------------
	BYTE	W96
// 066   ----------------------------------------
	BYTE	PATT
	 POIN2	EdgeOfDawn_9_034
// 067   ----------------------------------------
	BYTE	W96
// 068   ----------------------------------------
	BYTE	W96
// 069   ----------------------------------------
	BYTE	W96
// 070   ----------------------------------------
	BYTE	PATT
	 POIN2	EdgeOfDawn_9_034
// 071   ----------------------------------------
	BYTE	W96
// 072   ----------------------------------------
	BYTE	W96
// 073   ----------------------------------------
	BYTE	W96
// 074   ----------------------------------------
	BYTE	W48
	BYTE	GoTo
	 POIN2	EdgeOfDawn_9_B1
EdgeOfDawn_9_B2:
	BYTE	FINE

//**************** Track 10 (Midi-Chn.12) ****************//

EdgeOfDawn_10:
	BYTE	KEYSH   EdgeOfDawn_key+0
// 000   ----------------------------------------
	BYTE		VOICE   99
	BYTE		VOL     92*EdgeOfDawn_mvl/mxv
	BYTE		PAN     c_v-13
	BYTE	W96
// 001   ----------------------------------------
	BYTE	W96
// 002   ----------------------------------------
	BYTE	W96
// 003   ----------------------------------------
	BYTE	W96
// 004   ----------------------------------------
	BYTE	W96
// 005   ----------------------------------------
	BYTE	W96
// 006   ----------------------------------------
	BYTE	W96
// 007   ----------------------------------------
	BYTE	W96
// 008   ----------------------------------------
	BYTE	W96
// 009   ----------------------------------------
	BYTE	W48
EdgeOfDawn_10_B1:
	BYTE	W48
// 010   ----------------------------------------
	BYTE	W96
// 011   ----------------------------------------
	BYTE	W96
// 012   ----------------------------------------
	BYTE	W96
// 013   ----------------------------------------
	BYTE	W96
// 014   ----------------------------------------
	BYTE		N44     Fn2   v080
	BYTE	W48
	BYTE		        As1 
	BYTE	W48
// 015   ----------------------------------------
	BYTE		        Ds2 
	BYTE		N44     As2 
	BYTE	W48
	BYTE		        Gs1 
	BYTE		N44     Ds2 
	BYTE	W48
// 016   ----------------------------------------
	BYTE		        As1 
	BYTE		N44     Fn2 
	BYTE	W48
	BYTE		        Bn1 
	BYTE		N44     Gs2 
	BYTE	W48
// 017   ----------------------------------------
	BYTE	W96
// 018   ----------------------------------------
	BYTE	W96
// 019   ----------------------------------------
	BYTE	W96
// 020   ----------------------------------------
	BYTE	W96
// 021   ----------------------------------------
	BYTE	W96
// 022   ----------------------------------------
	BYTE	W96
// 023   ----------------------------------------
	BYTE	W96
// 024   ----------------------------------------
	BYTE	W96
// 025   ----------------------------------------
	BYTE	W96
// 026   ----------------------------------------
	BYTE	W96
// 027   ----------------------------------------
	BYTE	W96
// 028   ----------------------------------------
	BYTE	W96
// 029   ----------------------------------------
	BYTE	W96
// 030   ----------------------------------------
	BYTE	W96
// 031   ----------------------------------------
	BYTE	W96
// 032   ----------------------------------------
	BYTE	W96
// 033   ----------------------------------------
	BYTE	W96
// 034   ----------------------------------------
EdgeOfDawn_10_034:
	BYTE	W48
	BYTE		TIE     Gs1   v080
	BYTE		TIE     Ds2 
	BYTE	W48
	BYTE	PEND
// 035   ----------------------------------------
	BYTE	W96
// 036   ----------------------------------------
	BYTE	W44
	BYTE	W03
	BYTE		EOT     Gs1 
	BYTE		        Ds2 
	BYTE	W01
	BYTE		N92     Ds1 
	BYTE		N92     Cs2 
	BYTE	W48
// 037   ----------------------------------------
	BYTE	W96
// 038   ----------------------------------------
	BYTE	PATT
	 POIN2	EdgeOfDawn_10_034
// 039   ----------------------------------------
	BYTE	W96
// 040   ----------------------------------------
	BYTE	W44
	BYTE	W03
	BYTE		EOT     Gs1 
	BYTE		        Ds2 
	BYTE	W01
	BYTE		TIE     As1   v080
	BYTE		N92     Fn2 
	BYTE	W48
// 041   ----------------------------------------
	BYTE	W96
// 042   ----------------------------------------
	BYTE	W44
	BYTE	W03
	BYTE		EOT     As1 
	BYTE	W01
	BYTE		N44     Bn1 
	BYTE		N44     Bn2 
	BYTE	W48
// 043   ----------------------------------------
EdgeOfDawn_10_043:
	BYTE		N44     Cs2   v080
	BYTE		N44     Cs3 
	BYTE	W48
	BYTE		        As1 
	BYTE		N44     As2 
	BYTE	W48
	BYTE	PEND
// 044   ----------------------------------------
EdgeOfDawn_10_044:
	BYTE		N44     Ds2   v080
	BYTE		N44     Ds3 
	BYTE	W48
	BYTE		        Gs1 
	BYTE		N44     Gs2 
	BYTE	W48
	BYTE	PEND
// 045   ----------------------------------------
	BYTE		        As1 
	BYTE		N44     As2 
	BYTE	W48
	BYTE		        Ds2 
	BYTE		N44     Ds3 
	BYTE	W48
// 046   ----------------------------------------
	BYTE		        Cs2 
	BYTE		N44     Cs3 
	BYTE	W48
	BYTE		        Bn1 
	BYTE		N44     Bn2 
	BYTE	W48
// 047   ----------------------------------------
	BYTE	PATT
	 POIN2	EdgeOfDawn_10_043
// 048   ----------------------------------------
	BYTE	PATT
	 POIN2	EdgeOfDawn_10_044
// 049   ----------------------------------------
	BYTE		N44     As1   v080
	BYTE		N44     As2 
	BYTE	W48
	BYTE		N92     Bn1 
	BYTE		N92     As2 
	BYTE	W48
// 050   ----------------------------------------
	BYTE	W96
// 051   ----------------------------------------
	BYTE	W96
// 052   ----------------------------------------
	BYTE	W96
// 053   ----------------------------------------
	BYTE	W96
// 054   ----------------------------------------
	BYTE	W96
// 055   ----------------------------------------
	BYTE	W96
// 056   ----------------------------------------
	BYTE	W96
// 057   ----------------------------------------
	BYTE	W96
// 058   ----------------------------------------
	BYTE	W96
// 059   ----------------------------------------
	BYTE	W96
// 060   ----------------------------------------
	BYTE	W96
// 061   ----------------------------------------
	BYTE	W96
// 062   ----------------------------------------
	BYTE	W96
// 063   ----------------------------------------
	BYTE	W96
// 064   ----------------------------------------
	BYTE	W96
// 065   ----------------------------------------
	BYTE	W96
// 066   ----------------------------------------
	BYTE	PATT
	 POIN2	EdgeOfDawn_10_034
// 067   ----------------------------------------
	BYTE	W96
// 068   ----------------------------------------
	BYTE	W44
	BYTE	W03
	BYTE		EOT     Gs1 
	BYTE		        Ds2 
	BYTE	W01
	BYTE		N92     Ds1   v080
	BYTE		N92     Cs2 
	BYTE	W48
// 069   ----------------------------------------
	BYTE	W96
// 070   ----------------------------------------
	BYTE	PATT
	 POIN2	EdgeOfDawn_10_034
// 071   ----------------------------------------
	BYTE	W96
// 072   ----------------------------------------
	BYTE	W44
	BYTE	W03
	BYTE		EOT     Gs1 
	BYTE		        Ds2 
	BYTE	W01
	BYTE		TIE     As1   v080
	BYTE		N92     Fn2 
	BYTE	W48
// 073   ----------------------------------------
	BYTE	W96
// 074   ----------------------------------------
	BYTE	W44
	BYTE	W03
	BYTE		EOT     As1 
	BYTE	W01
	BYTE	GoTo
	 POIN2	EdgeOfDawn_10_B1
EdgeOfDawn_10_B2:
	BYTE	FINE

//**************** Track 11 (Midi-Chn.13) ****************//

EdgeOfDawn_11:
	BYTE	KEYSH   EdgeOfDawn_key+0
// 000   ----------------------------------------
	BYTE		VOICE   38
	BYTE		VOL     94*EdgeOfDawn_mvl/mxv
	BYTE	W96
// 001   ----------------------------------------
	BYTE	W96
// 002   ----------------------------------------
	BYTE	W96
// 003   ----------------------------------------
	BYTE	W96
// 004   ----------------------------------------
	BYTE	W96
// 005   ----------------------------------------
	BYTE	W96
// 006   ----------------------------------------
	BYTE	W96
// 007   ----------------------------------------
	BYTE	W96
// 008   ----------------------------------------
	BYTE	W96
// 009   ----------------------------------------
	BYTE	W48
EdgeOfDawn_11_B1:
	BYTE	W48
// 010   ----------------------------------------
	BYTE	W96
// 011   ----------------------------------------
	BYTE	W96
// 012   ----------------------------------------
	BYTE	W96
// 013   ----------------------------------------
	BYTE	W96
// 014   ----------------------------------------
	BYTE	W96
// 015   ----------------------------------------
	BYTE	W96
// 016   ----------------------------------------
	BYTE	W96
// 017   ----------------------------------------
	BYTE	W96
// 018   ----------------------------------------
EdgeOfDawn_11_018:
	BYTE	W24
	BYTE		N02     Ds4   v080
	BYTE	W06
	BYTE		        Fn4 
	BYTE	W06
	BYTE		        Fs4 
	BYTE	W06
	BYTE		N05     Gs4 
	BYTE	W06
	BYTE		N11     As4   v096
	BYTE	W24
	BYTE		        Ds5 
	BYTE	W24
	BYTE	PEND
// 019   ----------------------------------------
EdgeOfDawn_11_019:
	BYTE		N11     Fn4   v096
	BYTE	W18
	BYTE		        Fs4 
	BYTE	W12
	BYTE		N05     Fn4 
	BYTE	W06
	BYTE		        Fs4 
	BYTE	W06
	BYTE		        Gs4 
	BYTE	W06
	BYTE		N11     As4 
	BYTE	W24
	BYTE		        Ds5 
	BYTE	W24
	BYTE	PEND
// 020   ----------------------------------------
EdgeOfDawn_11_020:
	BYTE		N11     Fn4   v096
	BYTE	W18
	BYTE		        Fs4 
	BYTE	W12
	BYTE		N05     Fn4 
	BYTE	W06
	BYTE		N11     Fs4 
	BYTE	W12
	BYTE		        Gs4 
	BYTE	W24
	BYTE		        Cs5 
	BYTE	W24
	BYTE	PEND
// 021   ----------------------------------------
EdgeOfDawn_11_021:
	BYTE		N11     Fn4   v096
	BYTE	W36
	BYTE		        Fn5 
	BYTE	W18
	BYTE		N05     Fs5 
	BYTE	W06
	BYTE		        Fn5 
	BYTE	W06
	BYTE		        Cs5 
	BYTE	W06
	BYTE		        Gs4 
	BYTE	W12
	BYTE		        Cs5 
	BYTE	W12
	BYTE	PEND
// 022   ----------------------------------------
EdgeOfDawn_11_022:
	BYTE		N11     As4   v096
	BYTE	W24
	BYTE		N05     Ds4 
	BYTE	W06
	BYTE		        Fn4 
	BYTE	W06
	BYTE		        Fs4 
	BYTE	W06
	BYTE		        Gs4 
	BYTE	W06
	BYTE		N11     As4 
	BYTE	W24
	BYTE		        Ds5 
	BYTE	W24
	BYTE	PEND
// 023   ----------------------------------------
	BYTE	PATT
	 POIN2	EdgeOfDawn_11_019
// 024   ----------------------------------------
	BYTE	PATT
	 POIN2	EdgeOfDawn_11_020
// 025   ----------------------------------------
EdgeOfDawn_11_025:
	BYTE		N11     Fn4   v096
	BYTE	W18
	BYTE		        Fs4 
	BYTE	W18
	BYTE		        Gs4 
	BYTE	W12
	BYTE		N44     Fs4 
	BYTE	W48
	BYTE	PEND
// 026   ----------------------------------------
	BYTE	W96
// 027   ----------------------------------------
	BYTE	W96
// 028   ----------------------------------------
	BYTE	W96
// 029   ----------------------------------------
	BYTE	W96
// 030   ----------------------------------------
	BYTE	W96
// 031   ----------------------------------------
	BYTE	W96
// 032   ----------------------------------------
	BYTE	W96
// 033   ----------------------------------------
	BYTE	W96
// 034   ----------------------------------------
	BYTE	W96
// 035   ----------------------------------------
EdgeOfDawn_11_035:
	BYTE		N17     Ds3   v080
	BYTE	W18
	BYTE		        As3 
	BYTE	W18
	BYTE		N11     Fs3 
	BYTE	W60
	BYTE	PEND
// 036   ----------------------------------------
EdgeOfDawn_11_036:
	BYTE		N17     Ds3   v080
	BYTE	W18
	BYTE		        Cs4 
	BYTE	W18
	BYTE		N11     Fs3 
	BYTE	W60
	BYTE	PEND
// 037   ----------------------------------------
EdgeOfDawn_11_037:
	BYTE		N17     Gs3   v080
	BYTE	W18
	BYTE		        As3 
	BYTE	W18
	BYTE		N11     Fs3 
	BYTE	W12
	BYTE		N23     Fn3 
	BYTE	W36
	BYTE		N44     Cs3 
	BYTE	W12
	BYTE	PEND
// 038   ----------------------------------------
	BYTE	W96
// 039   ----------------------------------------
	BYTE	PATT
	 POIN2	EdgeOfDawn_11_035
// 040   ----------------------------------------
	BYTE	PATT
	 POIN2	EdgeOfDawn_11_036
// 041   ----------------------------------------
	BYTE	W96
// 042   ----------------------------------------
	BYTE	W96
// 043   ----------------------------------------
	BYTE	W96
// 044   ----------------------------------------
	BYTE	W96
// 045   ----------------------------------------
	BYTE	W96
// 046   ----------------------------------------
	BYTE	W96
// 047   ----------------------------------------
	BYTE	W96
// 048   ----------------------------------------
	BYTE	W96
// 049   ----------------------------------------
	BYTE	W96
// 050   ----------------------------------------
	BYTE	PATT
	 POIN2	EdgeOfDawn_11_018
// 051   ----------------------------------------
	BYTE	PATT
	 POIN2	EdgeOfDawn_11_019
// 052   ----------------------------------------
	BYTE	PATT
	 POIN2	EdgeOfDawn_11_020
// 053   ----------------------------------------
	BYTE	PATT
	 POIN2	EdgeOfDawn_11_021
// 054   ----------------------------------------
	BYTE	PATT
	 POIN2	EdgeOfDawn_11_022
// 055   ----------------------------------------
	BYTE	PATT
	 POIN2	EdgeOfDawn_11_019
// 056   ----------------------------------------
	BYTE	PATT
	 POIN2	EdgeOfDawn_11_020
// 057   ----------------------------------------
	BYTE	PATT
	 POIN2	EdgeOfDawn_11_025
// 058   ----------------------------------------
	BYTE	W96
// 059   ----------------------------------------
	BYTE	W96
// 060   ----------------------------------------
	BYTE	W96
// 061   ----------------------------------------
	BYTE	W96
// 062   ----------------------------------------
	BYTE	W96
// 063   ----------------------------------------
	BYTE	W96
// 064   ----------------------------------------
	BYTE	W96
// 065   ----------------------------------------
	BYTE	W96
// 066   ----------------------------------------
	BYTE	W96
// 067   ----------------------------------------
	BYTE	PATT
	 POIN2	EdgeOfDawn_11_035
// 068   ----------------------------------------
	BYTE	PATT
	 POIN2	EdgeOfDawn_11_036
// 069   ----------------------------------------
	BYTE	PATT
	 POIN2	EdgeOfDawn_11_037
// 070   ----------------------------------------
	BYTE	W96
// 071   ----------------------------------------
	BYTE	PATT
	 POIN2	EdgeOfDawn_11_035
// 072   ----------------------------------------
	BYTE	PATT
	 POIN2	EdgeOfDawn_11_036
// 073   ----------------------------------------
	BYTE	W96
// 074   ----------------------------------------
	BYTE	W48
	BYTE	GoTo
	 POIN2	EdgeOfDawn_11_B1
EdgeOfDawn_11_B2:
	BYTE	FINE

//******************************************************//
	ALIGN 4

EdgeOfDawn:
	BYTE	11	// NumTrks
	BYTE	0	// NumBlks
	BYTE	EdgeOfDawn_pri	// Priority
	BYTE	EdgeOfDawn_rev	// Reverb.

	POIN2	EdgeOfDawn_grp

	POIN2	EdgeOfDawn_1
	POIN2	EdgeOfDawn_2
	POIN2	EdgeOfDawn_3
	POIN2	EdgeOfDawn_4
	POIN2	EdgeOfDawn_5
	POIN2	EdgeOfDawn_6
	POIN2	EdgeOfDawn_7
	POIN2	EdgeOfDawn_8
	POIN2	EdgeOfDawn_9
	POIN2	EdgeOfDawn_10
	POIN2	EdgeOfDawn_11

	
