//Event file generated from Sappy .s format.

	#define	songF3_grp  voicegroup000
	#define	songF3_pri  0
	#define	songF3_rev  0
	#define	songF3_mvl  127
	#define	songF3_key  0
	#define	songF3_tbs  1
	#define	songF3_exg  0
	#define	songF3_cmp  1

	// .rodata
	//	songF3
	ALIGN 4


//**************** Track 1 (Midi-Chn.0) ****************//

songF3_001:
// 000   ----------------------------------------
 BYTE   VOL   65*songF3_mvl/mxv
 BYTE   KEYSH   songF3_key+0
Label_0_01386BBC:
 BYTE   TEMPO   124*songF3_tbs/2
 BYTE   VOICE   45
 BYTE   N12  Cn3  v127
 BYTE   W12
 BYTE   Gn3
 BYTE   W12
 BYTE   Fs3
 BYTE   W12
 BYTE   Cn3
 BYTE   W12
 BYTE   Fn3
 BYTE   W12
 BYTE   Ds3
 BYTE   W12
 BYTE   Cn3
 BYTE   W12
 BYTE   Dn3
 BYTE   W12
// 001   ----------------------------------------
Label_0_01386BD2:
 BYTE   N12  Ds3  v127
 BYTE   W12
 BYTE   Fn3
 BYTE   W12
 BYTE   Ds3
 BYTE   W12
 BYTE   Cn3
 BYTE   W12
 BYTE   Dn3
 BYTE   W12
 BYTE   Cn3
 BYTE   W12
 BYTE   Cs3
 BYTE   W12
 BYTE   Bn2
 BYTE   W12
 BYTE   PEND 
// 002   ----------------------------------------
Label_0_01386BE5:
 BYTE   N12  Cn3  v127
 BYTE   W12
 BYTE   Gn3
 BYTE   W12
 BYTE   Fs3
 BYTE   W12
 BYTE   Cn3
 BYTE   W12
 BYTE   Fn3
 BYTE   W12
 BYTE   Ds3
 BYTE   W12
 BYTE   Cn3
 BYTE   W12
 BYTE   Dn3
 BYTE   W12
 BYTE   PEND 
// 003   ----------------------------------------
Label_0_01386BF8:
 BYTE   N12  Ds3  v127
 BYTE   W12
 BYTE   Fn3
 BYTE   W12
 BYTE   Ds3
 BYTE   W12
 BYTE   Cn3
 BYTE   W12
 BYTE   Dn3
 BYTE   W12
 BYTE   Cn3
 BYTE   W12
 BYTE   Cs3
 BYTE   W12
 BYTE   Gn3
 BYTE   W12
 BYTE   PEND 
// 004   ----------------------------------------
Label_0_01386C0B:
 BYTE   N12  Cn3  v127
 BYTE   W12
 BYTE   Gn2
 BYTE   W12
 BYTE   Cn3
 BYTE   W12
 BYTE   Gn3
 BYTE   W12
 BYTE   Fs3
 BYTE   W12
 BYTE   Cn3
 BYTE   W12
 BYTE   Fn3
 BYTE   W12
 BYTE   Ds3
 BYTE   W12
 BYTE   PEND 
// 005   ----------------------------------------
Label_0_01386C1E:
 BYTE   N12  Cn3  v127
 BYTE   W12
 BYTE   Dn3
 BYTE   W12
 BYTE   Ds3
 BYTE   W12
 BYTE   Fn3
 BYTE   W12
 BYTE   Ds3
 BYTE   W12
 BYTE   Cn3
 BYTE   W12
 BYTE   Dn3
 BYTE   W12
 BYTE   Cn3
 BYTE   W12
 BYTE   PEND 
// 006   ----------------------------------------
Label_0_01386C31:
 BYTE   N12  Cs3  v127
 BYTE   W12
 BYTE   Gn2
 BYTE   W12
 BYTE   Cn3
 BYTE   W12
 BYTE   Gn3
 BYTE   W12
 BYTE   Fs3
 BYTE   W12
 BYTE   Cn3
 BYTE   W12
 BYTE   Fn3
 BYTE   W12
 BYTE   Ds3
 BYTE   W12
 BYTE   PEND 
// 007   ----------------------------------------
 BYTE   Cn3
 BYTE   W12
 BYTE   Dn3
 BYTE   W12
 BYTE   Ds3
 BYTE   W12
 BYTE   Fn3
 BYTE   W12
 BYTE   Ds3
 BYTE   W12
 BYTE   Cn3
 BYTE   W12
 BYTE   Cs3
 BYTE   W12
 BYTE   Gn3
 BYTE   W12
 BYTE   PATT
  POIN2 Label_0_01386BE5
 BYTE   PATT
  POIN2 Label_0_01386BD2
 BYTE   PATT
  POIN2 Label_0_01386BE5
 BYTE   PATT
  POIN2 Label_0_01386BF8
 BYTE   PATT
  POIN2 Label_0_01386C0B
 BYTE   PATT
  POIN2 Label_0_01386C1E
 BYTE   PATT
  POIN2 Label_0_01386C31
// 008   ----------------------------------------
 BYTE   N12  Cn3  v127
 BYTE   W12
 BYTE   Dn3
 BYTE   W12
 BYTE   Ds3
 BYTE   W12
 BYTE   Fn3
 BYTE   W12
 BYTE   Ds3
 BYTE   W12
 BYTE   Cn3
 BYTE   W36
// 009   ----------------------------------------
 BYTE   W96
// 010   ----------------------------------------
 BYTE   W96
// 011   ----------------------------------------
 BYTE   W96
// 012   ----------------------------------------
 BYTE   W96
// 013   ----------------------------------------
 BYTE   W96
// 014   ----------------------------------------
 BYTE   W96
// 015   ----------------------------------------
 BYTE   W96
// 016   ----------------------------------------
 BYTE   W96
// 017   ----------------------------------------
 BYTE   W96
// 018   ----------------------------------------
 BYTE   W96
// 019   ----------------------------------------
 BYTE   W96
// 020   ----------------------------------------
 BYTE   W96
// 021   ----------------------------------------
 BYTE   W96
// 022   ----------------------------------------
 BYTE   W96
// 023   ----------------------------------------
 BYTE   W96
// 024   ----------------------------------------
 BYTE   W96
// 025   ----------------------------------------
 BYTE   W96
// 026   ----------------------------------------
 BYTE   W96
// 027   ----------------------------------------
 BYTE   W96
// 028   ----------------------------------------
 BYTE   W96
// 029   ----------------------------------------
 BYTE   W96
// 030   ----------------------------------------
 BYTE   W96
// 031   ----------------------------------------
 BYTE   W96
// 032   ----------------------------------------
 BYTE   W96
// 033   ----------------------------------------
 BYTE   W96
// 034   ----------------------------------------
 BYTE   W96
// 035   ----------------------------------------
 BYTE   W96
// 036   ----------------------------------------
 BYTE   W96
// 037   ----------------------------------------
 BYTE   W96
// 038   ----------------------------------------
 BYTE   W96
// 039   ----------------------------------------
 BYTE   W96
// 040   ----------------------------------------
 BYTE   W96
// 041   ----------------------------------------
 BYTE   W96
// 042   ----------------------------------------
 BYTE   W96
// 043   ----------------------------------------
 BYTE   TEMPO   124*songF3_tbs/2
 BYTE   W72
 BYTE   W72
// 044   ----------------------------------------
 BYTE   W72
 BYTE   W72
// 045   ----------------------------------------
 BYTE   W72
 BYTE   W72
// 046   ----------------------------------------
 BYTE   W72
 BYTE   W72
// 047   ----------------------------------------
 BYTE   TEMPO   124*songF3_tbs/2
 BYTE   W96
// 048   ----------------------------------------
 BYTE   W96
// 049   ----------------------------------------
 BYTE   W96
// 050   ----------------------------------------
 BYTE   W96
// 051   ----------------------------------------
 BYTE   W96
// 052   ----------------------------------------
 BYTE   W96
// 053   ----------------------------------------
 BYTE   W96
// 054   ----------------------------------------
 BYTE   W96
// 055   ----------------------------------------
 BYTE   W96
// 056   ----------------------------------------
 BYTE   W96
// 057   ----------------------------------------
 BYTE   W96
// 058   ----------------------------------------
 BYTE   W96
// 059   ----------------------------------------
 BYTE   W96
// 060   ----------------------------------------
 BYTE   W96
// 061   ----------------------------------------
 BYTE   W96
// 062   ----------------------------------------
 BYTE   W96
// 063   ----------------------------------------
 BYTE   W96
// 064   ----------------------------------------
 BYTE   W96
// 065   ----------------------------------------
 BYTE   W96
// 066   ----------------------------------------
 BYTE   W96
// 067   ----------------------------------------
 BYTE   GoTo
  POIN2 Label_0_01386BBC
 BYTE   FINE

//**************** Track 2 (Midi-Chn.1) ****************//

songF3_002:
// 000   ----------------------------------------
 BYTE   VOL   45*songF3_mvl/mxv
 BYTE   KEYSH   songF3_key+0
Label_1_01386CD4:
 BYTE   VOICE   11
 BYTE   N18  Cn4  v127
 BYTE   W18
 BYTE   Gn3
 BYTE   W18
 BYTE   Cn4
 BYTE   W18
 BYTE   Cs4
 BYTE   W18
 BYTE   Gn4
 BYTE   W18
 BYTE   Dn4
 BYTE   W06
// 001   ----------------------------------------
Label_1_01386CE4:
 BYTE   W12
 BYTE   N18  Cn4  v127
 BYTE   W18
 BYTE   Dn4
 BYTE   W18
 BYTE   As4
 BYTE   W18
 BYTE   Fn4
 BYTE   W18
 BYTE   Cn4
 BYTE   W12
 BYTE   PEND 
// 002   ----------------------------------------
Label_1_01386CF2:
 BYTE   W06
 BYTE   N18  Gn3  v127
 BYTE   W18
 BYTE   Cn4
 BYTE   W18
 BYTE   Cs4
 BYTE   W18
 BYTE   Gn4
 BYTE   W18
 BYTE   Dn4
 BYTE   W18
 BYTE   PEND 
// 003   ----------------------------------------
Label_1_01386D00:
 BYTE   N18  Cn4  v127
 BYTE   W18
 BYTE   Dn4
 BYTE   W18
 BYTE   As4
 BYTE   W18
 BYTE   Fn4
 BYTE   W18
 BYTE   Cn4
 BYTE   W18
 BYTE   Gn3
 BYTE   W06
 BYTE   PEND 
// 004   ----------------------------------------
Label_1_01386D0F:
 BYTE   W12
 BYTE   N18  Cn4  v127
 BYTE   W18
 BYTE   Cs4
 BYTE   W18
 BYTE   Gn4
 BYTE   W18
 BYTE   Dn4
 BYTE   W18
 BYTE   Cn4
 BYTE   W12
 BYTE   PEND 
// 005   ----------------------------------------
Label_1_01386D1D:
 BYTE   W06
 BYTE   N18  Dn4  v127
 BYTE   W18
 BYTE   As4
 BYTE   W18
 BYTE   Fn4
 BYTE   W18
 BYTE   Cn4
 BYTE   W18
 BYTE   Gn3
 BYTE   W18
 BYTE   PEND 
// 006   ----------------------------------------
Label_1_01386D2B:
 BYTE   N18  Cn4  v127
 BYTE   W18
 BYTE   Cs4
 BYTE   W18
 BYTE   Gn4
 BYTE   W18
 BYTE   Dn4
 BYTE   W18
 BYTE   Cn4
 BYTE   W18
 BYTE   Dn4
 BYTE   W06
 BYTE   PEND 
// 007   ----------------------------------------
 BYTE   W12
 BYTE   As4
 BYTE   W18
 BYTE   Fn4
 BYTE   W18
 BYTE   Cn4
 BYTE   W18
 BYTE   Gn3
 BYTE   W18
 BYTE   N12  Cn4
 BYTE   W12
// 008   ----------------------------------------
 BYTE   N18
 BYTE   W18
 BYTE   Gn3
 BYTE   W18
 BYTE   Cn4
 BYTE   W18
 BYTE   Cs4
 BYTE   W18
 BYTE   Gn4
 BYTE   W18
 BYTE   Dn4
 BYTE   W06
 BYTE   PATT
  POIN2 Label_1_01386CE4
 BYTE   PATT
  POIN2 Label_1_01386CF2
 BYTE   PATT
  POIN2 Label_1_01386D00
 BYTE   PATT
  POIN2 Label_1_01386D0F
 BYTE   PATT
  POIN2 Label_1_01386D1D
 BYTE   PATT
  POIN2 Label_1_01386D2B
// 009   ----------------------------------------
 BYTE   W12
 BYTE   N18  As4  v127
 BYTE   W18
 BYTE   Fn4
 BYTE   W18
 BYTE   Cn4
 BYTE   W18
 BYTE   N06  Gn3
 BYTE   W30
// 010   ----------------------------------------
 BYTE   W96
// 011   ----------------------------------------
 BYTE   W96
// 012   ----------------------------------------
 BYTE   W96
// 013   ----------------------------------------
 BYTE   W96
// 014   ----------------------------------------
 BYTE   W96
// 015   ----------------------------------------
 BYTE   W96
// 016   ----------------------------------------
 BYTE   W96
// 017   ----------------------------------------
 BYTE   W96
// 018   ----------------------------------------
 BYTE   W96
// 019   ----------------------------------------
 BYTE   W96
// 020   ----------------------------------------
 BYTE   W96
// 021   ----------------------------------------
 BYTE   W96
// 022   ----------------------------------------
 BYTE   W96
// 023   ----------------------------------------
 BYTE   W96
// 024   ----------------------------------------
 BYTE   W96
// 025   ----------------------------------------
 BYTE   W96
// 026   ----------------------------------------
 BYTE   W96
// 027   ----------------------------------------
 BYTE   W96
// 028   ----------------------------------------
 BYTE   W96
// 029   ----------------------------------------
 BYTE   W96
// 030   ----------------------------------------
 BYTE   W96
// 031   ----------------------------------------
 BYTE   W96
// 032   ----------------------------------------
 BYTE   W96
// 033   ----------------------------------------
 BYTE   W96
// 034   ----------------------------------------
 BYTE   W96
// 035   ----------------------------------------
 BYTE   W96
// 036   ----------------------------------------
 BYTE   W96
// 037   ----------------------------------------
 BYTE   W96
// 038   ----------------------------------------
 BYTE   W96
// 039   ----------------------------------------
 BYTE   W96
// 040   ----------------------------------------
 BYTE   W96
// 041   ----------------------------------------
 BYTE   W96
// 042   ----------------------------------------
 BYTE   W96
// 043   ----------------------------------------
 BYTE   W96
// 044   ----------------------------------------
 BYTE   W72
 BYTE   W72
// 045   ----------------------------------------
 BYTE   W72
 BYTE   W72
// 046   ----------------------------------------
 BYTE   W72
 BYTE   W72
// 047   ----------------------------------------
 BYTE   W72
 BYTE   W72
// 048   ----------------------------------------
 BYTE   W96
// 049   ----------------------------------------
 BYTE   W96
// 050   ----------------------------------------
 BYTE   W96
// 051   ----------------------------------------
 BYTE   W96
// 052   ----------------------------------------
 BYTE   W96
// 053   ----------------------------------------
 BYTE   W96
// 054   ----------------------------------------
 BYTE   W96
// 055   ----------------------------------------
 BYTE   W96
// 056   ----------------------------------------
 BYTE   W96
// 057   ----------------------------------------
 BYTE   W96
// 058   ----------------------------------------
 BYTE   W96
// 059   ----------------------------------------
 BYTE   W96
// 060   ----------------------------------------
 BYTE   W96
// 061   ----------------------------------------
 BYTE   W96
// 062   ----------------------------------------
 BYTE   W96
// 063   ----------------------------------------
 BYTE   W96
// 064   ----------------------------------------
 BYTE   W96
// 065   ----------------------------------------
 BYTE   W96
// 066   ----------------------------------------
 BYTE   W96
// 067   ----------------------------------------
 BYTE   W96
// 068   ----------------------------------------
 BYTE   GoTo
  POIN2 Label_1_01386CD4
 BYTE   FINE

//**************** Track 3 (Midi-Chn.2) ****************//

songF3_003:
// 000   ----------------------------------------
 BYTE   VOL   45*songF3_mvl/mxv
 BYTE   KEYSH   songF3_key+0
Label_2_01386DC4:
 BYTE   VOICE   100
 BYTE   N03  Fn3  v096
 BYTE   N03  As3
 BYTE   W03
 BYTE   Fs3
 BYTE   N03  Bn3
 BYTE   W03
 BYTE   TIE  Gn3
 BYTE   TIE  Cn4
 BYTE   W90
// 001   ----------------------------------------
 BYTE   W96
// 002   ----------------------------------------
 BYTE   W96
// 003   ----------------------------------------
Label_2_01386DD7:
 BYTE   W92
 BYTE   W02
 BYTE   TIE  Gs3  v096
 BYTE   TIE  Cs4
 BYTE   W02
 BYTE   PEND 
// 004   ----------------------------------------
 BYTE   EOT
 BYTE   Gn3  v072
 BYTE   W96
// 005   ----------------------------------------
 BYTE   W96
// 006   ----------------------------------------
 BYTE   W96
// 007   ----------------------------------------
 BYTE   W92
 BYTE   W03
 BYTE   Gs3  v073
 BYTE   W01
// 008   ----------------------------------------
 BYTE   N03  Fn3
 BYTE   N03  As3
 BYTE   W03
 BYTE   Fs3
 BYTE   N03  Bn3
 BYTE   W03
 BYTE   TIE  Gn3
 BYTE   TIE  Cn4
 BYTE   W90
// 009   ----------------------------------------
 BYTE   W96
// 010   ----------------------------------------
 BYTE   W96
 BYTE   PATT
  POIN2 Label_2_01386DD7
// 011   ----------------------------------------
 BYTE   EOT
 BYTE   Gn3  v072
 BYTE   W96
// 012   ----------------------------------------
 BYTE   W96
// 013   ----------------------------------------
 BYTE   W96
// 014   ----------------------------------------
 BYTE   W68
 BYTE   W03
 BYTE   Gs3  v073
 BYTE   W24
 BYTE   W01
// 015   ----------------------------------------
 BYTE   W96
// 016   ----------------------------------------
 BYTE   W96
// 017   ----------------------------------------
 BYTE   W96
// 018   ----------------------------------------
 BYTE   W96
// 019   ----------------------------------------
 BYTE   W96
// 020   ----------------------------------------
 BYTE   W96
// 021   ----------------------------------------
 BYTE   W96
// 022   ----------------------------------------
 BYTE   W96
// 023   ----------------------------------------
 BYTE   N03  Bn2  v096
 BYTE   N03  Fn3
 BYTE   W03
 BYTE   Cn3
 BYTE   N03  Fs3
 BYTE   W03
 BYTE   TIE  Cs3
 BYTE   TIE  Gn3
 BYTE   W90
// 024   ----------------------------------------
 BYTE   W96
// 025   ----------------------------------------
 BYTE   W96
// 026   ----------------------------------------
 BYTE   W96
// 027   ----------------------------------------
 BYTE   EOT
 BYTE   Cs3  v067
 BYTE   TIE  Dn3
 BYTE   TIE  Gs3
 BYTE   W96
// 028   ----------------------------------------
 BYTE   W96
// 029   ----------------------------------------
 BYTE   W96
// 030   ----------------------------------------
 BYTE   W96
// 031   ----------------------------------------
 BYTE   EOT
 BYTE   Dn3  v068
 BYTE   W96
// 032   ----------------------------------------
 BYTE   W96
// 033   ----------------------------------------
 BYTE   W96
// 034   ----------------------------------------
 BYTE   W96
// 035   ----------------------------------------
 BYTE   W96
// 036   ----------------------------------------
 BYTE   W96
// 037   ----------------------------------------
 BYTE   W96
// 038   ----------------------------------------
 BYTE   W96
// 039   ----------------------------------------
 BYTE   W96
// 040   ----------------------------------------
 BYTE   W96
// 041   ----------------------------------------
 BYTE   W96
// 042   ----------------------------------------
 BYTE   W96
// 043   ----------------------------------------
 BYTE   W96
// 044   ----------------------------------------
 BYTE   W96
// 045   ----------------------------------------
 BYTE   W96
// 046   ----------------------------------------
 BYTE   W96
// 047   ----------------------------------------
 BYTE   N36  Dn4  v127
 BYTE   W36
 BYTE   Bn4
 BYTE   W36
 BYTE   Gs4
 BYTE   W24
// 048   ----------------------------------------
 BYTE   W12
 BYTE   N12  Dn5
 BYTE   W12
 BYTE   Bn4
 BYTE   W12
 BYTE   N24
 BYTE   W24
 BYTE   W03
 BYTE   N32  Gs4
 BYTE   W32
 BYTE   W01
// 049   ----------------------------------------
 BYTE   TIE  Cs4
 BYTE   TIE  Gn4
 BYTE   W72
 BYTE   W72
// 050   ----------------------------------------
 BYTE   W72
 BYTE   W72
// 051   ----------------------------------------
 BYTE   W72
 BYTE   W72
// 052   ----------------------------------------
 BYTE   W72
 BYTE   W72
// 053   ----------------------------------------
 BYTE   EOT
 BYTE   Cs4  v079
 BYTE   TIE  Cn4
 BYTE   TIE  Gn4
 BYTE   W96
// 054   ----------------------------------------
 BYTE   W96
// 055   ----------------------------------------
 BYTE   W96
// 056   ----------------------------------------
 BYTE   W96
// 057   ----------------------------------------
 BYTE   W96
// 058   ----------------------------------------
 BYTE   W96
// 059   ----------------------------------------
 BYTE   W96
// 060   ----------------------------------------
 BYTE   W96
// 061   ----------------------------------------
 BYTE   EOT
 BYTE   Cn4  v079
 BYTE   TIE  As3
 BYTE   TIE  Fn4
 BYTE   W96
// 062   ----------------------------------------
 BYTE   W96
// 063   ----------------------------------------
 BYTE   W96
// 064   ----------------------------------------
 BYTE   W96
// 065   ----------------------------------------
 BYTE   W96
// 066   ----------------------------------------
 BYTE   W96
// 067   ----------------------------------------
 BYTE   W96
// 068   ----------------------------------------
 BYTE   W96
// 069   ----------------------------------------
 BYTE   EOT
 BYTE   As3  v077
 BYTE   W96
// 070   ----------------------------------------
 BYTE   W96
// 071   ----------------------------------------
 BYTE   W96
// 072   ----------------------------------------
 BYTE   W96
// 073   ----------------------------------------
 BYTE   GoTo
  POIN2 Label_2_01386DC4
 BYTE   FINE

//**************** Track 4 (Midi-Chn.3) ****************//

songF3_004:
// 000   ----------------------------------------
 BYTE   VOL   30*songF3_mvl/mxv
 BYTE   KEYSH   songF3_key+0
Label_3_01386E94:
 BYTE   VOICE   48
 BYTE   W96
// 001   ----------------------------------------
 BYTE   W96
// 002   ----------------------------------------
 BYTE   W96
// 003   ----------------------------------------
 BYTE   W96
// 004   ----------------------------------------
 BYTE   W96
// 005   ----------------------------------------
 BYTE   W96
// 006   ----------------------------------------
 BYTE   W96
// 007   ----------------------------------------
 BYTE   W96
// 008   ----------------------------------------
 BYTE   N12  Gn2  v096
 BYTE   N12  As2
 BYTE   W12
 BYTE   Gs2
 BYTE   N12  Bn2
 BYTE   W12
 BYTE   TIE  As2
 BYTE   TIE  Cn3
 BYTE   W72
// 009   ----------------------------------------
 BYTE   W96
// 010   ----------------------------------------
 BYTE   W96
// 011   ----------------------------------------
 BYTE   W96
// 012   ----------------------------------------
 BYTE   EOT
 BYTE   As2  v060
 BYTE   TIE  Bn2
 BYTE   TIE  Cs3
 BYTE   W96
// 013   ----------------------------------------
 BYTE   W96
// 014   ----------------------------------------
 BYTE   EOT
 BYTE   TIE
 BYTE   TIE  Gs3
 BYTE   W96
// 015   ----------------------------------------
 BYTE   W72
 BYTE   EOT
 BYTE   Bn2  v061
 BYTE   Gs3
 BYTE   W24
// 016   ----------------------------------------
 BYTE   TIE  Gn2
 BYTE   W96
// 017   ----------------------------------------
 BYTE   W96
// 018   ----------------------------------------
 BYTE   W96
// 019   ----------------------------------------
 BYTE   W96
// 020   ----------------------------------------
 BYTE   EOT
 BYTE   TIE  Gs2
 BYTE   W96
// 021   ----------------------------------------
 BYTE   W96
// 022   ----------------------------------------
 BYTE   W96
// 023   ----------------------------------------
 BYTE   W96
// 024   ----------------------------------------
 BYTE   EOT
 BYTE   TIE  As2  v116
 BYTE   W96
// 025   ----------------------------------------
 BYTE   W96
// 026   ----------------------------------------
 BYTE   W96
// 027   ----------------------------------------
 BYTE   W96
// 028   ----------------------------------------
 BYTE   EOT
 BYTE   TIE  Cn3
 BYTE   W96
// 029   ----------------------------------------
 BYTE   W96
// 030   ----------------------------------------
 BYTE   EOT
 BYTE   TIE  Cs3
 BYTE   W96
// 031   ----------------------------------------
 BYTE   W96
// 032   ----------------------------------------
 BYTE   EOT
 BYTE   TIE  Bn2
 BYTE   TIE  En3
 BYTE   W96
// 033   ----------------------------------------
 BYTE   W96
// 034   ----------------------------------------
 BYTE   EOT
 BYTE   Bn2  v064
 BYTE   TIE  Cn3
 BYTE   TIE  Fs3
 BYTE   W96
// 035   ----------------------------------------
 BYTE   W96
// 036   ----------------------------------------
 BYTE   EOT
 BYTE   Cn3  v066
 BYTE   TIE  Dn3
 BYTE   TIE  Gn3
 BYTE   W96
// 037   ----------------------------------------
 BYTE   W96
// 038   ----------------------------------------
 BYTE   EOT
 BYTE   Dn3  v067
 BYTE   TIE  En3
 BYTE   TIE  An3
 BYTE   W96
// 039   ----------------------------------------
 BYTE   W96
// 040   ----------------------------------------
 BYTE   EOT
 BYTE   En3  v069
 BYTE   TIE  Bn2
 BYTE   TIE  Ds3
 BYTE   W96
// 041   ----------------------------------------
 BYTE   W96
// 042   ----------------------------------------
 BYTE   EOT
 BYTE   Bn2  v063
 BYTE   TIE  Cn3
 BYTE   TIE  En3
 BYTE   W96
// 043   ----------------------------------------
 BYTE   W96
// 044   ----------------------------------------
 BYTE   EOT
 BYTE   Cn3  v064
 BYTE   TIE  Cs3
 BYTE   TIE  Fs3
 BYTE   W96
// 045   ----------------------------------------
 BYTE   W96
// 046   ----------------------------------------
 BYTE   EOT
 BYTE   Cs3  v066
 BYTE   TIE  An2
 BYTE   TIE  Cs3
 BYTE   W96
// 047   ----------------------------------------
 BYTE   W96
// 048   ----------------------------------------
 BYTE   EOT
 BYTE   An2  v061
 BYTE   W96
// 049   ----------------------------------------
 BYTE   W96
// 050   ----------------------------------------
 BYTE   W72
 BYTE   W72
// 051   ----------------------------------------
 BYTE   W72
 BYTE   W72
// 052   ----------------------------------------
 BYTE   W72
 BYTE   W72
// 053   ----------------------------------------
 BYTE   W72
 BYTE   W72
// 054   ----------------------------------------
 BYTE   N96  Ds3  v096
 BYTE   W96
// 055   ----------------------------------------
 BYTE   En3
 BYTE   W96
// 056   ----------------------------------------
 BYTE   Fn3
 BYTE   W96
// 057   ----------------------------------------
 BYTE   Fs3
 BYTE   W96
// 058   ----------------------------------------
 BYTE   Gn3
 BYTE   W96
// 059   ----------------------------------------
 BYTE   Gs3
 BYTE   W96
// 060   ----------------------------------------
 BYTE   An3
 BYTE   W96
// 061   ----------------------------------------
 BYTE   As3
 BYTE   W96
// 062   ----------------------------------------
 BYTE   Fs3
 BYTE   W96
// 063   ----------------------------------------
 BYTE   Gn3
 BYTE   W96
// 064   ----------------------------------------
 BYTE   Gs3
 BYTE   W96
// 065   ----------------------------------------
 BYTE   An3
 BYTE   W96
// 066   ----------------------------------------
 BYTE   As3
 BYTE   W96
// 067   ----------------------------------------
 BYTE   Bn3
 BYTE   W96
// 068   ----------------------------------------
 BYTE   Cn4
 BYTE   W96
// 069   ----------------------------------------
 BYTE   Cs4
 BYTE   W96
// 070   ----------------------------------------
 BYTE   TIE  Dn4
 BYTE   W96
// 071   ----------------------------------------
 BYTE   W96
// 072   ----------------------------------------
 BYTE   W96
// 073   ----------------------------------------
 BYTE   W96
// 074   ----------------------------------------
 BYTE   EOT
 BYTE   GoTo
  POIN2 Label_3_01386E94
 BYTE   FINE

//**************** Track 5 (Midi-Chn.4) ****************//

songF3_005:
// 000   ----------------------------------------
 BYTE   VOL   45*songF3_mvl/mxv
 BYTE   KEYSH   songF3_key+0
Label_4_01386F6C:
 BYTE   VOICE   127
 BYTE   W96
// 001   ----------------------------------------
 BYTE   W96
// 002   ----------------------------------------
 BYTE   W96
// 003   ----------------------------------------
 BYTE   W96
// 004   ----------------------------------------
 BYTE   W96
// 005   ----------------------------------------
 BYTE   W96
// 006   ----------------------------------------
 BYTE   W96
// 007   ----------------------------------------
 BYTE   W96
// 008   ----------------------------------------
 BYTE   W96
// 009   ----------------------------------------
 BYTE   W96
// 010   ----------------------------------------
 BYTE   W96
// 011   ----------------------------------------
 BYTE   W96
// 012   ----------------------------------------
 BYTE   W96
// 013   ----------------------------------------
 BYTE   W96
// 014   ----------------------------------------
 BYTE   W96
// 015   ----------------------------------------
 BYTE   W96
// 016   ----------------------------------------
Label_4_01386F7E:
 BYTE   N06  Cn1  v100
 BYTE   N02  Fs1
 BYTE   W12
 BYTE   N06  Cn1
 BYTE   W24
 BYTE   N06
 BYTE   W12
 BYTE   N06
 BYTE   W12
 BYTE   N06
 BYTE   W36
 BYTE   PEND 
// 017   ----------------------------------------
Label_4_01386F8E:
 BYTE   W12
 BYTE   N06  Cn1  v100
 BYTE   W12
 BYTE   N06
 BYTE   W06
 BYTE   N06
 BYTE   W06
 BYTE   N06
 BYTE   W06
 BYTE   N06
 BYTE   W06
 BYTE   N06
 BYTE   W12
 BYTE   N06
 BYTE   W24
 BYTE   N06
 BYTE   W12
 BYTE   PEND 
 BYTE   PATT
  POIN2 Label_4_01386F7E
 BYTE   PATT
  POIN2 Label_4_01386F8E
 BYTE   PATT
  POIN2 Label_4_01386F7E
 BYTE   PATT
  POIN2 Label_4_01386F8E
 BYTE   PATT
  POIN2 Label_4_01386F7E
 BYTE   PATT
  POIN2 Label_4_01386F8E
 BYTE   PATT
  POIN2 Label_4_01386F7E
 BYTE   PATT
  POIN2 Label_4_01386F8E
 BYTE   PATT
  POIN2 Label_4_01386F7E
 BYTE   PATT
  POIN2 Label_4_01386F8E
 BYTE   PATT
  POIN2 Label_4_01386F7E
 BYTE   PATT
  POIN2 Label_4_01386F8E
 BYTE   PATT
  POIN2 Label_4_01386F7E
 BYTE   PATT
  POIN2 Label_4_01386F8E
// 018   ----------------------------------------
 BYTE   W96
// 019   ----------------------------------------
 BYTE   W96
// 020   ----------------------------------------
 BYTE   W96
// 021   ----------------------------------------
 BYTE   W96
// 022   ----------------------------------------
 BYTE   W96
// 023   ----------------------------------------
 BYTE   W96
// 024   ----------------------------------------
 BYTE   W96
// 025   ----------------------------------------
 BYTE   W96
// 026   ----------------------------------------
 BYTE   W96
// 027   ----------------------------------------
 BYTE   W96
// 028   ----------------------------------------
 BYTE   W96
// 029   ----------------------------------------
 BYTE   W96
// 030   ----------------------------------------
 BYTE   W96
// 031   ----------------------------------------
 BYTE   W96
// 032   ----------------------------------------
 BYTE   W96
// 033   ----------------------------------------
 BYTE   W96
// 034   ----------------------------------------
 BYTE   W96
// 035   ----------------------------------------
 BYTE   W96
// 036   ----------------------------------------
 BYTE   W72
 BYTE   W72
// 037   ----------------------------------------
 BYTE   W72
 BYTE   W72
// 038   ----------------------------------------
 BYTE   W72
 BYTE   W72
// 039   ----------------------------------------
 BYTE   W72
 BYTE   W72
// 040   ----------------------------------------
 BYTE   W96
// 041   ----------------------------------------
 BYTE   W96
// 042   ----------------------------------------
 BYTE   W96
// 043   ----------------------------------------
 BYTE   W96
// 044   ----------------------------------------
 BYTE   W96
// 045   ----------------------------------------
 BYTE   W96
// 046   ----------------------------------------
 BYTE   W96
// 047   ----------------------------------------
 BYTE   W96
// 048   ----------------------------------------
 BYTE   W96
// 049   ----------------------------------------
 BYTE   W96
// 050   ----------------------------------------
 BYTE   W96
// 051   ----------------------------------------
 BYTE   W96
// 052   ----------------------------------------
 BYTE   W96
// 053   ----------------------------------------
 BYTE   W96
// 054   ----------------------------------------
 BYTE   W96
// 055   ----------------------------------------
 BYTE   W96
// 056   ----------------------------------------
 BYTE   W96
// 057   ----------------------------------------
 BYTE   W96
// 058   ----------------------------------------
 BYTE   W96
// 059   ----------------------------------------
 BYTE   W96
// 060   ----------------------------------------
 BYTE   GoTo
  POIN2 Label_4_01386F6C
 BYTE   FINE

//**************** Track 6 (Midi-Chn.5) ****************//

songF3_006:
// 000   ----------------------------------------
 BYTE   VOL   35*songF3_mvl/mxv
 BYTE   KEYSH   songF3_key+0
Label_5_01387020:
 BYTE   VOICE   48
 BYTE   W96
// 001   ----------------------------------------
 BYTE   W96
// 002   ----------------------------------------
 BYTE   W96
// 003   ----------------------------------------
 BYTE   W96
// 004   ----------------------------------------
 BYTE   W96
// 005   ----------------------------------------
 BYTE   W96
// 006   ----------------------------------------
 BYTE   W96
// 007   ----------------------------------------
 BYTE   W96
// 008   ----------------------------------------
 BYTE   W96
// 009   ----------------------------------------
 BYTE   W96
// 010   ----------------------------------------
 BYTE   W96
// 011   ----------------------------------------
 BYTE   W96
// 012   ----------------------------------------
 BYTE   W96
// 013   ----------------------------------------
 BYTE   W96
// 014   ----------------------------------------
 BYTE   W96
// 015   ----------------------------------------
 BYTE   W96
// 016   ----------------------------------------
 BYTE   N03  Gn2  v104
 BYTE   W06
 BYTE   N03
 BYTE   W06
 BYTE   N03
 BYTE   W12
 BYTE   Gs2
 BYTE   W06
 BYTE   N03
 BYTE   W06
 BYTE   N03
 BYTE   W12
 BYTE   As2
 BYTE   W06
 BYTE   N03
 BYTE   W06
 BYTE   N03
 BYTE   W12
 BYTE   Cn3
 BYTE   W06
 BYTE   N03
 BYTE   W06
 BYTE   N03
 BYTE   W12
// 017   ----------------------------------------
 BYTE   Cs3
 BYTE   W06
 BYTE   N03
 BYTE   W06
 BYTE   N03
 BYTE   W12
 BYTE   Cn3
 BYTE   W06
 BYTE   N03
 BYTE   W06
 BYTE   N03
 BYTE   W12
 BYTE   As2
 BYTE   W06
 BYTE   N03
 BYTE   W06
 BYTE   N03
 BYTE   W12
 BYTE   Cn3
 BYTE   W06
 BYTE   N03
 BYTE   W06
 BYTE   N03
 BYTE   W12
// 018   ----------------------------------------
 BYTE   Cs3
 BYTE   W06
 BYTE   N03
 BYTE   W06
 BYTE   N03
 BYTE   W12
 BYTE   Ds3
 BYTE   W06
 BYTE   N03
 BYTE   W06
 BYTE   N03
 BYTE   W12
 BYTE   En3
 BYTE   W06
 BYTE   N03
 BYTE   W06
 BYTE   N03
 BYTE   W12
 BYTE   Cn3
 BYTE   W06
 BYTE   N03
 BYTE   W06
 BYTE   N03
 BYTE   W12
// 019   ----------------------------------------
 BYTE   Bn2
 BYTE   W06
 BYTE   N03
 BYTE   W06
 BYTE   N03
 BYTE   W12
 BYTE   Cn3
 BYTE   W06
 BYTE   N03
 BYTE   W06
 BYTE   N03
 BYTE   W12
 BYTE   As2
 BYTE   W06
 BYTE   N03
 BYTE   W06
 BYTE   N03
 BYTE   W12
 BYTE   An2
 BYTE   W06
 BYTE   N03
 BYTE   W06
 BYTE   N03
 BYTE   W12
// 020   ----------------------------------------
 BYTE   Gs2
 BYTE   W06
 BYTE   N03
 BYTE   W06
 BYTE   N03
 BYTE   W12
 BYTE   Ds3
 BYTE   W06
 BYTE   N03
 BYTE   W06
 BYTE   N03
 BYTE   W12
 BYTE   Dn3
 BYTE   W06
 BYTE   N03
 BYTE   W06
 BYTE   N03
 BYTE   W12
 BYTE   Cs3
 BYTE   W06
 BYTE   N03
 BYTE   W06
 BYTE   N03
 BYTE   W12
// 021   ----------------------------------------
 BYTE   N03
 BYTE   W06
 BYTE   N03
 BYTE   W06
 BYTE   N03
 BYTE   W12
 BYTE   Fs3
 BYTE   W06
 BYTE   N03
 BYTE   W06
 BYTE   N03
 BYTE   W12
 BYTE   Fn3
 BYTE   W06
 BYTE   N03
 BYTE   W06
 BYTE   N03
 BYTE   W12
 BYTE   Ds3
 BYTE   W06
 BYTE   N03
 BYTE   W06
 BYTE   N03
 BYTE   W12
// 022   ----------------------------------------
 BYTE   Fn3
 BYTE   W06
 BYTE   N03
 BYTE   W06
 BYTE   N03
 BYTE   W12
 BYTE   An2
 BYTE   W06
 BYTE   N03
 BYTE   W06
 BYTE   N03
 BYTE   W12
 BYTE   Cn3
 BYTE   W06
 BYTE   N03
 BYTE   W06
 BYTE   N03
 BYTE   W12
 BYTE   Cs3
 BYTE   W06
 BYTE   N03
 BYTE   W06
 BYTE   N03
 BYTE   W12
// 023   ----------------------------------------
 BYTE   Ds3
 BYTE   W06
 BYTE   N03
 BYTE   W06
 BYTE   N03
 BYTE   W12
 BYTE   En3
 BYTE   W06
 BYTE   N03
 BYTE   W06
 BYTE   N03
 BYTE   W12
 BYTE   Fs3
 BYTE   W06
 BYTE   N03
 BYTE   W06
 BYTE   N03
 BYTE   W12
 BYTE   Gs3
 BYTE   W06
 BYTE   N03
 BYTE   W06
 BYTE   N03
 BYTE   W12
// 024   ----------------------------------------
 BYTE   Gn3
 BYTE   W06
 BYTE   N03
 BYTE   W06
 BYTE   N03
 BYTE   W12
 BYTE   Gs3
 BYTE   W06
 BYTE   N03
 BYTE   W06
 BYTE   N03
 BYTE   W12
 BYTE   As3
 BYTE   W06
 BYTE   N03
 BYTE   W06
 BYTE   N03
 BYTE   W12
 BYTE   Cn4
 BYTE   W06
 BYTE   N03
 BYTE   W06
 BYTE   N03
 BYTE   W12
// 025   ----------------------------------------
 BYTE   Cs4
 BYTE   W06
 BYTE   N03
 BYTE   W06
 BYTE   N03
 BYTE   W12
 BYTE   Cn4
 BYTE   W06
 BYTE   N03
 BYTE   W06
 BYTE   N03
 BYTE   W12
 BYTE   As3
 BYTE   W06
 BYTE   N03
 BYTE   W06
 BYTE   N03
 BYTE   W12
 BYTE   Cn4
 BYTE   W06
 BYTE   N03
 BYTE   W06
 BYTE   N03
 BYTE   W12
// 026   ----------------------------------------
 BYTE   Cs4
 BYTE   W06
 BYTE   N03
 BYTE   W06
 BYTE   N03
 BYTE   W12
 BYTE   Ds4
 BYTE   W06
 BYTE   N03
 BYTE   W06
 BYTE   N03
 BYTE   W12
 BYTE   En4
 BYTE   W06
 BYTE   N03
 BYTE   W06
 BYTE   N03
 BYTE   W12
 BYTE   Cn4
 BYTE   W06
 BYTE   N03
 BYTE   W06
 BYTE   N03
 BYTE   W12
// 027   ----------------------------------------
 BYTE   Bn3
 BYTE   W06
 BYTE   N03
 BYTE   W06
 BYTE   N03
 BYTE   W12
 BYTE   Cn4
 BYTE   W06
 BYTE   N03
 BYTE   W06
 BYTE   N03
 BYTE   W12
 BYTE   As3
 BYTE   W06
 BYTE   N03
 BYTE   W06
 BYTE   N03
 BYTE   W12
 BYTE   An3
 BYTE   W06
 BYTE   N03
 BYTE   W06
 BYTE   N03
 BYTE   W12
// 028   ----------------------------------------
 BYTE   Gs3
 BYTE   W06
 BYTE   N03
 BYTE   W06
 BYTE   N03
 BYTE   W12
 BYTE   Ds4
 BYTE   W06
 BYTE   N03
 BYTE   W06
 BYTE   N03
 BYTE   W12
 BYTE   Dn4
 BYTE   W06
 BYTE   N03
 BYTE   W06
 BYTE   N03
 BYTE   W12
 BYTE   Cs4
 BYTE   W06
 BYTE   N03
 BYTE   W06
 BYTE   N03
 BYTE   W12
// 029   ----------------------------------------
 BYTE   N03
 BYTE   W06
 BYTE   N03
 BYTE   W06
 BYTE   N03
 BYTE   W12
 BYTE   Fs4
 BYTE   W06
 BYTE   N03
 BYTE   W06
 BYTE   N03
 BYTE   W12
 BYTE   Fn4
 BYTE   W06
 BYTE   N03
 BYTE   W06
 BYTE   N03
 BYTE   W12
 BYTE   Ds4
 BYTE   W06
 BYTE   N03
 BYTE   W06
 BYTE   N03
 BYTE   W12
// 030   ----------------------------------------
 BYTE   Fn4
 BYTE   W06
 BYTE   N03
 BYTE   W06
 BYTE   N03
 BYTE   W12
 BYTE   An3
 BYTE   W06
 BYTE   N03
 BYTE   W06
 BYTE   N03
 BYTE   W12
 BYTE   Cn4
 BYTE   W06
 BYTE   N03
 BYTE   W06
 BYTE   N03
 BYTE   W12
 BYTE   Cs4
 BYTE   W06
 BYTE   N03
 BYTE   W06
 BYTE   N03
 BYTE   W12
// 031   ----------------------------------------
 BYTE   Ds4
 BYTE   W06
 BYTE   N03
 BYTE   W06
 BYTE   N03
 BYTE   W12
 BYTE   En4
 BYTE   W06
 BYTE   N03
 BYTE   W06
 BYTE   N03
 BYTE   W12
 BYTE   Fs4
 BYTE   W06
 BYTE   N03
 BYTE   W06
 BYTE   N03
 BYTE   W12
 BYTE   Gs4
 BYTE   W06
 BYTE   N03
 BYTE   W06
 BYTE   N03
 BYTE   W12
// 032   ----------------------------------------
 BYTE   W96
// 033   ----------------------------------------
 BYTE   W96
// 034   ----------------------------------------
 BYTE   W96
// 035   ----------------------------------------
 BYTE   W96
// 036   ----------------------------------------
 BYTE   W96
// 037   ----------------------------------------
 BYTE   W96
// 038   ----------------------------------------
 BYTE   W96
// 039   ----------------------------------------
 BYTE   W96
// 040   ----------------------------------------
 BYTE   W96
// 041   ----------------------------------------
 BYTE   W96
// 042   ----------------------------------------
 BYTE   W96
// 043   ----------------------------------------
 BYTE   W96
// 044   ----------------------------------------
 BYTE   W96
// 045   ----------------------------------------
 BYTE   W96
// 046   ----------------------------------------
 BYTE   W96
// 047   ----------------------------------------
 BYTE   W96
// 048   ----------------------------------------
 BYTE   W96
// 049   ----------------------------------------
 BYTE   W96
// 050   ----------------------------------------
Label_5_013871C6:
 BYTE   N12  Cn2  v096
 BYTE   N12  Gs3
 BYTE   W12
 BYTE   Gn2
 BYTE   N12  Gs3
 BYTE   W12
 BYTE   Cs3
 BYTE   W12
 BYTE   Cn2  v100
 BYTE   N12  Fn3  v096
 BYTE   W12
 BYTE   Gn2  v100
 BYTE   N12  Fn3  v096
 BYTE   W12
 BYTE   Cn3  v100
 BYTE   W12
 BYTE   PEND 
Label_5_013871E2:
 BYTE   N12  Cn2  v100
 BYTE   N12  Fs3  v096
 BYTE   W12
 BYTE   Gn2  v100
 BYTE   N12  Fs3  v096
 BYTE   W12
// 051   ----------------------------------------
 BYTE   Bn2  v100
 BYTE   W12
 BYTE   Cn2
 BYTE   N12  An3  v096
 BYTE   W12
 BYTE   Gn2  v100
 BYTE   N12  An3  v096
 BYTE   W12
 BYTE   As2  v100
 BYTE   W12
 BYTE   PEND 
 BYTE   PATT
  POIN2 Label_5_013871C6
 BYTE   PATT
  POIN2 Label_5_013871E2
 BYTE   PATT
  POIN2 Label_5_013871C6
 BYTE   PATT
  POIN2 Label_5_013871E2
 BYTE   PATT
  POIN2 Label_5_013871C6
 BYTE   PATT
  POIN2 Label_5_013871E2
// 052   ----------------------------------------
 BYTE   W96
// 053   ----------------------------------------
 BYTE   W96
// 054   ----------------------------------------
 BYTE   W96
// 055   ----------------------------------------
 BYTE   W96
// 056   ----------------------------------------
 BYTE   W96
// 057   ----------------------------------------
 BYTE   W96
// 058   ----------------------------------------
 BYTE   W96
// 059   ----------------------------------------
 BYTE   W96
// 060   ----------------------------------------
 BYTE   W96
// 061   ----------------------------------------
 BYTE   W96
// 062   ----------------------------------------
 BYTE   W96
// 063   ----------------------------------------
 BYTE   W96
// 064   ----------------------------------------
 BYTE   W96
// 065   ----------------------------------------
 BYTE   W96
// 066   ----------------------------------------
 BYTE   W96
// 067   ----------------------------------------
 BYTE   W96
// 068   ----------------------------------------
 BYTE   W96
// 069   ----------------------------------------
 BYTE   W96
// 070   ----------------------------------------
 BYTE   W96
// 071   ----------------------------------------
 BYTE   W96
// 072   ----------------------------------------
 BYTE   GoTo
  POIN2 Label_5_01387020
 BYTE   FINE

//**************** Track 7 (Midi-Chn.6) ****************//

songF3_007:
// 000   ----------------------------------------
 BYTE   VOL   45*songF3_mvl/mxv
 BYTE   KEYSH   songF3_key+0
Label_6_01387240:
 BYTE   VOICE   119
 BYTE   W96
// 001   ----------------------------------------
 BYTE   W96
// 002   ----------------------------------------
 BYTE   W96
// 003   ----------------------------------------
 BYTE   W96
// 004   ----------------------------------------
 BYTE   W96
// 005   ----------------------------------------
 BYTE   W96
// 006   ----------------------------------------
 BYTE   W96
// 007   ----------------------------------------
 BYTE   W96
// 008   ----------------------------------------
 BYTE   W96
// 009   ----------------------------------------
 BYTE   W96
// 010   ----------------------------------------
 BYTE   W96
// 011   ----------------------------------------
 BYTE   W96
// 012   ----------------------------------------
 BYTE   W96
// 013   ----------------------------------------
 BYTE   W96
// 014   ----------------------------------------
 BYTE   W96
// 015   ----------------------------------------
Label_6_01387251:
 BYTE   W72
 BYTE   TIE  Fn3  v104
 BYTE   W24
 BYTE   PEND 
// 016   ----------------------------------------
 BYTE   W96
// 017   ----------------------------------------
 BYTE   W48
 BYTE   EOT
 BYTE   W48
// 018   ----------------------------------------
 BYTE   W96
// 019   ----------------------------------------
 BYTE   W96
// 020   ----------------------------------------
 BYTE   W96
// 021   ----------------------------------------
 BYTE   W96
// 022   ----------------------------------------
 BYTE   W96
// 023   ----------------------------------------
 BYTE   W96
// 024   ----------------------------------------
 BYTE   W96
// 025   ----------------------------------------
 BYTE   W96
// 026   ----------------------------------------
 BYTE   W96
// 027   ----------------------------------------
 BYTE   W96
// 028   ----------------------------------------
 BYTE   W96
// 029   ----------------------------------------
 BYTE   W96
// 030   ----------------------------------------
 BYTE   W96
 BYTE   PATT
  POIN2 Label_6_01387251
// 031   ----------------------------------------
 BYTE   W96
// 032   ----------------------------------------
 BYTE   W48
 BYTE   EOT
 BYTE   Fn3
 BYTE   W48
// 033   ----------------------------------------
 BYTE   W96
// 034   ----------------------------------------
 BYTE   W96
// 035   ----------------------------------------
 BYTE   W96
// 036   ----------------------------------------
 BYTE   W96
// 037   ----------------------------------------
 BYTE   W96
// 038   ----------------------------------------
 BYTE   W96
// 039   ----------------------------------------
 BYTE   W96
// 040   ----------------------------------------
 BYTE   W96
// 041   ----------------------------------------
 BYTE   W96
// 042   ----------------------------------------
 BYTE   W96
// 043   ----------------------------------------
 BYTE   W96
// 044   ----------------------------------------
 BYTE   W96
// 045   ----------------------------------------
 BYTE   W96
// 046   ----------------------------------------
 BYTE   W96
// 047   ----------------------------------------
 BYTE   W96
 BYTE   PATT
  POIN2 Label_6_01387251
// 048   ----------------------------------------
 BYTE   W72
 BYTE   W72
// 049   ----------------------------------------
 BYTE   EOT
 BYTE   Fn3
 BYTE   W72
 BYTE   W72
// 050   ----------------------------------------
 BYTE   W72
 BYTE   W72
// 051   ----------------------------------------
 BYTE   W72
 BYTE   W72
// 052   ----------------------------------------
 BYTE   W96
// 053   ----------------------------------------
 BYTE   W96
// 054   ----------------------------------------
 BYTE   W96
// 055   ----------------------------------------
 BYTE   W96
// 056   ----------------------------------------
 BYTE   W96
// 057   ----------------------------------------
 BYTE   W96
// 058   ----------------------------------------
 BYTE   W96
// 059   ----------------------------------------
 BYTE   W96
// 060   ----------------------------------------
 BYTE   W96
// 061   ----------------------------------------
 BYTE   W96
// 062   ----------------------------------------
 BYTE   W96
// 063   ----------------------------------------
 BYTE   W96
// 064   ----------------------------------------
 BYTE   W96
// 065   ----------------------------------------
 BYTE   W96
// 066   ----------------------------------------
 BYTE   W96
// 067   ----------------------------------------
 BYTE   W96
// 068   ----------------------------------------
 BYTE   W96
// 069   ----------------------------------------
 BYTE   W96
// 070   ----------------------------------------
 BYTE   W96
// 071   ----------------------------------------
 BYTE   W96
// 072   ----------------------------------------
 BYTE   GoTo
  POIN2 Label_6_01387240
 BYTE   FINE

//**************** Track 8 (Midi-Chn.7) ****************//

songF3_008:
// 000   ----------------------------------------
 BYTE   VOL   80*songF3_mvl/mxv
 BYTE   KEYSH   songF3_key+0
Label_7_013872B0:
 BYTE   VOICE   40
 BYTE   N12  Cn1  v116
 BYTE   W36
 BYTE   N12
 BYTE   W36
 BYTE   N12
 BYTE   W24
// 001   ----------------------------------------
Label_7_013872BA:
 BYTE   W36
 BYTE   N12  Cn1  v116
 BYTE   W24
 BYTE   N36
 BYTE   W36
 BYTE   PEND 
// 002   ----------------------------------------
Label_7_013872C2:
 BYTE   N12  Cn1  v116
 BYTE   W36
 BYTE   N12
 BYTE   W36
 BYTE   N12
 BYTE   W24
 BYTE   PEND 
 BYTE   PATT
  POIN2 Label_7_013872BA
 BYTE   PATT
  POIN2 Label_7_013872C2
 BYTE   PATT
  POIN2 Label_7_013872BA
 BYTE   PATT
  POIN2 Label_7_013872C2
 BYTE   PATT
  POIN2 Label_7_013872BA
 BYTE   PATT
  POIN2 Label_7_013872C2
 BYTE   PATT
  POIN2 Label_7_013872BA
 BYTE   PATT
  POIN2 Label_7_013872C2
 BYTE   PATT
  POIN2 Label_7_013872BA
 BYTE   PATT
  POIN2 Label_7_013872C2
 BYTE   PATT
  POIN2 Label_7_013872BA
 BYTE   PATT
  POIN2 Label_7_013872C2
 BYTE   PATT
  POIN2 Label_7_013872BA
// 003   ----------------------------------------
Label_7_0138730C:
 BYTE   N12  Gn0  v116
 BYTE   W36
 BYTE   N12
 BYTE   W36
 BYTE   N12
 BYTE   W24
 BYTE   PEND 
// 004   ----------------------------------------
Label_7_01387315:
 BYTE   W36
 BYTE   N12  Gn0  v116
 BYTE   W24
 BYTE   N36
 BYTE   W36
 BYTE   PEND 
 BYTE   PATT
  POIN2 Label_7_0138730C
 BYTE   PATT
  POIN2 Label_7_01387315
// 005   ----------------------------------------
Label_7_01387327:
 BYTE   N12  Gs0  v116
 BYTE   W36
 BYTE   N12
 BYTE   W36
 BYTE   N12
 BYTE   W24
 BYTE   PEND 
// 006   ----------------------------------------
Label_7_01387330:
 BYTE   W36
 BYTE   N12  Gs0  v116
 BYTE   W24
 BYTE   N36
 BYTE   W36
 BYTE   PEND 
 BYTE   PATT
  POIN2 Label_7_01387327
 BYTE   PATT
  POIN2 Label_7_01387330
 BYTE   PATT
  POIN2 Label_7_0138730C
 BYTE   PATT
  POIN2 Label_7_01387315
 BYTE   PATT
  POIN2 Label_7_0138730C
 BYTE   PATT
  POIN2 Label_7_01387315
 BYTE   PATT
  POIN2 Label_7_01387327
 BYTE   PATT
  POIN2 Label_7_01387330
 BYTE   PATT
  POIN2 Label_7_01387327
 BYTE   PATT
  POIN2 Label_7_01387330
// 007   ----------------------------------------
 BYTE   W96
// 008   ----------------------------------------
 BYTE   W96
// 009   ----------------------------------------
 BYTE   W96
// 010   ----------------------------------------
 BYTE   W96
// 011   ----------------------------------------
 BYTE   W96
// 012   ----------------------------------------
 BYTE   W96
// 013   ----------------------------------------
 BYTE   W96
// 014   ----------------------------------------
 BYTE   W96
// 015   ----------------------------------------
 BYTE   W96
// 016   ----------------------------------------
 BYTE   W96
// 017   ----------------------------------------
 BYTE   W96
// 018   ----------------------------------------
 BYTE   W96
// 019   ----------------------------------------
 BYTE   W96
// 020   ----------------------------------------
 BYTE   W96
// 021   ----------------------------------------
 BYTE   W96
// 022   ----------------------------------------
 BYTE   W96
// 023   ----------------------------------------
 BYTE   W96
// 024   ----------------------------------------
 BYTE   W96
// 025   ----------------------------------------
Label_7_0138737C:
 BYTE   N12  As0  v116
 BYTE   W36
 BYTE   N12
 BYTE   W36
 BYTE   PEND 
Label_7_01387383:
 BYTE   N12  As0  v116
 BYTE   W48
// 026   ----------------------------------------
 BYTE   N12
 BYTE   W24
 BYTE   PEND 
 BYTE   PATT
  POIN2 Label_7_0138737C
 BYTE   PATT
  POIN2 Label_7_01387383
 BYTE   PATT
  POIN2 Label_7_0138737C
 BYTE   PATT
  POIN2 Label_7_01387383
 BYTE   PATT
  POIN2 Label_7_0138737C
 BYTE   PATT
  POIN2 Label_7_01387383
 BYTE   PATT
  POIN2 Label_7_013872C2
 BYTE   PATT
  POIN2 Label_7_013872BA
 BYTE   PATT
  POIN2 Label_7_013872C2
 BYTE   PATT
  POIN2 Label_7_013872BA
 BYTE   PATT
  POIN2 Label_7_013872C2
 BYTE   PATT
  POIN2 Label_7_013872BA
 BYTE   PATT
  POIN2 Label_7_013872C2
 BYTE   PATT
  POIN2 Label_7_013872BA
// 027   ----------------------------------------
Label_7_013873D0:
 BYTE   N12  Cs1  v116
 BYTE   W36
 BYTE   N12
 BYTE   W36
 BYTE   N12
 BYTE   W24
 BYTE   PEND 
// 028   ----------------------------------------
Label_7_013873D9:
 BYTE   W36
 BYTE   N12  Cs1  v116
 BYTE   W24
 BYTE   N36
 BYTE   W36
 BYTE   PEND 
 BYTE   PATT
  POIN2 Label_7_013873D0
 BYTE   PATT
  POIN2 Label_7_013873D9
 BYTE   PATT
  POIN2 Label_7_013873D0
 BYTE   PATT
  POIN2 Label_7_013873D9
 BYTE   PATT
  POIN2 Label_7_013873D0
 BYTE   PATT
  POIN2 Label_7_013873D9
// 029   ----------------------------------------
 BYTE   W96
// 030   ----------------------------------------
 BYTE   W96
// 031   ----------------------------------------
 BYTE   W96
// 032   ----------------------------------------
 BYTE   W96
// 033   ----------------------------------------
 BYTE   GoTo
  POIN2 Label_7_013872B0
 BYTE   FINE

//**************** Track 9 (Midi-Chn.8) ****************//

songF3_009:
// 000   ----------------------------------------
 BYTE   VOL   45*songF3_mvl/mxv
 BYTE   KEYSH   songF3_key+0
Label_8_01387410:
 BYTE   VOICE   1
 BYTE   W96
// 001   ----------------------------------------
 BYTE   W96
// 002   ----------------------------------------
 BYTE   W96
// 003   ----------------------------------------
 BYTE   W96
// 004   ----------------------------------------
 BYTE   W96
// 005   ----------------------------------------
 BYTE   W96
// 006   ----------------------------------------
 BYTE   W96
// 007   ----------------------------------------
 BYTE   W96
// 008   ----------------------------------------
 BYTE   W96
// 009   ----------------------------------------
 BYTE   W96
// 010   ----------------------------------------
 BYTE   W96
// 011   ----------------------------------------
 BYTE   W96
// 012   ----------------------------------------
 BYTE   W96
// 013   ----------------------------------------
 BYTE   W96
// 014   ----------------------------------------
 BYTE   W96
// 015   ----------------------------------------
 BYTE   W96
// 016   ----------------------------------------
 BYTE   W96
// 017   ----------------------------------------
 BYTE   W96
// 018   ----------------------------------------
 BYTE   W96
// 019   ----------------------------------------
 BYTE   W96
// 020   ----------------------------------------
 BYTE   W96
// 021   ----------------------------------------
 BYTE   W96
// 022   ----------------------------------------
 BYTE   W96
// 023   ----------------------------------------
 BYTE   W96
// 024   ----------------------------------------
 BYTE   W96
// 025   ----------------------------------------
 BYTE   W96
// 026   ----------------------------------------
 BYTE   W96
// 027   ----------------------------------------
 BYTE   W96
// 028   ----------------------------------------
 BYTE   W96
// 029   ----------------------------------------
 BYTE   W96
// 030   ----------------------------------------
 BYTE   W96
// 031   ----------------------------------------
 BYTE   W96
// 032   ----------------------------------------
Label_8_01387432:
 BYTE   N48  Gn3  v127
 BYTE   N48  En4
 BYTE   W48
 BYTE   An3
 BYTE   N48  Fs4
 BYTE   W48
 BYTE   PEND 
// 033   ----------------------------------------
Label_8_0138743D:
 BYTE   N48  Bn3  v127
 BYTE   N48  Gn4
 BYTE   W48
 BYTE   Cn4
 BYTE   N48  An4
 BYTE   W48
 BYTE   PEND 
// 034   ----------------------------------------
Label_8_01387448:
 BYTE   N48  Dn4  v127
 BYTE   N48  Bn4
 BYTE   W48
 BYTE   En4
 BYTE   N48  Cn5
 BYTE   W48
 BYTE   PEND 
// 035   ----------------------------------------
 BYTE   Fs4
 BYTE   N48  Dn5
 BYTE   W48
 BYTE   Ds4
 BYTE   N48  Cn5
 BYTE   W48
// 036   ----------------------------------------
 BYTE   As3
 BYTE   N48  As4
 BYTE   W48
 BYTE   An3
 BYTE   N48  An4
 BYTE   W48
// 037   ----------------------------------------
 BYTE   Dn3
 BYTE   N48  Dn4
 BYTE   W48
 BYTE   As3
 BYTE   N48  Gn4
 BYTE   W48
// 038   ----------------------------------------
 BYTE   Gs3
 BYTE   N48  Fn4
 BYTE   W48
 BYTE   Gn3
 BYTE   N48  En4
 BYTE   W48
// 039   ----------------------------------------
 BYTE   Dn3
 BYTE   N48  Bn3
 BYTE   W48
 BYTE   Gn3
 BYTE   N48  En4
 BYTE   W48
 BYTE   PATT
  POIN2 Label_8_01387432
 BYTE   PATT
  POIN2 Label_8_0138743D
 BYTE   PATT
  POIN2 Label_8_01387448
// 040   ----------------------------------------
 BYTE   N48  Fs4  v127
 BYTE   N48  En5
 BYTE   W48
 BYTE   An5
 BYTE   W48
// 041   ----------------------------------------
 BYTE   Gn5
 BYTE   W48
 BYTE   Fn5
 BYTE   W48
// 042   ----------------------------------------
 BYTE   An4
 BYTE   W48
 BYTE   Cn5
 BYTE   W48
// 043   ----------------------------------------
 BYTE   As4
 BYTE   W48
 BYTE   Gs4
 BYTE   W48
// 044   ----------------------------------------
 BYTE   N96  Dn4
 BYTE   W96
// 045   ----------------------------------------
 BYTE   W96
// 046   ----------------------------------------
 BYTE   W96
// 047   ----------------------------------------
 BYTE   W72
 BYTE   W72
// 048   ----------------------------------------
 BYTE   W72
 BYTE   W72
// 049   ----------------------------------------
 BYTE   W72
 BYTE   W72
// 050   ----------------------------------------
 BYTE   W72
 BYTE   W72
// 051   ----------------------------------------
Label_8_013874AB:
 BYTE   N12  Cn5  v096
 BYTE   W12
 BYTE   N06  Gn5
 BYTE   W06
 BYTE   N12  Cn5
 BYTE   W12
 BYTE   N06  Fn5
 BYTE   W06
 BYTE   N12  Cn5
 BYTE   W12
 BYTE   Ds5
 BYTE   W12
 BYTE   Dn5
 BYTE   W12
 BYTE   As4
 BYTE   W12
 BYTE   Cn5
 BYTE   W12
 BYTE   PEND 
// 052   ----------------------------------------
 BYTE   N06  Gn5
 BYTE   W06
 BYTE   N12  Cn5
 BYTE   W12
 BYTE   N06  Fn5
 BYTE   W06
 BYTE   N12  Cn5
 BYTE   W12
 BYTE   Ds5
 BYTE   W12
 BYTE   Dn5
 BYTE   W12
 BYTE   As4
 BYTE   W12
 BYTE   Cn5
 BYTE   W12
 BYTE   N06  Gn5
 BYTE   W06
 BYTE   N12  Cn5
 BYTE   W06
// 053   ----------------------------------------
 BYTE   W06
 BYTE   N06  Fn5
 BYTE   W06
 BYTE   N12  Cn5
 BYTE   W12
 BYTE   Ds5
 BYTE   W12
 BYTE   Dn5
 BYTE   W12
 BYTE   As4
 BYTE   W12
 BYTE   Cn5
 BYTE   W12
 BYTE   N06  Gn5
 BYTE   W06
 BYTE   N12  Cn5
 BYTE   W12
 BYTE   N06  Fn5
 BYTE   W06
// 054   ----------------------------------------
 BYTE   N12  Cn5
 BYTE   W12
 BYTE   Ds5
 BYTE   W12
 BYTE   Dn5
 BYTE   W12
 BYTE   As4
 BYTE   W12
 BYTE   Cn5
 BYTE   W12
 BYTE   N06  Gn5
 BYTE   W06
 BYTE   N12  Cn5
 BYTE   W12
 BYTE   N06  Fn5
 BYTE   W06
 BYTE   N12  Cn5
 BYTE   W12
// 055   ----------------------------------------
 BYTE   Ds5
 BYTE   W12
 BYTE   Dn5
 BYTE   W12
 BYTE   As4
 BYTE   W12
 BYTE   Cn5
 BYTE   W12
 BYTE   N06  Gn5
 BYTE   W06
 BYTE   N12  Cn5
 BYTE   W12
 BYTE   N06  Fn5
 BYTE   W06
 BYTE   N12  Cn5
 BYTE   W12
 BYTE   Ds5
 BYTE   W12
// 056   ----------------------------------------
 BYTE   Dn5
 BYTE   W12
 BYTE   As4
 BYTE   W12
 BYTE   Cn5
 BYTE   W12
 BYTE   N06  Gn5
 BYTE   W06
 BYTE   N12  Cn5
 BYTE   W12
 BYTE   N06  Fn5
 BYTE   W06
 BYTE   N12  Cn5
 BYTE   W12
 BYTE   Ds5
 BYTE   W12
 BYTE   Dn5
 BYTE   W12
// 057   ----------------------------------------
 BYTE   As4
 BYTE   W12
 BYTE   Cn5
 BYTE   W12
 BYTE   N06  Gn5
 BYTE   W06
 BYTE   N12  Cn5
 BYTE   W12
 BYTE   N06  Fn5
 BYTE   W06
 BYTE   N12  Cn5
 BYTE   W12
 BYTE   Ds5
 BYTE   W12
 BYTE   Dn5
 BYTE   W12
 BYTE   As4
 BYTE   W12
 BYTE   PATT
  POIN2 Label_8_013874AB
// 058   ----------------------------------------
 BYTE   N06  As4  v096
 BYTE   W12
 BYTE   Fn4
 BYTE   W06
 BYTE   As4
 BYTE   W12
 BYTE   Ds5
 BYTE   W06
 BYTE   N12  As4
 BYTE   W12
 BYTE   Cs5
 BYTE   W12
 BYTE   Cn5
 BYTE   W12
 BYTE   Gs4
 BYTE   W12
 BYTE   As4
 BYTE   W12
// 059   ----------------------------------------
 BYTE   N06
 BYTE   W06
 BYTE   Fn4
 BYTE   W06
 BYTE   As4
 BYTE   W06
 BYTE   Ds5
 BYTE   W06
 BYTE   N12  As4
 BYTE   W12
 BYTE   Cs5
 BYTE   W12
 BYTE   Cn5
 BYTE   W12
 BYTE   Gs4
 BYTE   W12
 BYTE   As4
 BYTE   W12
 BYTE   N06  Fn4
 BYTE   W06
 BYTE   As4
 BYTE   W06
// 060   ----------------------------------------
 BYTE   W06
 BYTE   Ds5
 BYTE   W06
 BYTE   N12  As4
 BYTE   W12
 BYTE   Cs5
 BYTE   W12
 BYTE   Cn5
 BYTE   W12
 BYTE   Gs4
 BYTE   W12
 BYTE   As4
 BYTE   W12
 BYTE   N06
 BYTE   W06
 BYTE   Fn4
 BYTE   W06
 BYTE   As4
 BYTE   W06
 BYTE   Ds5
 BYTE   W06
// 061   ----------------------------------------
 BYTE   N12  As4
 BYTE   W12
 BYTE   Cs5
 BYTE   W12
 BYTE   Cn5
 BYTE   W12
 BYTE   Gs4
 BYTE   W12
 BYTE   As4
 BYTE   W12
 BYTE   N06  Fn4
 BYTE   W06
 BYTE   As4
 BYTE   W12
 BYTE   Ds5
 BYTE   W06
 BYTE   N12  As4
 BYTE   W12
// 062   ----------------------------------------
 BYTE   Cs5
 BYTE   W12
 BYTE   Cn5
 BYTE   W12
 BYTE   Gs4
 BYTE   W12
 BYTE   As4
 BYTE   W12
 BYTE   N06
 BYTE   W06
 BYTE   Fn4
 BYTE   W06
 BYTE   As4
 BYTE   W06
 BYTE   Ds5
 BYTE   W06
 BYTE   N12  As4
 BYTE   W12
 BYTE   Cs5
 BYTE   W12
// 063   ----------------------------------------
 BYTE   Cn5
 BYTE   W12
 BYTE   Gs4
 BYTE   W12
 BYTE   As4
 BYTE   W12
 BYTE   N06  Fn4
 BYTE   W06
 BYTE   As4
 BYTE   W12
 BYTE   Ds5
 BYTE   W06
 BYTE   N12  As4
 BYTE   W12
 BYTE   Cs5
 BYTE   W12
 BYTE   Cn5
 BYTE   W12
// 064   ----------------------------------------
 BYTE   Gs4
 BYTE   W12
 BYTE   As4
 BYTE   W12
 BYTE   N06
 BYTE   W06
 BYTE   Fn4
 BYTE   W06
 BYTE   As4
 BYTE   W06
 BYTE   Ds5
 BYTE   W06
 BYTE   N12  As4
 BYTE   W12
 BYTE   Cs5
 BYTE   W12
 BYTE   Cn5
 BYTE   W12
 BYTE   Gs4
 BYTE   W12
// 065   ----------------------------------------
 BYTE   As4
 BYTE   W12
 BYTE   N06  Fn4
 BYTE   W06
 BYTE   As4
 BYTE   W12
 BYTE   Ds5
 BYTE   W06
 BYTE   N12  As4
 BYTE   W12
 BYTE   Cs5
 BYTE   W12
 BYTE   Cn5
 BYTE   W12
 BYTE   Gs4
 BYTE   W12
 BYTE   As4
 BYTE   W12
// 066   ----------------------------------------
Label_8_013875FE:
 BYTE   N24  As4  v096
 BYTE   N24  Gn5
 BYTE   W24
 BYTE   Gs4
 BYTE   N24  Ds5
 BYTE   W72
 BYTE   PEND 
 BYTE   PATT
  POIN2 Label_8_013875FE
 BYTE   PATT
  POIN2 Label_8_013875FE
 BYTE   PATT
  POIN2 Label_8_013875FE
// 067   ----------------------------------------
 BYTE   GoTo
  POIN2 Label_8_01387410
 BYTE   FINE

//**************** Track 10 (Midi-Chn.9) ****************//

songF3_010:
// 000   ----------------------------------------
 BYTE   VOL   45*songF3_mvl/mxv
 BYTE   KEYSH   songF3_key+0
Label_9_01387624:
 BYTE   VOICE   56
 BYTE   W96
// 001   ----------------------------------------
 BYTE   W96
// 002   ----------------------------------------
 BYTE   W96
// 003   ----------------------------------------
 BYTE   W96
// 004   ----------------------------------------
 BYTE   W96
// 005   ----------------------------------------
 BYTE   W96
// 006   ----------------------------------------
 BYTE   W96
// 007   ----------------------------------------
 BYTE   W96
// 008   ----------------------------------------
 BYTE   W96
// 009   ----------------------------------------
 BYTE   W96
// 010   ----------------------------------------
 BYTE   W96
// 011   ----------------------------------------
 BYTE   W96
// 012   ----------------------------------------
 BYTE   W96
// 013   ----------------------------------------
 BYTE   W96
// 014   ----------------------------------------
 BYTE   W96
// 015   ----------------------------------------
 BYTE   W96
// 016   ----------------------------------------
 BYTE   W96
// 017   ----------------------------------------
 BYTE   W96
// 018   ----------------------------------------
 BYTE   W96
// 019   ----------------------------------------
 BYTE   W96
// 020   ----------------------------------------
 BYTE   W96
// 021   ----------------------------------------
 BYTE   W96
// 022   ----------------------------------------
 BYTE   W96
// 023   ----------------------------------------
 BYTE   W96
// 024   ----------------------------------------
 BYTE   W96
// 025   ----------------------------------------
 BYTE   W96
// 026   ----------------------------------------
 BYTE   W96
// 027   ----------------------------------------
 BYTE   W96
// 028   ----------------------------------------
 BYTE   W96
// 029   ----------------------------------------
 BYTE   W96
// 030   ----------------------------------------
 BYTE   W96
// 031   ----------------------------------------
 BYTE   W96
// 032   ----------------------------------------
 BYTE   W96
// 033   ----------------------------------------
 BYTE   W96
// 034   ----------------------------------------
 BYTE   W96
// 035   ----------------------------------------
 BYTE   W96
// 036   ----------------------------------------
 BYTE   W96
// 037   ----------------------------------------
 BYTE   W96
// 038   ----------------------------------------
 BYTE   W96
// 039   ----------------------------------------
 BYTE   W96
// 040   ----------------------------------------
 BYTE   W96
// 041   ----------------------------------------
 BYTE   W96
// 042   ----------------------------------------
 BYTE   W96
// 043   ----------------------------------------
 BYTE   W96
// 044   ----------------------------------------
 BYTE   W96
// 045   ----------------------------------------
 BYTE   W96
// 046   ----------------------------------------
 BYTE   W96
// 047   ----------------------------------------
 BYTE   W96
// 048   ----------------------------------------
 BYTE   W96
// 049   ----------------------------------------
 BYTE   W96
// 050   ----------------------------------------
 BYTE   W72
 BYTE   W72
// 051   ----------------------------------------
 BYTE   W72
 BYTE   W72
// 052   ----------------------------------------
Label_9_0138765C:
 BYTE   N09  Gs4  v096
 BYTE   W12
 BYTE   N09
 BYTE   W24
 BYTE   Fn4
 BYTE   W12
 BYTE   N09
 BYTE   W24
 BYTE   PEND 
Label_9_01387667:
 BYTE   N09  Fs4  v096
 BYTE   W12
 BYTE   N09
 BYTE   W24
// 053   ----------------------------------------
 BYTE   An4
 BYTE   W12
 BYTE   N09
 BYTE   W24
 BYTE   PEND 
 BYTE   PATT
  POIN2 Label_9_0138765C
 BYTE   PATT
  POIN2 Label_9_01387667
// 054   ----------------------------------------
 BYTE   W96
// 055   ----------------------------------------
 BYTE   W96
// 056   ----------------------------------------
 BYTE   W96
// 057   ----------------------------------------
 BYTE   W96
// 058   ----------------------------------------
 BYTE   W96
// 059   ----------------------------------------
 BYTE   W96
// 060   ----------------------------------------
 BYTE   W96
// 061   ----------------------------------------
 BYTE   W96
// 062   ----------------------------------------
 BYTE   W96
// 063   ----------------------------------------
 BYTE   W96
// 064   ----------------------------------------
 BYTE   W96
// 065   ----------------------------------------
 BYTE   W96
// 066   ----------------------------------------
 BYTE   W96
// 067   ----------------------------------------
 BYTE   W96
// 068   ----------------------------------------
 BYTE   W96
// 069   ----------------------------------------
 BYTE   W96
// 070   ----------------------------------------
 BYTE   W96
// 071   ----------------------------------------
 BYTE   W96
// 072   ----------------------------------------
 BYTE   W96
// 073   ----------------------------------------
 BYTE   W96
// 074   ----------------------------------------
 BYTE   GoTo
  POIN2 Label_9_01387624
 BYTE   FINE

//******************************************************//
	ALIGN 4

GloryRuin:
	BYTE	10	// NumTrks
	BYTE	0	// NumBlks
	BYTE	songF3_pri	// Priority
	BYTE	songF3_rev	// Reverb.
    
	POIN2	songF3_grp
    
	POIN2	songF3_001
	POIN2	songF3_002
	POIN2	songF3_003
	POIN2	songF3_004
	POIN2	songF3_005
	POIN2	songF3_006
	POIN2	songF3_007
	POIN2	songF3_008
	POIN2	songF3_009
	POIN2	songF3_010

	
