//Event file generated from Sappy .s format.

	#define	PastBelowFlow_grp  voicegroup000
	#define	PastBelowFlow_pri  0
	#define	PastBelowFlow_rev  0
	#define	PastBelowFlow_mvl  127
	#define	PastBelowFlow_key  0
	#define	PastBelowFlow_tbs  1
	#define	PastBelowFlow_exg  0
	#define	PastBelowFlow_cmp  1

	// .rodata
	//	PastBelowFlow
	ALIGN 4

//**************** Track 1 (Midi-Chn.1) ****************//

PastBelowFlow_1:
	BYTE	KEYSH   PastBelowFlow_key+0
PastBelowFlow_1_B1:
// 000   ----------------------------------------
	BYTE	TEMPO   82*PastBelowFlow_tbs/2
	BYTE		VOICE   127
	BYTE		VOL     101*PastBelowFlow_mvl/mxv
	BYTE		N24     Cs2   v127
	BYTE	W36
	BYTE		N24   
	BYTE	W12
// 001   ----------------------------------------
	BYTE	W24
	BYTE		N24   
	BYTE	W24
// 002   ----------------------------------------
PastBelowFlow_1_002:
	BYTE		N24     Cs2   v127
	BYTE	W36
	BYTE		N24   
	BYTE	W12
	BYTE	PEND
// 003   ----------------------------------------
	BYTE	W24
	BYTE		N24   
	BYTE	W24
// 004   ----------------------------------------
	BYTE	PATT
	 POIN2	PastBelowFlow_1_002
// 005   ----------------------------------------
	BYTE	W24
	BYTE		N24     Cs2   v127
	BYTE	W24
// 006   ----------------------------------------
	BYTE	PATT
	 POIN2	PastBelowFlow_1_002
// 007   ----------------------------------------
	BYTE	W24
	BYTE		N24     Cs2   v127
	BYTE	W24
// 008   ----------------------------------------
	BYTE	PATT
	 POIN2	PastBelowFlow_1_002
// 009   ----------------------------------------
	BYTE	W24
	BYTE		N24     Cs2   v127
	BYTE	W24
// 010   ----------------------------------------
	BYTE	PATT
	 POIN2	PastBelowFlow_1_002
// 011   ----------------------------------------
	BYTE	W24
	BYTE		N24     Cs2   v127
	BYTE	W24
// 012   ----------------------------------------
	BYTE	PATT
	 POIN2	PastBelowFlow_1_002
// 013   ----------------------------------------
	BYTE	W24
	BYTE		N24     Cs2   v127
	BYTE	W24
// 014   ----------------------------------------
	BYTE	PATT
	 POIN2	PastBelowFlow_1_002
// 015   ----------------------------------------
	BYTE	W24
	BYTE		N24     Cs2   v127
	BYTE	W24
// 016   ----------------------------------------
PastBelowFlow_1_016:
	BYTE		N08     Dn1   v127
	BYTE	W24
	BYTE		N08   
	BYTE	W08
	BYTE		N08   
	BYTE	W08
	BYTE		N08   
	BYTE	W08
	BYTE	PEND
// 017   ----------------------------------------
	BYTE	PATT
	 POIN2	PastBelowFlow_1_016
// 018   ----------------------------------------
	BYTE	PATT
	 POIN2	PastBelowFlow_1_016
// 019   ----------------------------------------
	BYTE	PATT
	 POIN2	PastBelowFlow_1_016
// 020   ----------------------------------------
	BYTE	PATT
	 POIN2	PastBelowFlow_1_016
// 021   ----------------------------------------
	BYTE	PATT
	 POIN2	PastBelowFlow_1_016
// 022   ----------------------------------------
	BYTE	PATT
	 POIN2	PastBelowFlow_1_016
// 023   ----------------------------------------
PastBelowFlow_1_023:
	BYTE		N08     Dn1   v127
	BYTE	W08
	BYTE		N08   
	BYTE	W08
	BYTE		N08   
	BYTE	W08
	BYTE		N08   
	BYTE	W08
	BYTE		N08   
	BYTE	W08
	BYTE		N08   
	BYTE	W08
	BYTE	PEND
// 024   ----------------------------------------
	BYTE	PATT
	 POIN2	PastBelowFlow_1_016
// 025   ----------------------------------------
	BYTE	PATT
	 POIN2	PastBelowFlow_1_016
// 026   ----------------------------------------
	BYTE	PATT
	 POIN2	PastBelowFlow_1_016
// 027   ----------------------------------------
	BYTE	PATT
	 POIN2	PastBelowFlow_1_016
// 028   ----------------------------------------
	BYTE	PATT
	 POIN2	PastBelowFlow_1_016
// 029   ----------------------------------------
	BYTE	PATT
	 POIN2	PastBelowFlow_1_016
// 030   ----------------------------------------
	BYTE	PATT
	 POIN2	PastBelowFlow_1_016
// 031   ----------------------------------------
	BYTE	PATT
	 POIN2	PastBelowFlow_1_023
// 032   ----------------------------------------
PastBelowFlow_1_032:
	BYTE		N08     Cn1   v127
	BYTE		N08     As1 
	BYTE	W08
	BYTE		        Gs1 
	BYTE	W08
	BYTE		        Dn1 
	BYTE		N08     Fs1 
	BYTE	W08
	BYTE		        Cn1 
	BYTE		N08     As1 
	BYTE	W08
	BYTE		        Gs1 
	BYTE	W08
	BYTE		        Dn1 
	BYTE		N08     Fs1 
	BYTE	W08
	BYTE	PEND
// 033   ----------------------------------------
	BYTE	PATT
	 POIN2	PastBelowFlow_1_032
// 034   ----------------------------------------
	BYTE	PATT
	 POIN2	PastBelowFlow_1_032
// 035   ----------------------------------------
	BYTE	PATT
	 POIN2	PastBelowFlow_1_032
// 036   ----------------------------------------
	BYTE	PATT
	 POIN2	PastBelowFlow_1_032
// 037   ----------------------------------------
	BYTE	PATT
	 POIN2	PastBelowFlow_1_032
// 038   ----------------------------------------
	BYTE	PATT
	 POIN2	PastBelowFlow_1_032
// 039   ----------------------------------------
	BYTE	PATT
	 POIN2	PastBelowFlow_1_032
// 040   ----------------------------------------
	BYTE	PATT
	 POIN2	PastBelowFlow_1_032
// 041   ----------------------------------------
	BYTE	PATT
	 POIN2	PastBelowFlow_1_032
// 042   ----------------------------------------
PastBelowFlow_1_042:
	BYTE		N12     Cn1   v127
	BYTE	W12
	BYTE		        Dn1 
	BYTE	W12
	BYTE		        Cn1 
	BYTE	W12
	BYTE		        Dn1 
	BYTE	W12
	BYTE	PEND
// 043   ----------------------------------------
	BYTE	PATT
	 POIN2	PastBelowFlow_1_042
// 044   ----------------------------------------
	BYTE	PATT
	 POIN2	PastBelowFlow_1_042
// 045   ----------------------------------------
	BYTE	PATT
	 POIN2	PastBelowFlow_1_042
// 046   ----------------------------------------
	BYTE	PATT
	 POIN2	PastBelowFlow_1_042
// 047   ----------------------------------------
	BYTE	PATT
	 POIN2	PastBelowFlow_1_042
// 048   ----------------------------------------
	BYTE	PATT
	 POIN2	PastBelowFlow_1_042
// 049   ----------------------------------------
	BYTE	PATT
	 POIN2	PastBelowFlow_1_042
// 050   ----------------------------------------
PastBelowFlow_1_050:
	BYTE		N12     Cn1   v127
	BYTE		N12     Ds2 
	BYTE	W12
	BYTE		        Dn1 
	BYTE		N12     Ds2 
	BYTE	W12
	BYTE		        Cn1 
	BYTE		N12     Ds2 
	BYTE	W12
	BYTE		        Dn1 
	BYTE		N12     Ds2 
	BYTE	W12
	BYTE	PEND
// 051   ----------------------------------------
	BYTE	PATT
	 POIN2	PastBelowFlow_1_050
// 052   ----------------------------------------
	BYTE	PATT
	 POIN2	PastBelowFlow_1_050
// 053   ----------------------------------------
	BYTE	PATT
	 POIN2	PastBelowFlow_1_050
// 054   ----------------------------------------
	BYTE	PATT
	 POIN2	PastBelowFlow_1_050
// 055   ----------------------------------------
	BYTE	PATT
	 POIN2	PastBelowFlow_1_050
// 056   ----------------------------------------
	BYTE	PATT
	 POIN2	PastBelowFlow_1_050
// 057   ----------------------------------------
	BYTE	PATT
	 POIN2	PastBelowFlow_1_050
// 058   ----------------------------------------
	BYTE	PATT
	 POIN2	PastBelowFlow_1_050
// 059   ----------------------------------------
	BYTE	PATT
	 POIN2	PastBelowFlow_1_050
// 060   ----------------------------------------
	BYTE	PATT
	 POIN2	PastBelowFlow_1_050
// 061   ----------------------------------------
	BYTE	PATT
	 POIN2	PastBelowFlow_1_050
// 062   ----------------------------------------
	BYTE	PATT
	 POIN2	PastBelowFlow_1_050
// 063   ----------------------------------------
	BYTE	PATT
	 POIN2	PastBelowFlow_1_050
// 064   ----------------------------------------
	BYTE	PATT
	 POIN2	PastBelowFlow_1_050
// 065   ----------------------------------------
	BYTE	PATT
	 POIN2	PastBelowFlow_1_050
// 066   ----------------------------------------
PastBelowFlow_1_066:
	BYTE		N06     Fs1   v127
	BYTE		N48     Cs2 
	BYTE	W06
	BYTE		N06     Fs1 
	BYTE	W06
	BYTE		N06   
	BYTE	W06
	BYTE		N06   
	BYTE	W06
	BYTE		N06   
	BYTE	W06
	BYTE		N06   
	BYTE	W06
	BYTE		N06   
	BYTE	W06
	BYTE		N06   
	BYTE	W06
	BYTE	PEND
// 067   ----------------------------------------
	BYTE	PATT
	 POIN2	PastBelowFlow_1_066
// 068   ----------------------------------------
	BYTE	PATT
	 POIN2	PastBelowFlow_1_066
// 069   ----------------------------------------
	BYTE	PATT
	 POIN2	PastBelowFlow_1_066
// 070   ----------------------------------------
	BYTE	PATT
	 POIN2	PastBelowFlow_1_066
// 071   ----------------------------------------
	BYTE	PATT
	 POIN2	PastBelowFlow_1_066
// 072   ----------------------------------------
	BYTE	PATT
	 POIN2	PastBelowFlow_1_066
// 073   ----------------------------------------
	BYTE	PATT
	 POIN2	PastBelowFlow_1_066
// 074   ----------------------------------------
PastBelowFlow_1_074:
	BYTE		N12     Cn1   v127
	BYTE		N06     Fs1 
	BYTE		N48     Cs2 
	BYTE	W06
	BYTE		N06     Fs1 
	BYTE	W06
	BYTE		N12     Dn1 
	BYTE		N06     Fs1 
	BYTE	W06
	BYTE		N06   
	BYTE	W06
	BYTE		N12     Dn1 
	BYTE		N06     Fs1 
	BYTE	W06
	BYTE		N06   
	BYTE	W06
	BYTE		N12     Dn1 
	BYTE		N06     Fs1 
	BYTE	W06
	BYTE		N06   
	BYTE	W06
	BYTE	PEND
// 075   ----------------------------------------
	BYTE	PATT
	 POIN2	PastBelowFlow_1_074
// 076   ----------------------------------------
	BYTE	PATT
	 POIN2	PastBelowFlow_1_074
// 077   ----------------------------------------
	BYTE	PATT
	 POIN2	PastBelowFlow_1_074
// 078   ----------------------------------------
	BYTE	PATT
	 POIN2	PastBelowFlow_1_074
// 079   ----------------------------------------
	BYTE	PATT
	 POIN2	PastBelowFlow_1_074
// 080   ----------------------------------------
	BYTE	PATT
	 POIN2	PastBelowFlow_1_074
// 081   ----------------------------------------
	BYTE	PATT
	 POIN2	PastBelowFlow_1_074
// 082   ----------------------------------------
PastBelowFlow_1_082:
	BYTE		N06     Cn1   v127
	BYTE		N24     Cs2 
	BYTE	W06
	BYTE		N06     Fs1 
	BYTE	W06
	BYTE		        Dn1 
	BYTE	W06
	BYTE		        Fs1 
	BYTE	W06
	BYTE		        Cn1 
	BYTE		N24     Cs2 
	BYTE	W06
	BYTE		N06     Fs1 
	BYTE	W06
	BYTE		        Dn1 
	BYTE	W06
	BYTE		        Fs1 
	BYTE	W06
	BYTE	PEND
// 083   ----------------------------------------
	BYTE	PATT
	 POIN2	PastBelowFlow_1_082
// 084   ----------------------------------------
	BYTE	PATT
	 POIN2	PastBelowFlow_1_082
// 085   ----------------------------------------
	BYTE	PATT
	 POIN2	PastBelowFlow_1_082
// 086   ----------------------------------------
	BYTE	PATT
	 POIN2	PastBelowFlow_1_082
// 087   ----------------------------------------
	BYTE	PATT
	 POIN2	PastBelowFlow_1_082
// 088   ----------------------------------------
PastBelowFlow_1_088:
	BYTE		N12     Cn1   v127
	BYTE		N12     Cs2 
	BYTE	W12
	BYTE		        Cn1 
	BYTE		N12     Cs2 
	BYTE	W12
	BYTE		        Cn1 
	BYTE	W12
	BYTE		N12   
	BYTE	W12
	BYTE	PEND
// 089   ----------------------------------------
	BYTE	PATT
	 POIN2	PastBelowFlow_1_088
	BYTE	GoTo
	 POIN2	PastBelowFlow_1_B1
PastBelowFlow_1_B2:
// 090   ----------------------------------------
	BYTE	FINE

//**************** Track 2 (Midi-Chn.2) ****************//

PastBelowFlow_2:
	BYTE	KEYSH   PastBelowFlow_key+0
PastBelowFlow_2_B1:
// 000   ----------------------------------------
	BYTE		VOICE   73
	BYTE		PAN     c_v-3
	BYTE		VOL     100*PastBelowFlow_mvl/mxv
	BYTE		N03     Cn3   v104
	BYTE	W03
	BYTE		N04     Ds3   v100
	BYTE	W04
	BYTE		        Fn3   v104
	BYTE	W05
	BYTE		N03     Gs3   v108
	BYTE	W03
	BYTE		N04     As3   v112
	BYTE	W04
	BYTE		        Gs3   v104
	BYTE	W05
	BYTE		N03     Fn3   v096
	BYTE	W03
	BYTE		N04     Ds3   v088
	BYTE	W04
	BYTE		        Cs3 
	BYTE	W05
	BYTE		N03     Cn3   v084
	BYTE	W03
	BYTE		N04     Ds3   v096
	BYTE	W04
	BYTE		        Fn3   v104
	BYTE	W05
// 001   ----------------------------------------
	BYTE		N03     Fn3   v108
	BYTE	W03
	BYTE		N04     Fs3 
	BYTE	W04
	BYTE		        Gs3   v112
	BYTE	W05
	BYTE		N03     Fn3   v100
	BYTE	W03
	BYTE		N04     Ds3   v088
	BYTE	W04
	BYTE		        Cs3   v084
	BYTE	W05
	BYTE		N03     Gs3   v112
	BYTE	W03
	BYTE		N04     Fs3   v108
	BYTE	W04
	BYTE		        Fn3   v100
	BYTE	W05
	BYTE		N03   
	BYTE	W03
	BYTE		N04     Ds3   v088
	BYTE	W04
	BYTE		        Cs3   v084
	BYTE	W05
// 002   ----------------------------------------
	BYTE		N03     Cn3   v088
	BYTE	W03
	BYTE		N04     Cs3 
	BYTE	W04
	BYTE		        Ds3   v096
	BYTE	W05
	BYTE		N03     Gs3   v112
	BYTE	W03
	BYTE		N04     As3 
	BYTE	W04
	BYTE		        Gs3 
	BYTE	W05
	BYTE		N03     Fn3   v100
	BYTE	W03
	BYTE		N04     Ds3   v088
	BYTE	W04
	BYTE		        Cs3   v084
	BYTE	W05
	BYTE		N03     Cn3 
	BYTE	W03
	BYTE		N04     Cs3   v088
	BYTE	W04
	BYTE		        Fn3   v108
	BYTE	W05
// 003   ----------------------------------------
	BYTE		N03     Fn3   v112
	BYTE	W03
	BYTE		N04     Ds3   v096
	BYTE	W04
	BYTE		        Cs3   v088
	BYTE	W05
	BYTE		N03     Ds3   v096
	BYTE	W03
	BYTE		N04     Cs3   v088
	BYTE	W04
	BYTE		        Ds3   v100
	BYTE	W05
	BYTE		N03     Fn3   v108
	BYTE	W03
	BYTE		N04     Fs3   v112
	BYTE	W04
	BYTE		        Gs3 
	BYTE	W05
	BYTE		N03     Fs3   v108
	BYTE	W03
	BYTE		N04     Fn3   v104
	BYTE	W04
	BYTE		        Cs3   v084
	BYTE	W05
// 004   ----------------------------------------
	BYTE		N03     Cn3   v088
	BYTE	W03
	BYTE		N04     Ds3   v096
	BYTE	W04
	BYTE		        Gs3   v112
	BYTE	W05
	BYTE		N03   
	BYTE	W03
	BYTE		N04     As3 
	BYTE	W04
	BYTE		        Gs3 
	BYTE	W05
	BYTE		N03     Ds3   v088
	BYTE	W03
	BYTE		N04     Cs3   v084
	BYTE	W04
	BYTE		        Cn3 
	BYTE	W05
	BYTE		N03     Gs3   v112
	BYTE	W03
	BYTE		N04     Ds3   v092
	BYTE	W04
	BYTE		        Cn3   v084
	BYTE	W05
// 005   ----------------------------------------
	BYTE		N03     Gs3   v120
	BYTE	W03
	BYTE		N04     As3   v112
	BYTE	W04
	BYTE		        Gs3 
	BYTE	W05
	BYTE		N03     Ds3   v088
	BYTE	W03
	BYTE		N04     Fn3   v100
	BYTE	W04
	BYTE		        Gs3   v112
	BYTE	W05
	BYTE		N03   
	BYTE	W03
	BYTE		N04     Fn3   v096
	BYTE	W04
	BYTE		        Ds3   v088
	BYTE	W05
	BYTE		N03     Fn3   v096
	BYTE	W03
	BYTE		N04     Ds3   v088
	BYTE	W04
	BYTE		        Cs3   v084
	BYTE	W05
// 006   ----------------------------------------
	BYTE		N03     Cn3   v088
	BYTE	W03
	BYTE		N04     Ds3   v092
	BYTE	W04
	BYTE		        Gs3   v112
	BYTE	W05
	BYTE		N03   
	BYTE	W03
	BYTE		N04     As3 
	BYTE	W04
	BYTE		        Gs3 
	BYTE	W05
	BYTE		N03     Ds3   v088
	BYTE	W03
	BYTE		N04     Fn3   v096
	BYTE	W04
	BYTE		        Gs3   v112
	BYTE	W05
	BYTE		N03     Fn3   v096
	BYTE	W03
	BYTE		N04     Ds3   v088
	BYTE	W04
	BYTE		        Cs3   v084
	BYTE	W05
// 007   ----------------------------------------
	BYTE		N03     Cn3   v088
	BYTE	W03
	BYTE		N04     Ds3   v092
	BYTE	W04
	BYTE		        Gs3   v112
	BYTE	W05
	BYTE		N03     Gn3 
	BYTE	W03
	BYTE		N04     Gs3 
	BYTE	W04
	BYTE		        Cn4 
	BYTE	W05
	BYTE		N03     Gs3   v108
	BYTE	W03
	BYTE		N04     As3   v112
	BYTE	W04
	BYTE		        Ds4 
	BYTE	W05
	BYTE		N03     Gs3   v100
	BYTE	W03
	BYTE		N04     Gn3   v096
	BYTE	W04
	BYTE		        Ds3   v084
	BYTE	W05
// 008   ----------------------------------------
	BYTE		N03     Cs4   v120
	BYTE	W03
	BYTE		N04     Ds4   v112
	BYTE	W04
	BYTE		        Fn4 
	BYTE	W05
	BYTE		N03     Gs4 
	BYTE	W03
	BYTE		N04     As4 
	BYTE	W04
	BYTE		        Gs4 
	BYTE	W05
	BYTE		N03     Fn4 
	BYTE	W03
	BYTE		N04     Ds4   v104
	BYTE	W04
	BYTE		        Cs4   v092
	BYTE	W05
	BYTE		N03     Cn4   v088
	BYTE	W03
	BYTE		N04     Ds4   v100
	BYTE	W04
	BYTE		        Fn4   v112
	BYTE	W05
// 009   ----------------------------------------
	BYTE		N03     Fn4   v116
	BYTE	W03
	BYTE		N04     Fs4   v112
	BYTE	W04
	BYTE		        Gs4 
	BYTE	W05
	BYTE		N03     Fn4   v104
	BYTE	W03
	BYTE		N04     Ds4   v092
	BYTE	W04
	BYTE		        Cs4   v084
	BYTE	W05
	BYTE		N03     Gs4   v112
	BYTE	W03
	BYTE		N04     Fs4   v108
	BYTE	W04
	BYTE		        Fn4   v100
	BYTE	W05
	BYTE		N03   
	BYTE	W03
	BYTE		N04     Ds4   v088
	BYTE	W04
	BYTE		        Cs4   v084
	BYTE	W05
// 010   ----------------------------------------
	BYTE		N03     Cn4   v088
	BYTE	W03
	BYTE		N04     Cs4 
	BYTE	W04
	BYTE		        Ds4   v096
	BYTE	W05
	BYTE		N03     Gs4   v112
	BYTE	W03
	BYTE		N04     As4 
	BYTE	W04
	BYTE		        Gs4 
	BYTE	W05
	BYTE		N03     Fn4   v100
	BYTE	W03
	BYTE		N04     Ds4   v088
	BYTE	W04
	BYTE		        Cs4   v084
	BYTE	W05
	BYTE		N03     Cn4 
	BYTE	W03
	BYTE		N04     Cs4   v088
	BYTE	W04
	BYTE		        Fn4   v108
	BYTE	W05
// 011   ----------------------------------------
	BYTE		N03     Fn4   v112
	BYTE	W03
	BYTE		N04     Ds4   v096
	BYTE	W04
	BYTE		        Cs4   v088
	BYTE	W05
	BYTE		N03     Ds4   v096
	BYTE	W03
	BYTE		N04     Cs4   v088
	BYTE	W04
	BYTE		        Ds4   v100
	BYTE	W05
	BYTE		N03     Fn4   v108
	BYTE	W03
	BYTE		N04     Fs4   v112
	BYTE	W04
	BYTE		        Gs4 
	BYTE	W05
	BYTE		N03     Fs4   v108
	BYTE	W03
	BYTE		N04     Fn4   v104
	BYTE	W04
	BYTE		        Cs4   v084
	BYTE	W05
// 012   ----------------------------------------
	BYTE		N03     Cn4   v088
	BYTE	W03
	BYTE		N04     Ds4   v096
	BYTE	W04
	BYTE		        Gs4   v112
	BYTE	W05
	BYTE		N03   
	BYTE	W03
	BYTE		N04     As4 
	BYTE	W04
	BYTE		        Gs4 
	BYTE	W05
	BYTE		N03     Fn4   v096
	BYTE	W03
	BYTE		N04     Ds4   v088
	BYTE	W04
	BYTE		        Cs4   v084
	BYTE	W05
	BYTE		N03     Cn4 
	BYTE	W03
	BYTE		N04     Cs4 
	BYTE	W04
	BYTE		        Ds4   v096
	BYTE	W05
// 013   ----------------------------------------
	BYTE		N03     Gs4   v120
	BYTE	W03
	BYTE		N04     As4   v112
	BYTE	W04
	BYTE		        Gs4 
	BYTE	W05
	BYTE		N03     Ds4   v088
	BYTE	W03
	BYTE		N04     Fn4   v100
	BYTE	W04
	BYTE		        Gs4   v112
	BYTE	W05
	BYTE		N03   
	BYTE	W03
	BYTE		N04     Fs4   v100
	BYTE	W04
	BYTE		        Fn4   v096
	BYTE	W05
	BYTE		N03   
	BYTE	W03
	BYTE		N04     Ds4   v088
	BYTE	W04
	BYTE		        Cs4   v084
	BYTE	W05
// 014   ----------------------------------------
	BYTE		N03     Cn4   v088
	BYTE	W03
	BYTE		N04     Ds4   v092
	BYTE	W04
	BYTE		        Gs4   v112
	BYTE	W05
	BYTE		N03   
	BYTE	W03
	BYTE		N04     As4 
	BYTE	W04
	BYTE		        Gs4 
	BYTE	W05
	BYTE		N03     Ds4   v088
	BYTE	W03
	BYTE		N04     Fn4   v096
	BYTE	W04
	BYTE		        Gs4   v112
	BYTE	W05
	BYTE		N03     Fn4   v096
	BYTE	W03
	BYTE		N04     Ds4   v088
	BYTE	W04
	BYTE		        Cs4   v084
	BYTE	W05
// 015   ----------------------------------------
	BYTE		N03     Ds4   v096
	BYTE	W03
	BYTE		N04     Fn4   v100
	BYTE	W04
	BYTE		        Gs4   v112
	BYTE	W05
	BYTE		N03     Gn4   v108
	BYTE	W03
	BYTE		N04     Gs4   v112
	BYTE	W04
	BYTE		        Cn5 
	BYTE	W05
	BYTE		N03     Gs3   v108
	BYTE		N03     Cn4 
	BYTE		N03     Gs4 
	BYTE	W03
	BYTE		N04     Gn4   v112
	BYTE		N04     As4 
	BYTE	W04
	BYTE		        Gs4 
	BYTE		N04     Ds5 
	BYTE	W05
	BYTE		N03     Gs3   v100
	BYTE		N03     Ds4 
	BYTE		N03     Gs4 
	BYTE	W03
	BYTE		N04     Cn4   v092
	BYTE		N04     Gn4 
	BYTE	W04
	BYTE		        Ds3   v084
	BYTE		N04     Ds4 
	BYTE	W05
// 016   ----------------------------------------
	BYTE	W24
	BYTE		N24     Fn2 
	BYTE		N24     Fn3 
	BYTE	W24
// 017   ----------------------------------------
	BYTE		        Fs2   v096
	BYTE		N24     Fs3 
	BYTE	W24
	BYTE		        Gs2   v100
	BYTE		N24     Gs3 
	BYTE	W24
// 018   ----------------------------------------
	BYTE		        Fn3   v108
	BYTE		N24     As3 
	BYTE	W24
	BYTE		        Gs3   v100
	BYTE		N24     Cn4 
	BYTE	W24
// 019   ----------------------------------------
	BYTE		        As3   v108
	BYTE		N24     Ds4 
	BYTE	W24
	BYTE		        Gs2   v096
	BYTE		N24     Gs3 
	BYTE	W24
// 020   ----------------------------------------
	BYTE		        Dn3   v104
	BYTE		N24     Gn3 
	BYTE	W24
	BYTE		N12     Gs3   v100
	BYTE	W12
	BYTE		        As3 
	BYTE	W12
// 021   ----------------------------------------
	BYTE		N48     As2   v096
	BYTE		N48     Ds3 
	BYTE	W48
// 022   ----------------------------------------
	BYTE	W36
	BYTE		N03     Dn4   v100
	BYTE	W03
	BYTE		N04     Fn4 
	BYTE	W04
	BYTE		        As4   v108
	BYTE	W05
// 023   ----------------------------------------
	BYTE		N03     Dn5   v116
	BYTE	W03
	BYTE		N04     Ds5   v112
	BYTE	W04
	BYTE		        Dn5   v108
	BYTE	W05
	BYTE		N03     As4   v096
	BYTE	W03
	BYTE		N04     Fn4   v084
	BYTE	W04
	BYTE		        Dn4 
	BYTE	W05
	BYTE		N03     As3 
	BYTE	W03
	BYTE		N04     Ds4   v088
	BYTE	W04
	BYTE		        Dn4   v084
	BYTE	W05
	BYTE		N03     As3 
	BYTE	W03
	BYTE		N04     Fn3 
	BYTE	W04
	BYTE		        Dn3 
	BYTE	W05
// 024   ----------------------------------------
	BYTE	W24
	BYTE		N24     Fn2   v088
	BYTE		N24     Cn3 
	BYTE		N24     Fn3 
	BYTE	W24
// 025   ----------------------------------------
	BYTE		        Fs2   v104
	BYTE		N24     Cs3 
	BYTE		N24     Fs3 
	BYTE	W24
	BYTE		        Gs2   v100
	BYTE		N24     Fn3 
	BYTE		N24     Gs3 
	BYTE	W24
// 026   ----------------------------------------
	BYTE		        As2   v108
	BYTE		N24     Fn3 
	BYTE		N24     Fs3 
	BYTE		N24     As3 
	BYTE	W24
	BYTE		        Cn3   v100
	BYTE		N24     Gs3 
	BYTE		N24     Cn4 
	BYTE	W24
// 027   ----------------------------------------
	BYTE		        Fn3   v108
	BYTE		N24     Gs3 
	BYTE		N24     As3 
	BYTE		N24     Ds4 
	BYTE	W24
	BYTE		        Fn3   v100
	BYTE		N24     Cn4 
	BYTE		N24     Fn4 
	BYTE	W24
// 028   ----------------------------------------
	BYTE		        As3   v108
	BYTE		N24     Dn4 
	BYTE		N24     Gn4 
	BYTE	W24
	BYTE		N12     Cn4   v100
	BYTE		N12     Fn4 
	BYTE	W12
	BYTE		        Gn4   v108
	BYTE		N12     Cn5 
	BYTE	W12
// 029   ----------------------------------------
	BYTE		N48     Gn3   v104
	BYTE		N48     As3 
	BYTE		N48     Dn4 
	BYTE		N48     Gn4 
	BYTE	W48
// 030   ----------------------------------------
	BYTE	W24
	BYTE		N03     Cn4   v100
	BYTE	W03
	BYTE		N04     As3 
	BYTE	W04
	BYTE		        Cn4   v104
	BYTE	W05
	BYTE		N03     Fn4   v116
	BYTE	W03
	BYTE		N04     Dn4   v108
	BYTE	W04
	BYTE		        Fn3   v088
	BYTE	W05
// 031   ----------------------------------------
	BYTE		N03     Dn4   v120
	BYTE	W03
	BYTE		N04     As4   v124
	BYTE	W04
	BYTE		        Fn4   v120
	BYTE	W05
	BYTE		N03     As4   v124
	BYTE	W03
	BYTE		N04     Cn5 
	BYTE	W04
	BYTE		        Fn4   v112
	BYTE	W05
	BYTE		N07     Cn4   v127
	BYTE	W02
	BYTE		N05     Cn5 
	BYTE	W05
	BYTE		N07     Dn4 
	BYTE	W03
	BYTE		N05     Dn5 
	BYTE	W05
	BYTE		N08     Ds4 
	BYTE	W03
	BYTE		N05     Ds5   v112
	BYTE	W06
// 032   ----------------------------------------
	BYTE		N07     Fn4   v127
	BYTE		N07     Fn5 
	BYTE	W07
	BYTE		        Ds4 
	BYTE		N07     Ds5 
	BYTE	W08
	BYTE		N08     Cs4   v116
	BYTE		N08     Cs5 
	BYTE	W09
	BYTE		N15     Cn4   v112
	BYTE		N15     Gs4 
	BYTE		N15     Cn5 
	BYTE	W15
	BYTE		N08     Ds4   v120
	BYTE		N08     Ds5 
	BYTE	W09
// 033   ----------------------------------------
	BYTE		N07     Cs4 
	BYTE		N07     Cs5 
	BYTE	W07
	BYTE		        Cn4   v108
	BYTE		N07     Cn5 
	BYTE	W08
	BYTE		N08     Ds4   v104
	BYTE		N08     As4 
	BYTE	W09
	BYTE		N15     Cn4   v112
	BYTE		N15     Fn4 
	BYTE		N15     Cn5 
	BYTE	W15
	BYTE		N08     Gs3   v104
	BYTE		N08     Gs4 
	BYTE	W09
// 034   ----------------------------------------
	BYTE		N07     As3   v120
	BYTE		N07     As4 
	BYTE	W07
	BYTE		        Cn4 
	BYTE		N07     Cn5 
	BYTE	W08
	BYTE		N08     As3   v112
	BYTE		N08     As4 
	BYTE	W09
	BYTE		N15     Fn4   v127
	BYTE		N15     Gs4 
	BYTE		N15     Fn5 
	BYTE	W15
	BYTE		N08     Cn4   v100
	BYTE		N08     Fn4 
	BYTE	W09
// 035   ----------------------------------------
	BYTE		N07     As3   v120
	BYTE		N07     As4 
	BYTE	W07
	BYTE		        Cn4 
	BYTE		N07     Cn5 
	BYTE	W08
	BYTE		N08     As3   v112
	BYTE		N08     As4 
	BYTE	W09
	BYTE		N15     Fn4   v127
	BYTE		N15     Gs4 
	BYTE		N15     Cn5 
	BYTE		N15     Fn5 
	BYTE	W15
	BYTE		N08     As3   v100
	BYTE		N08     Fn4 
	BYTE	W09
// 036   ----------------------------------------
	BYTE		N07     As3   v120
	BYTE		N07     As4 
	BYTE	W07
	BYTE		        Bn3   v116
	BYTE		N07     Bn4 
	BYTE	W08
	BYTE		N08     As3   v112
	BYTE		N08     As4 
	BYTE	W09
	BYTE		N15     Ds4   v127
	BYTE		N15     As4 
	BYTE		N15     Ds5 
	BYTE	W15
	BYTE		N08     Cs4   v124
	BYTE		N08     Cs5 
	BYTE	W09
// 037   ----------------------------------------
	BYTE		N15     Bn3   v120
	BYTE		N15     En4 
	BYTE		N15     Bn4 
	BYTE	W15
	BYTE		N08     As3   v112
	BYTE		N08     As4 
	BYTE	W09
	BYTE		N07     Gs3   v108
	BYTE		N07     Gs4 
	BYTE	W07
	BYTE		        Gs3   v100
	BYTE		N07     Ds4 
	BYTE	W08
	BYTE		N08     Fs3   v108
	BYTE		N08     Fs4 
	BYTE	W09
// 038   ----------------------------------------
	BYTE		N07     Gs3   v124
	BYTE		N07     Gs4 
	BYTE	W07
	BYTE		        As3 
	BYTE		N07     As4 
	BYTE	W08
	BYTE		N08     Gs3   v116
	BYTE		N08     Gs4 
	BYTE	W09
	BYTE		N15     Ds4   v127
	BYTE		N15     As4 
	BYTE		N15     Ds5 
	BYTE	W15
	BYTE		N08     As3   v100
	BYTE		N08     Ds4 
	BYTE	W09
// 039   ----------------------------------------
	BYTE		N07     Gs3   v120
	BYTE		N07     Gs4 
	BYTE	W07
	BYTE		        As3 
	BYTE		N07     As4 
	BYTE	W08
	BYTE		N08     Gs3   v112
	BYTE		N08     Gs4 
	BYTE	W09
	BYTE		N15     Ds4   v127
	BYTE		N15     Gs4 
	BYTE		N15     Cn5 
	BYTE		N15     Ds5 
	BYTE	W15
	BYTE		N08     Gs3   v100
	BYTE		N08     Ds4 
	BYTE	W09
// 040   ----------------------------------------
	BYTE		        Gs4   v120
	BYTE	W07
	BYTE		        As4 
	BYTE	W08
	BYTE		        Gs4   v112
	BYTE	W09
	BYTE		N15     Ds5   v127
	BYTE	W15
	BYTE		N08     Ds4   v096
	BYTE	W09
// 041   ----------------------------------------
	BYTE		        Gs4   v112
	BYTE	W07
	BYTE		        As4 
	BYTE	W08
	BYTE		        Gs4   v104
	BYTE	W09
	BYTE		N15     Ds5   v120
	BYTE	W15
	BYTE		N08     Ds4   v088
	BYTE	W09
// 042   ----------------------------------------
	BYTE		N12     Fn2 
	BYTE		N12     Fn3 
	BYTE	W12
	BYTE		N06     Fn2   v084
	BYTE		N06     Fn3 
	BYTE	W06
	BYTE		        Fn2   v088
	BYTE		N06     Fn3 
	BYTE	W06
	BYTE		        Cn3   v108
	BYTE		N06     Cn4 
	BYTE	W06
	BYTE		        Cn3   v104
	BYTE		N06     Cn4 
	BYTE	W06
	BYTE		        As2   v100
	BYTE		N06     As3 
	BYTE	W06
	BYTE		        As2 
	BYTE		N06     As3 
	BYTE	W06
// 043   ----------------------------------------
	BYTE		        Fn3   v120
	BYTE		N06     Fn4 
	BYTE	W06
	BYTE		        Fn3   v112
	BYTE		N06     Fn4 
	BYTE	W06
	BYTE		        As2   v092
	BYTE		N06     As3 
	BYTE	W06
	BYTE		        As2 
	BYTE		N06     As3 
	BYTE	W06
	BYTE		        Cn3   v100
	BYTE		N06     Cn4 
	BYTE	W06
	BYTE		        Cn3 
	BYTE		N06     Cn4 
	BYTE	W06
	BYTE		        Cs3   v104
	BYTE		N06     Cs4 
	BYTE	W06
	BYTE		        Cs3 
	BYTE		N06     Cs4 
	BYTE	W06
// 044   ----------------------------------------
PastBelowFlow_2_044:
	BYTE		N06     Gs2   v088
	BYTE		N06     Gs3 
	BYTE	W06
	BYTE		        Gs2 
	BYTE		N06     Gs3 
	BYTE	W06
	BYTE		        Cn3   v104
	BYTE		N06     Cn4 
	BYTE	W06
	BYTE		        Cn3 
	BYTE		N06     Cn4 
	BYTE	W06
	BYTE		        Cs3   v108
	BYTE		N06     Cs4 
	BYTE	W06
	BYTE		        Cs3   v104
	BYTE		N06     Cs4 
	BYTE	W06
	BYTE		        Gs2   v088
	BYTE		N06     Gs3 
	BYTE	W06
	BYTE		        Gs2 
	BYTE		N06     Gs3 
	BYTE	W06
	BYTE	PEND
// 045   ----------------------------------------
	BYTE		        Gs3   v120
	BYTE		N06     Gs4 
	BYTE	W06
	BYTE		        Gs3   v112
	BYTE		N06     Gs4 
	BYTE	W06
	BYTE		        Cn3   v092
	BYTE		N06     Cn4 
	BYTE	W06
	BYTE		        Cn3 
	BYTE		N06     Cn4 
	BYTE	W06
	BYTE		        Cs3   v100
	BYTE		N06     Cs4 
	BYTE	W06
	BYTE		        Cs3 
	BYTE		N06     Cs4 
	BYTE	W06
	BYTE		        Ds3   v108
	BYTE		N06     Ds4 
	BYTE	W06
	BYTE		        Ds3   v104
	BYTE		N06     Ds4 
	BYTE	W06
// 046   ----------------------------------------
	BYTE		N12     Fn2   v088
	BYTE		N12     Fn3 
	BYTE	W12
	BYTE		N06     Fn2   v084
	BYTE		N06     Fn3 
	BYTE	W06
	BYTE		        Fn2 
	BYTE		N06     Fn3 
	BYTE	W06
	BYTE		        Cn3   v108
	BYTE		N06     Cn4 
	BYTE	W06
	BYTE		        Cn3 
	BYTE		N06     Cn4 
	BYTE	W06
	BYTE		        As2   v100
	BYTE		N06     As3 
	BYTE	W06
	BYTE		        As2 
	BYTE		N06     As3 
	BYTE	W06
// 047   ----------------------------------------
	BYTE		        Fn3   v120
	BYTE		N06     Fn4 
	BYTE	W06
	BYTE		        Fn3   v112
	BYTE		N06     Fn4 
	BYTE	W06
	BYTE		        As2   v088
	BYTE		N06     As3 
	BYTE	W06
	BYTE		        As2   v092
	BYTE		N06     As3 
	BYTE	W06
	BYTE		        Cn3   v100
	BYTE		N06     Cn4 
	BYTE	W06
	BYTE		        Cn3 
	BYTE		N06     Cn4 
	BYTE	W06
	BYTE		        Cs3   v104
	BYTE		N06     Cs4 
	BYTE	W06
	BYTE		        Cs3 
	BYTE		N06     Cs4 
	BYTE	W06
// 048   ----------------------------------------
	BYTE	PATT
	 POIN2	PastBelowFlow_2_044
// 049   ----------------------------------------
	BYTE		N06     Gs3   v120
	BYTE		N06     Gs4 
	BYTE	W06
	BYTE		        Gs3   v112
	BYTE		N06     Gs4 
	BYTE	W06
	BYTE		        Cn3   v092
	BYTE		N06     Cn4 
	BYTE	W06
	BYTE		        Cn3 
	BYTE		N06     Cn4 
	BYTE	W06
	BYTE		        Cs3   v100
	BYTE		N12     Fn3 
	BYTE		N06     Cs4 
	BYTE	W06
	BYTE		        Cs3   v104
	BYTE		N06     Cs4 
	BYTE	W06
	BYTE		        Ds3   v108
	BYTE		N12     As3 
	BYTE		N06     Ds4 
	BYTE	W06
	BYTE		        Ds3   v112
	BYTE		N06     Ds4 
	BYTE	W06
// 050   ----------------------------------------
	BYTE		N36     Fn3   v100
	BYTE		N36     Cn4 
	BYTE	W36
	BYTE		N12     As2   v096
	BYTE		N12     As3 
	BYTE	W12
// 051   ----------------------------------------
	BYTE		N36     Cn3   v104
	BYTE		N36     Cn4 
	BYTE	W36
	BYTE		N12     As3   v100
	BYTE		N12     Cs4 
	BYTE	W12
// 052   ----------------------------------------
	BYTE		        Cn4   v108
	BYTE		N12     Ds4 
	BYTE	W12
	BYTE		        Cs4   v104
	BYTE		N12     Fn4 
	BYTE	W12
	BYTE		N48     Gs2   v088
	BYTE		N48     Gs3 
	BYTE	W24
// 053   ----------------------------------------
	BYTE	W24
	BYTE		N24     Gs3   v100
	BYTE		N24     Cs4 
	BYTE	W24
// 054   ----------------------------------------
	BYTE		N36     Fn3   v104
	BYTE		N36     Cn4 
	BYTE	W36
	BYTE		N12     As2   v100
	BYTE		N12     As3 
	BYTE	W12
// 055   ----------------------------------------
	BYTE		N36     Cn3   v108
	BYTE		N36     Cn4 
	BYTE	W36
	BYTE		N12     Gs3   v100
	BYTE		N12     Cs4 
	BYTE	W12
// 056   ----------------------------------------
	BYTE		        Cn4   v108
	BYTE		N12     Ds4 
	BYTE	W12
	BYTE		        Cn4   v104
	BYTE		N12     Fn4 
	BYTE	W12
	BYTE		N48     Gs3 
	BYTE		N48     Cs4 
	BYTE		N48     Fn4 
	BYTE	W24
// 057   ----------------------------------------
	BYTE	W24
	BYTE		N12     Fn3   v100
	BYTE		N12     Fn4 
	BYTE	W12
	BYTE		        As3   v104
	BYTE		N12     As4 
	BYTE	W12
// 058   ----------------------------------------
	BYTE		N36     Cn4   v112
	BYTE		N36     Fn4 
	BYTE		N36     Cn5 
	BYTE	W36
	BYTE		N12     As3   v100
	BYTE		N12     Ds4 
	BYTE		N12     As4 
	BYTE	W12
// 059   ----------------------------------------
	BYTE		N36     Cn4   v108
	BYTE		N36     Fn4 
	BYTE		N36     Gs4 
	BYTE		N36     Cn5 
	BYTE	W36
	BYTE		N12     As4   v100
	BYTE		N12     Cs5 
	BYTE	W12
// 060   ----------------------------------------
	BYTE		        Gs4   v108
	BYTE		N12     Cn5 
	BYTE		N12     Ds5 
	BYTE	W12
	BYTE		        Gs4   v104
	BYTE		N12     Cs5 
	BYTE		N12     Fn5 
	BYTE	W12
	BYTE		N48     Gs3   v088
	BYTE		N48     Cn4 
	BYTE		N48     Gs4 
	BYTE	W24
// 061   ----------------------------------------
	BYTE	W24
	BYTE		N24     Fn4   v100
	BYTE		N24     As4 
	BYTE		N24     Cs5 
	BYTE	W24
// 062   ----------------------------------------
	BYTE		N36     Fn4   v104
	BYTE		N36     As4 
	BYTE		N36     Cn5 
	BYTE	W36
	BYTE		N12     As3   v100
	BYTE		N12     Cs4 
	BYTE		N12     Fn4 
	BYTE		N12     As4 
	BYTE	W12
// 063   ----------------------------------------
	BYTE		N36     Cn4   v108
	BYTE		N36     Fn4 
	BYTE		N36     Gs4 
	BYTE		N36     Cn5 
	BYTE	W36
	BYTE		N12     Gs4   v100
	BYTE		N12     As4 
	BYTE		N12     Cs5 
	BYTE	W12
// 064   ----------------------------------------
	BYTE		        Gs4   v108
	BYTE		N12     Cn5 
	BYTE		N12     Ds5 
	BYTE	W12
	BYTE		        Gs4   v104
	BYTE		N12     Cn5 
	BYTE		N12     Fn5 
	BYTE	W12
	BYTE		N24     Gs4 
	BYTE		N24     As4 
	BYTE		N24     Cs5 
	BYTE		N24     Fn5 
	BYTE	W24
// 065   ----------------------------------------
	BYTE	W24
	BYTE		N12     As2   v092
	BYTE		N12     As3 
	BYTE	W12
	BYTE		        Ds3   v100
	BYTE		N12     Ds4 
	BYTE	W12
// 066   ----------------------------------------
	BYTE		N36     Fn3   v108
	BYTE		N36     Fn4 
	BYTE	W36
	BYTE		N12     As3   v100
	BYTE		N12     Ds4 
	BYTE	W12
// 067   ----------------------------------------
	BYTE		N36     Cn4   v108
	BYTE		N36     Fn4 
	BYTE	W36
	BYTE		N12     Ds4   v100
	BYTE		N12     Fs4 
	BYTE	W12
// 068   ----------------------------------------
	BYTE		        Fn4   v108
	BYTE		N12     Gs4 
	BYTE	W12
	BYTE		        Fs4   v104
	BYTE		N12     As4 
	BYTE	W12
	BYTE		N48     Gs3   v088
	BYTE		N48     As3 
	BYTE		N48     Cs4 
	BYTE	W24
// 069   ----------------------------------------
	BYTE	W24
	BYTE		N24     As3   v100
	BYTE		N24     Cs4 
	BYTE		N24     Fs4 
	BYTE	W24
// 070   ----------------------------------------
	BYTE		N36     Gs3   v104
	BYTE		N36     As3 
	BYTE		N36     Fn4 
	BYTE	W36
	BYTE		N12     Ds3   v100
	BYTE		N12     Gs3 
	BYTE		N12     Ds4 
	BYTE	W12
// 071   ----------------------------------------
	BYTE		N36     Fn3   v108
	BYTE		N36     As3 
	BYTE		N36     Fn4 
	BYTE	W36
	BYTE		N12     Fs3   v100
	BYTE		N12     Cs4 
	BYTE		N12     Fs4 
	BYTE	W12
// 072   ----------------------------------------
	BYTE		        Gs3   v108
	BYTE		N12     Fn4 
	BYTE		N12     Gs4 
	BYTE	W12
	BYTE		        As3   v104
	BYTE		N12     Fn4 
	BYTE		N12     As4 
	BYTE	W12
	BYTE		N48     As3 
	BYTE		N48     Cs4 
	BYTE		N48     Fn4 
	BYTE		N48     As4 
	BYTE	W24
// 073   ----------------------------------------
	BYTE	W24
	BYTE		N12     Ds3   v092
	BYTE		N12     Gs3 
	BYTE	W12
	BYTE		        Gs3   v100
	BYTE		N12     Cs4 
	BYTE	W12
// 074   ----------------------------------------
	BYTE		N36     En3   v108
	BYTE		N36     Gs3 
	BYTE		N36     Ds4 
	BYTE	W36
	BYTE		N12     Fs3   v100
	BYTE		N12     Cs4 
	BYTE	W12
// 075   ----------------------------------------
	BYTE		N36     Ds3   v108
	BYTE		N36     Bn3 
	BYTE		N36     Ds4 
	BYTE	W36
	BYTE		N12     Bn3   v100
	BYTE		N12     En4 
	BYTE	W12
// 076   ----------------------------------------
	BYTE		        Bn3   v108
	BYTE		N12     Cs4 
	BYTE		N12     Fs4 
	BYTE	W12
	BYTE		        Bn3   v104
	BYTE		N12     Ds4 
	BYTE		N12     Gs4 
	BYTE	W12
	BYTE		N48     En3   v088
	BYTE		N48     Gs3 
	BYTE		N48     Bn3 
	BYTE	W24
// 077   ----------------------------------------
	BYTE	W24
	BYTE		N24     Gs3   v100
	BYTE		N24     Bn3 
	BYTE		N24     En4 
	BYTE	W24
// 078   ----------------------------------------
	BYTE		N36     Ds3   v104
	BYTE		N36     Bn3 
	BYTE		N36     Ds4 
	BYTE	W36
	BYTE		N12     Gs3   v100
	BYTE		N12     Cs4 
	BYTE	W12
// 079   ----------------------------------------
	BYTE		N36     Gs3   v108
	BYTE		N36     Bn3 
	BYTE		N36     Ds4 
	BYTE	W36
	BYTE		N12     Bn3   v100
	BYTE		N12     En4 
	BYTE	W12
// 080   ----------------------------------------
	BYTE		        Gs3   v108
	BYTE		N12     Cs4 
	BYTE		N12     Fs4 
	BYTE	W12
	BYTE		        Bn3   v104
	BYTE		N12     Ds4 
	BYTE		N12     Gs4 
	BYTE	W12
	BYTE		N48     Gs3 
	BYTE		N48     Bn3 
	BYTE		N48     Ds4 
	BYTE		N48     Gs4 
	BYTE	W24
// 081   ----------------------------------------
	BYTE	W24
	BYTE		N24     Gs3   v100
	BYTE		N24     En4 
	BYTE		N24     Gs4 
	BYTE	W24
// 082   ----------------------------------------
	BYTE		        An3   v104
	BYTE	W02
	BYTE		N21     An4 
	BYTE	W22
	BYTE		N12     Gs3   v100
	BYTE	W02
	BYTE		N09     Gs4 
	BYTE	W10
	BYTE		N36     En3   v096
	BYTE	W02
	BYTE		N32     En4 
	BYTE	W10
// 083   ----------------------------------------
	BYTE	W24
	BYTE		N24     Bn2 
	BYTE	W02
	BYTE		N21     Bn3 
	BYTE	W22
// 084   ----------------------------------------
	BYTE		N48     Cs3   v104
	BYTE	W02
	BYTE		N44     Cs4 
	BYTE	W44
	BYTE	W02
// 085   ----------------------------------------
	BYTE		N24     En3   v108
	BYTE		N24     Bn3 
	BYTE		N24     En4 
	BYTE	W24
	BYTE		        Fs3   v100
	BYTE		N24     Cs4 
	BYTE		N24     Fs4 
	BYTE	W24
// 086   ----------------------------------------
	BYTE		N96     Ds3   v104
	BYTE		N96     Fn3 
	BYTE		N96     Ds4 
	BYTE	W48
// 087   ----------------------------------------
	BYTE	W48
// 088   ----------------------------------------
	BYTE		N06     Fn3   v120
	BYTE		N06     Fn4 
	BYTE	W06
	BYTE		        Cn4 
	BYTE		N06     Cn5 
	BYTE	W06
	BYTE		        Gs3   v112
	BYTE		N06     Gs4 
	BYTE	W06
	BYTE		        Cs3   v100
	BYTE		N06     Cs4 
	BYTE	W06
	BYTE		        Cn3 
	BYTE		N06     Cn4 
	BYTE	W06
	BYTE		        Gs2   v096
	BYTE		N06     Gs3 
	BYTE	W06
	BYTE		        As2   v100
	BYTE		N06     As3 
	BYTE	W06
	BYTE		        Fn3   v127
	BYTE		N06     Fn4 
	BYTE	W06
// 089   ----------------------------------------
	BYTE	W06
	BYTE		        Fn2   v096
	BYTE		N06     Fn3 
	BYTE	W06
	BYTE		        Ds3   v127
	BYTE		N06     Ds4 
	BYTE	W06
	BYTE		        Fn2   v096
	BYTE		N06     Fn3 
	BYTE	W06
	BYTE		        Cs3   v124
	BYTE		N06     Cs4 
	BYTE	W06
	BYTE		        Fn2   v096
	BYTE		N06     Fn3 
	BYTE	W06
	BYTE		        Cn3   v124
	BYTE		N06     Cn4 
	BYTE	W06
	BYTE		        Gs2   v104
	BYTE		N06     Gs3 
	BYTE	W06
	BYTE	GoTo
	 POIN2	PastBelowFlow_2_B1
PastBelowFlow_2_B2:
// 090   ----------------------------------------
	BYTE	FINE

//**************** Track 3 (Midi-Chn.3) ****************//

PastBelowFlow_3:
	BYTE	KEYSH   PastBelowFlow_key+0
PastBelowFlow_3_B1:
// 000   ----------------------------------------
	BYTE		VOICE   60
	BYTE		PAN     c_v-3
	BYTE		VOL     100*PastBelowFlow_mvl/mxv
	BYTE		N12     Fs0   v124
	BYTE		N12     Fs1 
	BYTE	W12
	BYTE		N03     Fn2   v108
	BYTE		N03     Fn3 
	BYTE	W03
	BYTE		N04     Fn2 
	BYTE		N04     Fn3 
	BYTE	W04
	BYTE		        Fn2 
	BYTE		N04     Fn3 
	BYTE	W17
	BYTE		N12     Fs0 
	BYTE		N12     Fs1 
	BYTE	W12
// 001   ----------------------------------------
PastBelowFlow_3_001:
	BYTE		N03     Cn2   v112
	BYTE		N03     Cn3 
	BYTE	W03
	BYTE		N04     Cn2   v104
	BYTE		N04     Cn3 
	BYTE	W04
	BYTE		        Cn2 
	BYTE		N04     Cn3 
	BYTE	W17
	BYTE		N12     Fs0   v108
	BYTE		N12     Fs1 
	BYTE	W24
	BYTE	PEND
// 002   ----------------------------------------
	BYTE		        Fs0   v120
	BYTE		N12     Fs1 
	BYTE	W12
	BYTE		N03     Fn2   v112
	BYTE		N03     Fn3 
	BYTE	W03
	BYTE		N04     Fn2 
	BYTE		N04     Fn3 
	BYTE	W04
	BYTE		        Fn2   v108
	BYTE		N04     Fn3 
	BYTE	W17
	BYTE		N12     Fs0 
	BYTE		N12     Fs1 
	BYTE	W12
// 003   ----------------------------------------
	BYTE	PATT
	 POIN2	PastBelowFlow_3_001
// 004   ----------------------------------------
PastBelowFlow_3_004:
	BYTE		N12     Fn0   v120
	BYTE		N12     Fn1 
	BYTE	W12
	BYTE		N03     Ds2   v112
	BYTE		N03     Ds3 
	BYTE	W03
	BYTE		N04     Ds2 
	BYTE		N04     Ds3 
	BYTE	W04
	BYTE		        Ds2   v108
	BYTE		N04     Ds3 
	BYTE	W17
	BYTE		N12     Fn0 
	BYTE		N12     Fn1 
	BYTE	W12
	BYTE	PEND
// 005   ----------------------------------------
PastBelowFlow_3_005:
	BYTE		N03     As1   v112
	BYTE		N03     As2 
	BYTE	W03
	BYTE		N04     As1   v104
	BYTE		N04     As2 
	BYTE	W04
	BYTE		        As1 
	BYTE		N04     As2 
	BYTE	W17
	BYTE		N12     Fn0   v108
	BYTE		N12     Fn1 
	BYTE	W24
	BYTE	PEND
// 006   ----------------------------------------
	BYTE	PATT
	 POIN2	PastBelowFlow_3_004
// 007   ----------------------------------------
	BYTE	PATT
	 POIN2	PastBelowFlow_3_005
// 008   ----------------------------------------
PastBelowFlow_3_008:
	BYTE		N12     Fs0   v120
	BYTE		N12     Fs1 
	BYTE	W12
	BYTE		N03     Cn3   v112
	BYTE		N03     Ds3 
	BYTE		N03     Cn4 
	BYTE	W03
	BYTE		N04     Cn3 
	BYTE		N04     Ds3 
	BYTE		N04     Cn4 
	BYTE	W04
	BYTE		        Cn3 
	BYTE		N04     Ds3 
	BYTE		N04     Cn4 
	BYTE	W17
	BYTE		N12     Fs0   v108
	BYTE		N12     Fs1 
	BYTE	W12
	BYTE	PEND
// 009   ----------------------------------------
PastBelowFlow_3_009:
	BYTE		N03     Fn2   v112
	BYTE		N03     Gs2 
	BYTE		N03     Fn3 
	BYTE	W03
	BYTE		N04     Fn2   v104
	BYTE		N04     Gs2 
	BYTE		N04     Fn3 
	BYTE	W04
	BYTE		        Fn2 
	BYTE		N04     Gs2 
	BYTE		N04     Fn3 
	BYTE	W17
	BYTE		N12     Fs0   v108
	BYTE		N12     Fs1 
	BYTE	W24
	BYTE	PEND
// 010   ----------------------------------------
	BYTE	PATT
	 POIN2	PastBelowFlow_3_008
// 011   ----------------------------------------
	BYTE	PATT
	 POIN2	PastBelowFlow_3_009
// 012   ----------------------------------------
	BYTE		N12     Fn0   v120
	BYTE		N12     Fn1 
	BYTE	W12
	BYTE		N03     As2   v112
	BYTE		N03     Ds3 
	BYTE		N03     As3 
	BYTE	W03
	BYTE		N04     As2 
	BYTE		N04     Ds3 
	BYTE		N04     As3 
	BYTE	W04
	BYTE		        As2   v108
	BYTE		N04     Ds3 
	BYTE		N04     As3 
	BYTE	W17
	BYTE		N12     Fn0 
	BYTE		N12     Fn1 
	BYTE	W12
// 013   ----------------------------------------
PastBelowFlow_3_013:
	BYTE		N03     Ds2   v112
	BYTE		N03     Gs2 
	BYTE		N03     Ds3 
	BYTE	W03
	BYTE		N04     Ds2   v104
	BYTE		N04     Gs2 
	BYTE		N04     Ds3 
	BYTE	W04
	BYTE		        Ds2 
	BYTE		N04     Gs2 
	BYTE		N04     Ds3 
	BYTE	W17
	BYTE		N12     Fn0   v108
	BYTE		N12     Fn1 
	BYTE	W24
	BYTE	PEND
// 014   ----------------------------------------
	BYTE		        Fn0   v120
	BYTE		N12     Fn1 
	BYTE	W12
	BYTE		N03     As2   v112
	BYTE		N03     Ds3 
	BYTE		N03     As3 
	BYTE	W03
	BYTE		N04     As2 
	BYTE		N04     Ds3 
	BYTE		N04     As3 
	BYTE	W04
	BYTE		        As2 
	BYTE		N04     Ds3 
	BYTE		N04     As3 
	BYTE	W17
	BYTE		N12     Fn0   v108
	BYTE		N12     Fn1 
	BYTE	W12
// 015   ----------------------------------------
	BYTE	PATT
	 POIN2	PastBelowFlow_3_013
// 016   ----------------------------------------
	BYTE		N12     Fs0   v100
	BYTE		N12     Fs1 
	BYTE	W12
	BYTE		N03     Cn3   v112
	BYTE	W03
	BYTE		N04     Fn2   v104
	BYTE	W21
	BYTE		N03     Cn3   v108
	BYTE	W03
	BYTE		N04     Fn2   v096
	BYTE	W09
// 017   ----------------------------------------
PastBelowFlow_3_017:
	BYTE	W12
	BYTE		N03     Cs3   v108
	BYTE	W03
	BYTE		N04     Fn2   v092
	BYTE	W09
	BYTE		N12     Fs0   v088
	BYTE		N12     Fs1 
	BYTE	W12
	BYTE		N03     Cn3   v112
	BYTE	W03
	BYTE		N04     Fn2   v100
	BYTE	W09
	BYTE	PEND
// 018   ----------------------------------------
PastBelowFlow_3_018:
	BYTE		N12     Fs0   v096
	BYTE		N12     Fs1 
	BYTE	W12
	BYTE		N03     Cn3   v112
	BYTE	W03
	BYTE		N04     Fn2   v100
	BYTE	W21
	BYTE		N03     Ds3   v112
	BYTE	W03
	BYTE		N04     Gs2   v100
	BYTE	W09
	BYTE	PEND
// 019   ----------------------------------------
PastBelowFlow_3_019:
	BYTE	W12
	BYTE		N03     Cs3   v104
	BYTE	W03
	BYTE		N04     Gs2   v096
	BYTE	W09
	BYTE		N12     Fs0   v088
	BYTE		N12     Fs1 
	BYTE	W12
	BYTE		N03     Cn3   v108
	BYTE	W03
	BYTE		N04     Gs2   v100
	BYTE	W09
	BYTE	PEND
// 020   ----------------------------------------
PastBelowFlow_3_020:
	BYTE		N12     Fn0   v092
	BYTE		N12     Fn1 
	BYTE	W12
	BYTE		N03     Dn3   v112
	BYTE	W03
	BYTE		N04     Dn2   v092
	BYTE	W21
	BYTE		N03     Dn3   v112
	BYTE	W03
	BYTE		N04     Dn2   v092
	BYTE	W09
	BYTE	PEND
// 021   ----------------------------------------
PastBelowFlow_3_021:
	BYTE	W12
	BYTE		N03     Ds3   v108
	BYTE	W03
	BYTE		N04     Gs2   v096
	BYTE	W09
	BYTE		N12     Fn0   v088
	BYTE		N12     Fn1 
	BYTE	W12
	BYTE		N03     Dn3   v112
	BYTE	W03
	BYTE		N04     Dn2   v092
	BYTE	W09
	BYTE	PEND
// 022   ----------------------------------------
	BYTE		N12     Fn0   v096
	BYTE		N12     Fn1 
	BYTE	W12
	BYTE		N03     Dn3   v112
	BYTE	W03
	BYTE		N04     Dn2   v096
	BYTE	W21
	BYTE		N03     Dn3   v112
	BYTE	W03
	BYTE		N04     Dn2   v092
	BYTE	W09
// 023   ----------------------------------------
	BYTE		N24     Cn2   v116
	BYTE		N24     Gn2 
	BYTE		N24     Cn3 
	BYTE	W24
	BYTE		        Ds2   v108
	BYTE		N24     As2 
	BYTE		N24     Ds3 
	BYTE	W24
// 024   ----------------------------------------
	BYTE		N12     Fs0   v100
	BYTE		N12     Fs1 
	BYTE	W12
	BYTE		N03     Cn3   v108
	BYTE	W03
	BYTE		N04     Fn2   v096
	BYTE	W21
	BYTE		N03     Cn3   v108
	BYTE	W03
	BYTE		N04     Fn2   v096
	BYTE	W09
// 025   ----------------------------------------
	BYTE	PATT
	 POIN2	PastBelowFlow_3_017
// 026   ----------------------------------------
	BYTE	PATT
	 POIN2	PastBelowFlow_3_018
// 027   ----------------------------------------
	BYTE	PATT
	 POIN2	PastBelowFlow_3_019
// 028   ----------------------------------------
	BYTE	PATT
	 POIN2	PastBelowFlow_3_020
// 029   ----------------------------------------
	BYTE	PATT
	 POIN2	PastBelowFlow_3_021
// 030   ----------------------------------------
	BYTE		N12     Fn0   v096
	BYTE		N12     Fn1 
	BYTE	W12
	BYTE		N03     Dn3   v116
	BYTE	W03
	BYTE		N04     Fn3 
	BYTE	W04
	BYTE		        Dn4 
	BYTE	W17
	BYTE		N07     As2   v100
	BYTE	W07
	BYTE		N04     Dn3   v116
	BYTE	W05
// 031   ----------------------------------------
	BYTE		N12     As1   v112
	BYTE		N12     As2 
	BYTE	W12
	BYTE		        Dn1   v092
	BYTE		N12     Dn2 
	BYTE	W12
	BYTE		N07     Cn1   v096
	BYTE		N07     Cn2 
	BYTE	W07
	BYTE		        As0   v100
	BYTE		N07     As1 
	BYTE	W08
	BYTE		N08     Fn0 
	BYTE		N08     Fn1 
	BYTE	W09
// 032   ----------------------------------------
	BYTE		N07     Gs1   v127
	BYTE		N07     Gs2 
	BYTE	W07
	BYTE		        Ds3 
	BYTE		N07     As3 
	BYTE	W08
	BYTE		N08     Ds3 
	BYTE		N08     As3 
	BYTE	W09
	BYTE		N07     Cs1   v120
	BYTE		N07     Cs2 
	BYTE	W07
	BYTE		        Fn3   v127
	BYTE		N07     Gs3 
	BYTE	W08
	BYTE		N08     Fn3 
	BYTE		N08     Gs3 
	BYTE	W09
// 033   ----------------------------------------
	BYTE		N07     Ds1   v124
	BYTE		N07     Ds2 
	BYTE	W07
	BYTE		        Ds3   v127
	BYTE		N07     As3 
	BYTE	W08
	BYTE		N08     Ds3 
	BYTE		N08     As3 
	BYTE	W09
	BYTE		N07     Dn1   v116
	BYTE		N07     Dn2 
	BYTE	W07
	BYTE		N04     Dn3   v124
	BYTE		N04     Fn3 
	BYTE	W05
	BYTE		N03     Dn3 
	BYTE		N03     Fn3 
	BYTE	W03
	BYTE		N08     Dn3   v120
	BYTE		N08     Fn3 
	BYTE	W09
// 034   ----------------------------------------
	BYTE		N07     Fs1   v124
	BYTE		N07     Fs2 
	BYTE	W07
	BYTE		        Fs3   v127
	BYTE		N07     Gs3 
	BYTE	W08
	BYTE		N08     Fs3 
	BYTE		N08     Gs3 
	BYTE	W09
	BYTE		N07     Dn1   v116
	BYTE		N07     Dn2 
	BYTE	W07
	BYTE		        Dn3   v127
	BYTE		N07     Fn3 
	BYTE	W08
	BYTE		N08     Dn3   v124
	BYTE		N08     Fn3 
	BYTE	W09
// 035   ----------------------------------------
	BYTE		N07     Fs1 
	BYTE		N07     Fs2 
	BYTE	W07
	BYTE		        Fs3   v127
	BYTE		N07     Gs3 
	BYTE	W08
	BYTE		N08     Fs3 
	BYTE		N08     Gs3 
	BYTE	W09
	BYTE		N07     Dn1   v116
	BYTE		N07     Dn2 
	BYTE	W07
	BYTE		N04     Dn3   v127
	BYTE		N04     Fn3 
	BYTE	W05
	BYTE		N03     Dn3 
	BYTE		N03     Fn3 
	BYTE	W03
	BYTE		N08     Dn3   v124
	BYTE		N08     Fn3 
	BYTE	W09
// 036   ----------------------------------------
	BYTE		N07     Fs1 
	BYTE		N07     Fs2 
	BYTE	W07
	BYTE		        En3   v127
	BYTE		N07     Gs3 
	BYTE	W08
	BYTE		N08     En3 
	BYTE		N08     Gs3 
	BYTE	W09
	BYTE		N07     Bn0   v116
	BYTE		N07     Bn1 
	BYTE	W07
	BYTE		        Bn2   v124
	BYTE		N07     Ds3 
	BYTE	W08
	BYTE		N08     Bn2   v120
	BYTE		N08     Ds3 
	BYTE	W09
// 037   ----------------------------------------
	BYTE		N07     Cs1   v124
	BYTE		N07     Cs2 
	BYTE	W07
	BYTE		        Cs3   v127
	BYTE		N07     En3 
	BYTE	W08
	BYTE		N08     Cs3 
	BYTE		N08     En3 
	BYTE	W09
	BYTE		N07     Cn1   v116
	BYTE		N07     Cn2 
	BYTE	W07
	BYTE		N04     Cn3   v127
	BYTE		N04     Ds3 
	BYTE	W05
	BYTE		N03     Cn3 
	BYTE		N03     Ds3 
	BYTE	W03
	BYTE		N08     Cn3 
	BYTE		N08     Ds3 
	BYTE	W09
// 038   ----------------------------------------
	BYTE		N07     En1   v124
	BYTE		N07     En2 
	BYTE	W07
	BYTE		        Cs3   v127
	BYTE		N07     Fs3 
	BYTE	W08
	BYTE		N08     Cs3 
	BYTE		N08     Fs3 
	BYTE	W09
	BYTE		N07     Cn1   v116
	BYTE		N07     Cn2 
	BYTE	W07
	BYTE		        Cn3   v127
	BYTE		N07     Ds3 
	BYTE	W08
	BYTE		N08     Cn3   v124
	BYTE		N08     Ds3 
	BYTE	W09
// 039   ----------------------------------------
	BYTE		N07     En1 
	BYTE		N07     En2 
	BYTE	W07
	BYTE		        Cs3   v127
	BYTE		N07     Fs3 
	BYTE	W08
	BYTE		N08     Cs3 
	BYTE		N08     Fs3 
	BYTE	W09
	BYTE		N24     Fn1   v116
	BYTE		N24     Fn2 
	BYTE	W24
// 040   ----------------------------------------
	BYTE	W07
	BYTE		N07     Gs2   v120
	BYTE		N07     Ds3 
	BYTE	W08
	BYTE		N08     Gs2   v116
	BYTE		N08     Ds3 
	BYTE	W16
	BYTE		N07     Gs2   v112
	BYTE		N07     Ds3 
	BYTE	W08
	BYTE		N08     Gs2   v108
	BYTE		N08     Ds3 
	BYTE	W09
// 041   ----------------------------------------
	BYTE	W07
	BYTE		N07     Gs2 
	BYTE		N07     Ds3 
	BYTE	W08
	BYTE		N08     Gs2   v104
	BYTE		N08     Ds3 
	BYTE	W16
	BYTE		N07     Gs2 
	BYTE		N07     Ds3 
	BYTE	W08
	BYTE		N08     Gs2   v100
	BYTE		N08     Ds3 
	BYTE	W08
	BYTE	W01
// 042   ----------------------------------------
	BYTE		N12     As0   v108
	BYTE		N12     As1 
	BYTE	W12
	BYTE		N06     As0   v104
	BYTE	W06
	BYTE		        As1   v116
	BYTE	W18
	BYTE		N12     Fs0 
	BYTE		N12     Fs1 
	BYTE	W12
// 043   ----------------------------------------
	BYTE	W48
// 044   ----------------------------------------
	BYTE		        Gs0   v127
	BYTE		N12     Gs1 
	BYTE	W12
	BYTE		N06     Gs0   v112
	BYTE	W06
	BYTE		        Gs1   v124
	BYTE	W18
	BYTE		N12     Gs0 
	BYTE		N12     Gs1 
	BYTE	W12
// 045   ----------------------------------------
	BYTE	W24
	BYTE		        Gs0   v120
	BYTE		N12     Gs1 
	BYTE	W24
// 046   ----------------------------------------
	BYTE		        As0   v127
	BYTE		N12     As1 
	BYTE	W12
	BYTE		N06     As0   v112
	BYTE	W06
	BYTE		        As1   v127
	BYTE	W18
	BYTE		N12     Fs0   v120
	BYTE		N12     Fs1 
	BYTE	W12
// 047   ----------------------------------------
	BYTE	W48
// 048   ----------------------------------------
	BYTE		        Ds0   v124
	BYTE		N12     Ds1 
	BYTE	W12
	BYTE		N06     Ds0   v112
	BYTE	W06
	BYTE		        Ds1   v124
	BYTE	W18
	BYTE		N12     Ds0 
	BYTE		N12     Ds1 
	BYTE	W12
// 049   ----------------------------------------
	BYTE	W24
	BYTE		N24     Gs0   v120
	BYTE		N24     Gs1 
	BYTE	W24
// 050   ----------------------------------------
	BYTE		N12     As0   v127
	BYTE		N12     As1 
	BYTE	W12
	BYTE		N06     Fn1   v108
	BYTE		N06     Fn2 
	BYTE	W06
	BYTE		        Fn1   v104
	BYTE		N06     Fn2 
	BYTE	W06
	BYTE		        Cn2   v112
	BYTE		N06     Cn3 
	BYTE	W06
	BYTE		        Cn2 
	BYTE		N06     Cn3 
	BYTE	W06
	BYTE		N12     Fs0   v104
	BYTE		N12     Fs1 
	BYTE	W12
// 051   ----------------------------------------
	BYTE		N06     Fn2   v120
	BYTE		N06     Fn3 
	BYTE	W06
	BYTE		        Fn2   v112
	BYTE		N06     Fn3 
	BYTE	W06
	BYTE		        As1   v100
	BYTE		N06     As2 
	BYTE	W06
	BYTE		        As1   v096
	BYTE		N06     As2 
	BYTE	W06
	BYTE		        Cn2   v104
	BYTE		N06     Cn3 
	BYTE	W06
	BYTE		        Cn2 
	BYTE		N06     Cn3 
	BYTE	W06
	BYTE		        Cs2 
	BYTE		N06     Cs3 
	BYTE	W06
	BYTE		        Cs2 
	BYTE		N06     Cs3 
	BYTE	W06
// 052   ----------------------------------------
	BYTE		N12     Gs0   v108
	BYTE		N12     Gs1 
	BYTE	W12
	BYTE		N06     Cn2 
	BYTE		N06     Cn3 
	BYTE	W06
	BYTE		        Cn2   v104
	BYTE		N06     Cn3 
	BYTE	W06
	BYTE		        Cs2   v108
	BYTE		N06     Cs3 
	BYTE	W06
	BYTE		        Cs2 
	BYTE		N06     Cs3 
	BYTE	W06
	BYTE		N12     Gs0   v100
	BYTE		N12     Gs1 
	BYTE	W12
// 053   ----------------------------------------
PastBelowFlow_3_053:
	BYTE		N06     Gs2   v120
	BYTE		N06     Gs3 
	BYTE	W06
	BYTE		        Gs2   v112
	BYTE		N06     Gs3 
	BYTE	W06
	BYTE		        Cn2   v096
	BYTE		N06     Cn3 
	BYTE	W06
	BYTE		        Cn2 
	BYTE		N06     Cn3 
	BYTE	W06
	BYTE		N12     Gs0   v100
	BYTE		N12     Gs1 
	BYTE	W12
	BYTE		N06     Ds2   v108
	BYTE		N06     Ds3 
	BYTE	W06
	BYTE		        Ds2 
	BYTE		N06     Ds3 
	BYTE	W06
	BYTE	PEND
// 054   ----------------------------------------
	BYTE		N12     As0 
	BYTE		N12     As1 
	BYTE	W12
	BYTE		N06     Fn1   v088
	BYTE		N06     Fn2 
	BYTE	W06
	BYTE		        Fn1   v092
	BYTE		N06     Fn2 
	BYTE	W06
	BYTE		        Cn2   v112
	BYTE		N06     Cn3 
	BYTE	W06
	BYTE		        Cn2 
	BYTE		N06     Cn3 
	BYTE	W06
	BYTE		N12     Fs0   v100
	BYTE		N12     Fs1 
	BYTE	W12
// 055   ----------------------------------------
	BYTE		N06     Fn2   v120
	BYTE		N06     Fn3 
	BYTE	W06
	BYTE		        Fn2   v112
	BYTE		N06     Fn3 
	BYTE	W06
	BYTE		        As1   v096
	BYTE		N06     As2 
	BYTE	W06
	BYTE		        As1 
	BYTE		N06     As2 
	BYTE	W06
	BYTE		        Cn2   v104
	BYTE		N06     Cn3 
	BYTE	W06
	BYTE		        Cn2 
	BYTE		N06     Cn3 
	BYTE	W06
	BYTE		        Cs2 
	BYTE		N06     Cs3 
	BYTE	W06
	BYTE		        Cs2 
	BYTE		N06     Cs3 
	BYTE	W06
// 056   ----------------------------------------
	BYTE		N12     Ds0   v108
	BYTE		N12     Ds1 
	BYTE	W12
	BYTE		N06     Cn2 
	BYTE		N06     Cn3 
	BYTE	W06
	BYTE		        Cn2   v104
	BYTE		N06     Cn3 
	BYTE	W06
	BYTE		        Cs2   v108
	BYTE		N06     Cs3 
	BYTE	W06
	BYTE		        Cs2 
	BYTE		N06     Cs3 
	BYTE	W06
	BYTE		N12     Ds0   v100
	BYTE		N12     Ds1 
	BYTE	W12
// 057   ----------------------------------------
	BYTE	PATT
	 POIN2	PastBelowFlow_3_053
// 058   ----------------------------------------
	BYTE		N12     As0   v108
	BYTE		N12     As1 
	BYTE	W12
	BYTE		N06     Fn1   v092
	BYTE		N06     Cn2 
	BYTE		N06     Fn2 
	BYTE	W06
	BYTE		        Fn1 
	BYTE		N06     Cn2 
	BYTE		N06     Fn2 
	BYTE	W06
	BYTE		        Cn2   v112
	BYTE		N06     Gs2 
	BYTE		N06     Cn3 
	BYTE	W06
	BYTE		        Cn2 
	BYTE		N06     Gs2 
	BYTE		N06     Cn3 
	BYTE	W06
	BYTE		N12     Fs0   v100
	BYTE		N12     Fs1 
	BYTE	W12
// 059   ----------------------------------------
PastBelowFlow_3_059:
	BYTE		N06     Fn2   v120
	BYTE		N06     Cn3 
	BYTE		N06     Fn3 
	BYTE	W06
	BYTE		        Fn2   v112
	BYTE		N06     Cn3 
	BYTE		N06     Fn3 
	BYTE	W06
	BYTE		        As1   v096
	BYTE		N06     Fn2 
	BYTE		N06     As2 
	BYTE	W06
	BYTE		        As1 
	BYTE		N06     Fn2 
	BYTE		N06     As2 
	BYTE	W06
	BYTE		        Cn2   v104
	BYTE		N06     Gs2 
	BYTE		N06     Cn3 
	BYTE	W06
	BYTE		        Cn2 
	BYTE		N06     Gs2 
	BYTE		N06     Cn3 
	BYTE	W06
	BYTE		        Cs2 
	BYTE		N06     Gs2 
	BYTE		N06     Cs3 
	BYTE	W06
	BYTE		        Cs2 
	BYTE		N06     Gs2 
	BYTE		N06     Cs3 
	BYTE	W06
	BYTE	PEND
// 060   ----------------------------------------
	BYTE		N12     Gs0   v108
	BYTE		N12     Gs1 
	BYTE	W12
	BYTE		N06     Cn2 
	BYTE		N06     Gs2 
	BYTE		N06     Cn3 
	BYTE	W06
	BYTE		        Cn2   v104
	BYTE		N06     Gs2 
	BYTE		N06     Cn3 
	BYTE	W06
	BYTE		        Cs2   v108
	BYTE		N06     Gs2 
	BYTE		N06     Cs3 
	BYTE	W06
	BYTE		        Cs2 
	BYTE		N06     Gs2 
	BYTE		N06     Cs3 
	BYTE	W06
	BYTE		N12     Gs0   v100
	BYTE		N12     Gs1 
	BYTE	W12
// 061   ----------------------------------------
	BYTE		N06     Gs2   v120
	BYTE		N06     Ds3 
	BYTE		N06     Gs3 
	BYTE	W06
	BYTE		        Gs2   v112
	BYTE		N06     Ds3 
	BYTE		N06     Gs3 
	BYTE	W06
	BYTE		        Cn2   v096
	BYTE		N06     Gs2 
	BYTE		N06     Cn3 
	BYTE	W06
	BYTE		        Cn2 
	BYTE		N06     Gs2 
	BYTE		N06     Cn3 
	BYTE	W06
	BYTE		N12     Gs0   v100
	BYTE		N12     Gs1 
	BYTE	W12
	BYTE		N06     Ds2   v108
	BYTE		N06     As2 
	BYTE		N06     Ds3 
	BYTE	W06
	BYTE		        Ds2 
	BYTE		N06     As2 
	BYTE		N06     Ds3 
	BYTE	W06
// 062   ----------------------------------------
	BYTE		N12     As0 
	BYTE		N12     As1 
	BYTE	W12
	BYTE		N06     Fn1   v088
	BYTE		N06     Cn2 
	BYTE		N06     Fn2 
	BYTE	W06
	BYTE		        Fn1   v092
	BYTE		N06     Cn2 
	BYTE		N06     Fn2 
	BYTE	W06
	BYTE		        Cn2   v112
	BYTE		N06     Gs2 
	BYTE		N06     Cn3 
	BYTE	W06
	BYTE		        Cn2 
	BYTE		N06     Gs2 
	BYTE		N06     Cn3 
	BYTE	W06
	BYTE		N12     Fs0   v100
	BYTE		N12     Fs1 
	BYTE	W12
// 063   ----------------------------------------
	BYTE	PATT
	 POIN2	PastBelowFlow_3_059
// 064   ----------------------------------------
	BYTE		N12     Cs1   v108
	BYTE		N12     Cs2 
	BYTE	W12
	BYTE		N06     Cn2   v104
	BYTE		N06     Gs2 
	BYTE		N06     Cn3 
	BYTE	W06
	BYTE		        Cn2 
	BYTE		N06     Gs2 
	BYTE		N06     Cn3 
	BYTE	W06
	BYTE		        Cs2   v108
	BYTE		N06     Gs2 
	BYTE		N06     Cs3 
	BYTE	W06
	BYTE		        Cs2 
	BYTE		N06     Gs2 
	BYTE		N06     Cs3 
	BYTE	W06
	BYTE		N12     Cs1   v100
	BYTE		N12     Cs2 
	BYTE	W12
// 065   ----------------------------------------
	BYTE		N06     Gs2   v120
	BYTE		N06     Ds3 
	BYTE		N06     Gs3 
	BYTE	W06
	BYTE		        Gs2   v112
	BYTE		N06     Ds3 
	BYTE		N06     Gs3 
	BYTE	W06
	BYTE		        Cn2   v092
	BYTE		N06     Gs2 
	BYTE		N06     Cn3 
	BYTE	W06
	BYTE		        Cn2   v096
	BYTE		N06     Gs2 
	BYTE		N06     Cn3 
	BYTE	W06
	BYTE		N24     Cs1   v092
	BYTE		N24     Cs2 
	BYTE	W24
// 066   ----------------------------------------
	BYTE		N12     Fs0   v112
	BYTE		N12     Fs1 
	BYTE	W12
	BYTE		        Fs0 
	BYTE		N12     Fs1 
	BYTE	W12
	BYTE		N06     Fs1   v096
	BYTE	W06
	BYTE		        Fn1 
	BYTE	W06
	BYTE		        Cs2   v108
	BYTE	W06
	BYTE		        Fn2   v112
	BYTE	W06
// 067   ----------------------------------------
	BYTE		N12     Fs0   v116
	BYTE		N12     Fs1 
	BYTE	W12
	BYTE		        Fs0   v112
	BYTE		N12     Fs1 
	BYTE	W12
	BYTE		N06     Fs1   v096
	BYTE	W06
	BYTE		        Fn1 
	BYTE	W06
	BYTE		        Cs2   v112
	BYTE	W06
	BYTE		        Fn2 
	BYTE	W06
// 068   ----------------------------------------
PastBelowFlow_3_068:
	BYTE		N12     Ds0   v112
	BYTE		N12     Ds1 
	BYTE	W12
	BYTE		        Ds0   v108
	BYTE		N12     Ds1 
	BYTE	W12
	BYTE		N06     Fs1   v096
	BYTE	W06
	BYTE		        Fn1 
	BYTE	W06
	BYTE		        Cs2   v112
	BYTE	W06
	BYTE		        Fn2 
	BYTE	W06
	BYTE	PEND
// 069   ----------------------------------------
	BYTE	PATT
	 POIN2	PastBelowFlow_3_068
// 070   ----------------------------------------
	BYTE		N12     As0   v127
	BYTE		N12     As1 
	BYTE	W12
	BYTE		        As0   v120
	BYTE		N12     As1 
	BYTE	W12
	BYTE		N06     Fs1   v092
	BYTE	W06
	BYTE		        Fn1 
	BYTE	W06
	BYTE		        Cs2   v112
	BYTE	W06
	BYTE		        Fn2 
	BYTE	W06
// 071   ----------------------------------------
PastBelowFlow_3_071:
	BYTE		N12     As0   v124
	BYTE		N12     As1 
	BYTE	W12
	BYTE		        As0   v116
	BYTE		N12     As1 
	BYTE	W12
	BYTE		N06     Fs1   v092
	BYTE	W06
	BYTE		        Fn1 
	BYTE	W06
	BYTE		        Cs2   v108
	BYTE	W06
	BYTE		        Fn2   v112
	BYTE	W06
	BYTE	PEND
// 072   ----------------------------------------
	BYTE	PATT
	 POIN2	PastBelowFlow_3_071
// 073   ----------------------------------------
	BYTE		N12     Cs1   v127
	BYTE		N12     Cs2 
	BYTE	W12
	BYTE		        Cs1   v124
	BYTE		N12     Cs2 
	BYTE	W12
	BYTE		N06     Fs1   v092
	BYTE	W06
	BYTE		        Fn1 
	BYTE	W06
	BYTE		        Cs2   v108
	BYTE	W06
	BYTE		        Fn2   v112
	BYTE	W06
// 074   ----------------------------------------
	BYTE		N12     En1   v127
	BYTE		N12     En2 
	BYTE	W12
	BYTE		        En1 
	BYTE		N12     En2 
	BYTE	W12
	BYTE		N06     En2   v104
	BYTE	W06
	BYTE		        Ds2   v100
	BYTE	W06
	BYTE		        En2   v104
	BYTE	W06
	BYTE		        Bn2   v112
	BYTE		N06     Ds3 
	BYTE	W06
// 075   ----------------------------------------
	BYTE		N12     En1   v120
	BYTE		N12     En2 
	BYTE	W12
	BYTE		        En1   v112
	BYTE		N12     En2 
	BYTE	W12
	BYTE		N06     En2   v096
	BYTE	W06
	BYTE		        Ds2   v092
	BYTE	W06
	BYTE		        En2   v096
	BYTE	W06
	BYTE		        Bn2   v112
	BYTE		N06     Ds3 
	BYTE	W06
// 076   ----------------------------------------
PastBelowFlow_3_076:
	BYTE		N12     Cs1   v112
	BYTE		N12     Cs2 
	BYTE	W12
	BYTE		        Cs1   v108
	BYTE		N12     Cs2 
	BYTE	W12
	BYTE		N06     En2   v100
	BYTE	W06
	BYTE		        Ds2   v096
	BYTE	W06
	BYTE		        En2   v100
	BYTE	W06
	BYTE		        Bn2   v112
	BYTE		N06     Ds3 
	BYTE	W06
	BYTE	PEND
// 077   ----------------------------------------
	BYTE	PATT
	 POIN2	PastBelowFlow_3_076
// 078   ----------------------------------------
	BYTE		N12     Gs1   v127
	BYTE		N12     Gs2 
	BYTE	W12
	BYTE		        Gs1   v124
	BYTE		N12     Gs2 
	BYTE	W12
	BYTE		N06     En2   v092
	BYTE	W06
	BYTE		        Ds2 
	BYTE	W06
	BYTE		        En2   v096
	BYTE	W06
	BYTE		        Bn2   v112
	BYTE		N06     Ds3 
	BYTE	W06
// 079   ----------------------------------------
PastBelowFlow_3_079:
	BYTE		N12     Gs1   v127
	BYTE		N12     Gs2 
	BYTE	W12
	BYTE		        Gs1   v120
	BYTE		N12     Gs2 
	BYTE	W12
	BYTE		N06     En2   v092
	BYTE	W06
	BYTE		        Ds2   v088
	BYTE	W06
	BYTE		        En2   v092
	BYTE	W06
	BYTE		        Bn2   v112
	BYTE		N06     Ds3 
	BYTE	W06
	BYTE	PEND
// 080   ----------------------------------------
	BYTE	PATT
	 POIN2	PastBelowFlow_3_079
// 081   ----------------------------------------
	BYTE		N12     Gs1   v127
	BYTE		N12     Gs2 
	BYTE	W12
	BYTE		        Gs1   v120
	BYTE		N12     Gs2 
	BYTE	W12
	BYTE		N06     En2   v092
	BYTE	W06
	BYTE		        Fs2   v096
	BYTE	W06
	BYTE		        Bn2   v112
	BYTE	W06
	BYTE		N06   
	BYTE		N06     Ds3 
	BYTE	W06
// 082   ----------------------------------------
PastBelowFlow_3_082:
	BYTE		N06     An2   v120
	BYTE		N06     Cs3 
	BYTE		N06     En3 
	BYTE	W06
	BYTE		        An2   v112
	BYTE		N06     Cs3 
	BYTE		N06     En3 
	BYTE	W06
	BYTE		N12     An1   v084
	BYTE		N12     En2 
	BYTE	W12
	BYTE		N06     An2   v112
	BYTE		N06     Cs3 
	BYTE		N06     En3 
	BYTE	W06
	BYTE		        An2 
	BYTE		N06     Cs3 
	BYTE		N06     En3 
	BYTE	W06
	BYTE		N12     An1   v084
	BYTE		N12     En2 
	BYTE	W12
	BYTE	PEND
// 083   ----------------------------------------
	BYTE	PATT
	 POIN2	PastBelowFlow_3_082
// 084   ----------------------------------------
PastBelowFlow_3_084:
	BYTE		N06     An2   v116
	BYTE		N06     Cs3 
	BYTE		N06     En3 
	BYTE	W06
	BYTE		        An2   v112
	BYTE		N06     Cs3 
	BYTE		N06     En3 
	BYTE	W06
	BYTE		N12     An1   v084
	BYTE		N12     En2 
	BYTE	W12
	BYTE		N06     An2   v112
	BYTE		N06     Cs3 
	BYTE		N06     En3 
	BYTE	W06
	BYTE		        An2 
	BYTE		N06     Cs3 
	BYTE		N06     En3 
	BYTE	W06
	BYTE		N12     An1   v084
	BYTE		N12     En2 
	BYTE	W12
	BYTE	PEND
// 085   ----------------------------------------
	BYTE	PATT
	 POIN2	PastBelowFlow_3_084
// 086   ----------------------------------------
	BYTE		N06     Gs2   v120
	BYTE		N06     As2 
	BYTE		N06     Fn3 
	BYTE	W06
	BYTE		        Gs2   v112
	BYTE		N06     As2 
	BYTE		N06     Fn3 
	BYTE	W06
	BYTE		N12     As1   v084
	BYTE		N12     Fn2 
	BYTE	W12
	BYTE		N06     Gs2   v112
	BYTE		N06     As2 
	BYTE		N06     Fn3 
	BYTE	W06
	BYTE		        Gs2 
	BYTE		N06     As2 
	BYTE		N06     Fn3 
	BYTE	W06
	BYTE		N12     As1   v084
	BYTE		N12     Fn2 
	BYTE	W12
// 087   ----------------------------------------
	BYTE		N06     Gs2   v116
	BYTE		N06     As2 
	BYTE		N06     Fn3 
	BYTE	W06
	BYTE		        Gs2   v112
	BYTE		N06     As2 
	BYTE		N06     Fn3 
	BYTE	W06
	BYTE		N12     As1   v084
	BYTE		N12     Fn2 
	BYTE	W12
	BYTE		N06     Gs2   v112
	BYTE		N06     As2 
	BYTE		N06     Fn3 
	BYTE	W06
	BYTE		        Gs2 
	BYTE		N06     As2 
	BYTE		N06     Fn3 
	BYTE	W06
	BYTE		N12     As1   v084
	BYTE		N12     Fn2 
	BYTE	W12
// 088   ----------------------------------------
	BYTE		        As0   v124
	BYTE		N12     Fn1 
	BYTE		N12     As1 
	BYTE	W12
	BYTE		        As0   v120
	BYTE		N12     Fn1 
	BYTE		N12     As1 
	BYTE	W36
// 089   ----------------------------------------
	BYTE		        As0   v127
	BYTE		N12     Fn1 
	BYTE		N12     As1 
	BYTE	W12
	BYTE		        As0 
	BYTE		N12     Fn1 
	BYTE		N12     As1 
	BYTE	W36
	BYTE	GoTo
	 POIN2	PastBelowFlow_3_B1
PastBelowFlow_3_B2:
// 090   ----------------------------------------
	BYTE	FINE

//******************************************************//
	ALIGN 4

PastBelowFlow:
	BYTE	3	// NumTrks
	BYTE	0	// NumBlks
	BYTE	PastBelowFlow_pri	// Priority
	BYTE	PastBelowFlow_rev	// Reverb.

	POIN2	PastBelowFlow_grp

	POIN2	PastBelowFlow_1
	POIN2	PastBelowFlow_2
	POIN2	PastBelowFlow_3

	
